SplineFontDB: 3.2
FontName: Zpix
FullName: Zpix
FamilyName: Zpix
Weight: Medium
Copyright: https://github.com/SolidZORO/zpix-pixel-font
Version: 1.0
ItalicAngle: 0
UnderlinePosition: -150
UnderlineWidth: 100
Ascent: 1000
Descent: 200
InvalidEm: 0
sfntRevision: 0x00010000
LayerCount: 2
Layer: 0 1 "Back" 1
Layer: 1 1 "Fore" 0
XUID: [1021 432 1057861200 3787413]
StyleMap: 0x0040
FSType: 0
OS2Version: 5
OS2_WeightWidthSlopeOnly: 0
OS2_UseTypoMetrics: 1
CreationTime: 1709768043
ModificationTime: 1733604338
PfmFamily: 17
TTFWeight: 500
TTFWidth: 5
LineGap: 0
VLineGap: 0
Panose: 2 0 0 0 0 0 0 0 0 0
OS2TypoAscent: 1000
OS2TypoAOffset: 0
OS2TypoDescent: -200
OS2TypoDOffset: 0
OS2TypoLinegap: 0
OS2WinAscent: 1000
OS2WinAOffset: 0
OS2WinDescent: 200
OS2WinDOffset: 0
HheadAscent: 1000
HheadAOffset: 0
HheadDescent: -200
HheadDOffset: 0
OS2SubXSize: 1200
OS2SubYSize: 1200
OS2SubXOff: 0
OS2SubYOff: 600
OS2SupXSize: 1200
OS2SupYSize: 1200
OS2SupXOff: 0
OS2SupYOff: 600
OS2StrikeYSize: 100
OS2StrikeYPos: 500
OS2CapHeight: 800
OS2XHeight: 600
OS2Vendor: 'KBnP'
OS2CodePages: 00160000.00000000
OS2UnicodeRanges: 8000028f.08cf7cfb.0000001e.00000000
DEI: 91125
ShortTable: maxp 16
  1
  0
  22237
  168
  28
  0
  0
  2
  0
  0
  0
  0
  0
  0
  0
  0
EndShort
LangName: 1033 "" "" "Regular" "BitsNPicas: Zpix: 2024" "" "Version 1.0" "" "" "Made with Bits'n'Picas by Kreative Software" "" "" "http://www.kreativekorp.com/software/bitsnpicas/"
Encoding: UnicodeBmp
UnicodeInterp: none
NameList: AGL For New Fonts
DisplaySize: -48
AntiAlias: 1
FitToEm: 0
WinInfo: 40508 38 16
BeginChars: 65538 1336

StartChar: exclam
Encoding: 33 33 5
Width: 300
GlyphClass: 1
Flags: W
LayerCount: 2
Fore
SplineSet
0 100 m 1,0,-1
 100 100 l 1,1,-1
 100 -100 l 1,2,-1
 0 -100 l 1,3,-1
 0 100 l 1,0,-1
0 200 m 1,4,-1
 0 800 l 1,5,-1
 100 800 l 1,6,-1
 100 200 l 1,7,-1
 0 200 l 1,4,-1
EndSplineSet
EndChar

StartChar: quotedbl
Encoding: 34 34 6
Width: 500
GlyphClass: 1
Flags: W
LayerCount: 2
Fore
SplineSet
0 600 m 1,0,-1
 0 800 l 1,1,-1
 100 800 l 1,2,-1
 100 600 l 1,3,-1
 0 600 l 1,0,-1
200 600 m 1,4,-1
 200 800 l 1,5,-1
 300 800 l 1,6,-1
 300 600 l 1,7,-1
 200 600 l 1,4,-1
EndSplineSet
EndChar

StartChar: numbersign
Encoding: 35 35 7
Width: 700
GlyphClass: 1
Flags: W
LayerCount: 2
Fore
SplineSet
0 100 m 1,0,-1
 0 200 l 1,1,-1
 100 200 l 1,2,-1
 100 500 l 1,3,-1
 0 500 l 1,4,-1
 0 600 l 1,5,-1
 100 600 l 1,6,-1
 100 800 l 1,7,-1
 200 800 l 1,8,-1
 200 600 l 1,9,-1
 300 600 l 1,10,-1
 300 800 l 1,11,-1
 400 800 l 1,12,-1
 400 600 l 1,13,-1
 500 600 l 1,14,-1
 500 500 l 1,15,-1
 400 500 l 1,16,-1
 400 200 l 1,17,-1
 500 200 l 1,18,-1
 500 100 l 1,19,-1
 400 100 l 1,20,-1
 400 -100 l 1,21,-1
 300 -100 l 1,22,-1
 300 100 l 1,23,-1
 200 100 l 1,24,-1
 200 -100 l 1,25,-1
 100 -100 l 1,26,-1
 100 100 l 1,27,-1
 0 100 l 1,0,-1
200 200 m 1,28,-1
 300 200 l 1,29,-1
 300 500 l 1,30,-1
 200 500 l 1,31,-1
 200 200 l 1,28,-1
EndSplineSet
EndChar

StartChar: dollar
Encoding: 36 36 8
Width: 700
GlyphClass: 1
Flags: W
LayerCount: 2
Fore
SplineSet
0 100 m 1,0,-1
 0 200 l 1,1,-1
 100 200 l 1,2,-1
 100 100 l 1,3,-1
 0 100 l 1,0,-1
0 400 m 1,4,-1
 0 600 l 1,5,-1
 100 600 l 1,6,-1
 100 400 l 1,7,-1
 0 400 l 1,4,-1
200 0 m 1,8,-1
 100 0 l 1,9,-1
 100 100 l 1,10,-1
 200 100 l 1,11,-1
 200 300 l 1,12,-1
 100 300 l 1,13,-1
 100 400 l 1,14,-1
 200 400 l 1,15,-1
 200 600 l 1,16,-1
 100 600 l 1,17,-1
 100 700 l 1,18,-1
 200 700 l 1,19,-1
 200 800 l 1,20,-1
 300 800 l 1,21,-1
 300 700 l 1,22,-1
 400 700 l 1,23,-1
 400 600 l 1,24,-1
 300 600 l 1,25,-1
 300 400 l 1,26,-1
 400 400 l 1,27,-1
 400 300 l 1,28,-1
 300 300 l 1,29,-1
 300 100 l 1,30,-1
 400 100 l 1,31,-1
 400 0 l 1,32,-1
 300 0 l 1,33,-1
 300 -100 l 1,34,-1
 200 -100 l 1,35,-1
 200 0 l 1,8,-1
400 100 m 1,36,-1
 400 300 l 1,37,-1
 500 300 l 1,38,-1
 500 100 l 1,39,-1
 400 100 l 1,36,-1
400 500 m 1,40,-1
 400 600 l 1,41,-1
 500 600 l 1,42,-1
 500 500 l 1,43,-1
 400 500 l 1,40,-1
EndSplineSet
EndChar

StartChar: percent
Encoding: 37 37 9
Width: 700
GlyphClass: 1
Flags: W
LayerCount: 2
Fore
SplineSet
200 100 m 1,0,-1
 300 100 l 1,1,-1
 300 -100 l 1,2,-1
 200 -100 l 1,3,-1
 200 100 l 1,0,-1
200 400 m 1,4,-1
 100 400 l 1,5,-1
 100 600 l 1,6,-1
 200 600 l 1,7,-1
 200 400 l 1,4,-1
200 300 m 1,8,-1
 200 400 l 1,9,-1
 300 400 l 1,10,-1
 300 300 l 1,11,-1
 200 300 l 1,8,-1
200 600 m 1,12,-1
 200 700 l 1,13,-1
 300 700 l 1,14,-1
 300 600 l 1,15,-1
 200 600 l 1,12,-1
400 200 m 1,16,-1
 500 200 l 1,17,-1
 500 0 l 1,18,-1
 400 0 l 1,19,-1
 400 100 l 1,20,-1
 300 100 l 1,21,-1
 300 300 l 1,22,-1
 400 300 l 1,23,-1
 400 200 l 1,16,-1
400 500 m 1,24,-1
 500 500 l 1,25,-1
 500 300 l 1,26,-1
 400 300 l 1,27,-1
 400 400 l 1,28,-1
 300 400 l 1,29,-1
 300 600 l 1,30,-1
 400 600 l 1,31,-1
 400 500 l 1,24,-1
600 200 m 1,32,-1
 500 200 l 1,33,-1
 500 300 l 1,34,-1
 600 300 l 1,35,-1
 600 200 l 1,32,-1
600 0 m 1,36,-1
 600 -100 l 1,37,-1
 500 -100 l 1,38,-1
 500 0 l 1,39,-1
 600 0 l 1,36,-1
600 500 m 1,40,-1
 500 500 l 1,41,-1
 500 700 l 1,42,-1
 600 700 l 1,43,-1
 600 500 l 1,40,-1
700 0 m 1,44,-1
 600 0 l 1,45,-1
 600 200 l 1,46,-1
 700 200 l 1,47,-1
 700 0 l 1,44,-1
EndSplineSet
EndChar

StartChar: ampersand
Encoding: 38 38 10
Width: 700
GlyphClass: 1
Flags: W
LayerCount: 2
Fore
SplineSet
200 0 m 1,0,-1
 400 0 l 1,1,-1
 400 -100 l 1,2,-1
 200 -100 l 1,3,-1
 200 0 l 1,0,-1
200 500 m 1,4,-1
 400 500 l 1,5,-1
 400 400 l 1,6,-1
 300 400 l 1,7,-1
 300 300 l 1,8,-1
 200 300 l 1,9,-1
 200 500 l 1,4,-1
200 300 m 1,10,-1
 200 0 l 1,11,-1
 100 0 l 1,12,-1
 100 300 l 1,13,-1
 200 300 l 1,10,-1
200 700 m 1,14,-1
 200 500 l 1,15,-1
 100 500 l 1,16,-1
 100 700 l 1,17,-1
 200 700 l 1,14,-1
200 800 m 1,18,-1
 400 800 l 1,19,-1
 400 700 l 1,20,-1
 200 700 l 1,21,-1
 200 800 l 1,18,-1
400 100 m 1,22,-1
 500 100 l 1,23,-1
 500 0 l 1,24,-1
 400 0 l 1,25,-1
 400 100 l 1,22,-1
400 500 m 1,26,-1
 400 700 l 1,27,-1
 500 700 l 1,28,-1
 500 500 l 1,29,-1
 400 500 l 1,26,-1
400 300 m 1,30,-1
 400 100 l 1,31,-1
 300 100 l 1,32,-1
 300 300 l 1,33,-1
 400 300 l 1,30,-1
600 100 m 1,34,-1
 500 100 l 1,35,-1
 500 300 l 1,36,-1
 600 300 l 1,37,-1
 600 100 l 1,34,-1
600 0 m 1,38,-1
 600 -100 l 1,39,-1
 500 -100 l 1,40,-1
 500 0 l 1,41,-1
 600 0 l 1,38,-1
EndSplineSet
EndChar

StartChar: quotesingle
Encoding: 39 39 11
Width: 300
GlyphClass: 1
Flags: W
LayerCount: 2
Fore
SplineSet
0 600 m 1,0,-1
 0 800 l 1,1,-1
 100 800 l 1,2,-1
 100 600 l 1,3,-1
 0 600 l 1,0,-1
EndSplineSet
EndChar

StartChar: parenleft
Encoding: 40 40 12
Width: 500
GlyphClass: 1
Flags: W
LayerCount: 2
Fore
SplineSet
0 100 m 1,0,-1
 0 600 l 1,1,-1
 100 600 l 1,2,-1
 100 100 l 1,3,-1
 0 100 l 1,0,-1
100 100 m 1,4,-1
 200 100 l 1,5,-1
 200 -100 l 1,6,-1
 100 -100 l 1,7,-1
 100 100 l 1,4,-1
100 600 m 1,8,-1
 100 800 l 1,9,-1
 200 800 l 1,10,-1
 200 600 l 1,11,-1
 100 600 l 1,8,-1
200 -100 m 1,12,-1
 300 -100 l 1,13,-1
 300 -200 l 1,14,-1
 200 -200 l 1,15,-1
 200 -100 l 1,12,-1
200 800 m 1,16,-1
 200 900 l 1,17,-1
 300 900 l 1,18,-1
 300 800 l 1,19,-1
 200 800 l 1,16,-1
EndSplineSet
EndChar

StartChar: parenright
Encoding: 41 41 13
Width: 500
GlyphClass: 1
Flags: W
LayerCount: 2
Fore
SplineSet
0 -200 m 1,0,-1
 0 -100 l 1,1,-1
 100 -100 l 1,2,-1
 100 -200 l 1,3,-1
 0 -200 l 1,0,-1
0 800 m 1,4,-1
 0 900 l 1,5,-1
 100 900 l 1,6,-1
 100 800 l 1,7,-1
 0 800 l 1,4,-1
100 100 m 1,8,-1
 200 100 l 1,9,-1
 200 -100 l 1,10,-1
 100 -100 l 1,11,-1
 100 100 l 1,8,-1
100 600 m 1,12,-1
 100 800 l 1,13,-1
 200 800 l 1,14,-1
 200 600 l 1,15,-1
 100 600 l 1,12,-1
200 100 m 1,16,-1
 200 600 l 1,17,-1
 300 600 l 1,18,-1
 300 100 l 1,19,-1
 200 100 l 1,16,-1
EndSplineSet
EndChar

StartChar: asterisk
Encoding: 42 42 14
Width: 700
GlyphClass: 1
Flags: W
LayerCount: 2
Fore
SplineSet
0 300 m 1,0,-1
 0 400 l 1,1,-1
 200 400 l 1,2,-1
 200 600 l 1,3,-1
 300 600 l 1,4,-1
 300 400 l 1,5,-1
 500 400 l 1,6,-1
 500 300 l 1,7,-1
 300 300 l 1,8,-1
 300 200 l 1,9,-1
 200 200 l 1,10,-1
 200 300 l 1,11,-1
 0 300 l 1,0,-1
100 100 m 1,12,-1
 100 200 l 1,13,-1
 200 200 l 1,14,-1
 200 100 l 1,15,-1
 100 100 l 1,12,-1
300 200 m 1,16,-1
 400 200 l 1,17,-1
 400 100 l 1,18,-1
 300 100 l 1,19,-1
 300 200 l 1,16,-1
EndSplineSet
EndChar

StartChar: plus
Encoding: 43 43 15
Width: 700
GlyphClass: 1
Flags: W
LayerCount: 2
Fore
SplineSet
0 300 m 1,0,-1
 0 400 l 1,1,-1
 200 400 l 1,2,-1
 200 600 l 1,3,-1
 300 600 l 1,4,-1
 300 400 l 1,5,-1
 500 400 l 1,6,-1
 500 300 l 1,7,-1
 300 300 l 1,8,-1
 300 100 l 1,9,-1
 200 100 l 1,10,-1
 200 300 l 1,11,-1
 0 300 l 1,0,-1
EndSplineSet
EndChar

StartChar: comma
Encoding: 44 44 16
Width: 400
GlyphClass: 1
Flags: W
LayerCount: 2
Fore
SplineSet
0 -200 m 1,0,-1
 100 -200 l 1,1,-1
 100 -300 l 1,2,-1
 0 -300 l 1,3,-1
 0 -200 l 1,0,-1
100 0 m 1,4,-1
 200 0 l 1,5,-1
 200 -200 l 1,6,-1
 100 -200 l 1,7,-1
 100 0 l 1,4,-1
EndSplineSet
EndChar

StartChar: hyphen
Encoding: 45 45 17
Width: 700
GlyphClass: 1
Flags: W
LayerCount: 2
Fore
SplineSet
0 300 m 1,0,-1
 0 400 l 1,1,-1
 500 400 l 1,2,-1
 500 300 l 1,3,-1
 0 300 l 1,0,-1
EndSplineSet
EndChar

StartChar: period
Encoding: 46 46 18
Width: 400
GlyphClass: 1
Flags: W
LayerCount: 2
Fore
SplineSet
100 100 m 1,0,-1
 200 100 l 1,1,-1
 200 -100 l 1,2,-1
 100 -100 l 1,3,-1
 100 100 l 1,0,-1
EndSplineSet
EndChar

StartChar: slash
Encoding: 47 47 19
Width: 700
GlyphClass: 1
Flags: W
LayerCount: 2
Fore
SplineSet
400 500 m 1,0,-1
 300 500 l 1,1,-1
 300 800 l 1,2,-1
 400 800 l 1,3,-1
 400 500 l 1,0,-1
100 200 m 1,4,-1
 200 200 l 1,5,-1
 200 -100 l 1,6,-1
 100 -100 l 1,7,-1
 100 200 l 1,4,-1
200 200 m 1,8,-1
 200 500 l 1,9,-1
 300 500 l 1,10,-1
 300 200 l 1,11,-1
 200 200 l 1,8,-1
EndSplineSet
EndChar

StartChar: zero
Encoding: 48 48 20
Width: 700
GlyphClass: 1
Flags: W
LayerCount: 2
Fore
SplineSet
0 0 m 1,0,-1
 0 700 l 1,1,-1
 100 700 l 1,2,-1
 100 0 l 1,3,-1
 0 0 l 1,0,-1
400 0 m 1,4,-1
 400 -100 l 1,5,-1
 100 -100 l 1,6,-1
 100 0 l 1,7,-1
 400 0 l 1,4,-1
400 700 m 1,8,-1
 500 700 l 1,9,-1
 500 0 l 1,10,-1
 400 0 l 1,11,-1
 400 700 l 1,8,-1
400 800 m 1,12,-1
 400 700 l 1,13,-1
 100 700 l 1,14,-1
 100 800 l 1,15,-1
 400 800 l 1,12,-1
EndSplineSet
EndChar

StartChar: one
Encoding: 49 49 21
Width: 400
GlyphClass: 1
Flags: W
LayerCount: 2
Fore
SplineSet
0 600 m 1,0,-1
 0 700 l 1,1,-1
 100 700 l 1,2,-1
 100 800 l 1,3,-1
 200 800 l 1,4,-1
 200 -100 l 1,5,-1
 100 -100 l 1,6,-1
 100 600 l 1,7,-1
 0 600 l 1,0,-1
EndSplineSet
EndChar

StartChar: two
Encoding: 50 50 22
Width: 700
GlyphClass: 1
Flags: W
LayerCount: 2
Fore
SplineSet
0 100 m 1,0,-1
 100 100 l 1,1,-1
 100 0 l 1,2,-1
 500 0 l 1,3,-1
 500 -100 l 1,4,-1
 0 -100 l 1,5,-1
 0 100 l 1,0,-1
0 500 m 1,6,-1
 0 700 l 1,7,-1
 100 700 l 1,8,-1
 100 500 l 1,9,-1
 0 500 l 1,6,-1
100 100 m 1,10,-1
 100 200 l 1,11,-1
 200 200 l 1,12,-1
 200 100 l 1,13,-1
 100 100 l 1,10,-1
100 700 m 1,14,-1
 100 800 l 1,15,-1
 400 800 l 1,16,-1
 400 700 l 1,17,-1
 100 700 l 1,14,-1
200 200 m 1,18,-1
 200 300 l 1,19,-1
 300 300 l 1,20,-1
 300 200 l 1,21,-1
 200 200 l 1,18,-1
300 300 m 1,22,-1
 300 400 l 1,23,-1
 400 400 l 1,24,-1
 400 300 l 1,25,-1
 300 300 l 1,22,-1
400 400 m 1,26,-1
 400 700 l 1,27,-1
 500 700 l 1,28,-1
 500 400 l 1,29,-1
 400 400 l 1,26,-1
EndSplineSet
EndChar

StartChar: three
Encoding: 51 51 23
Width: 700
GlyphClass: 1
Flags: W
LayerCount: 2
Fore
SplineSet
0 200 m 1,0,-1
 100 200 l 1,1,-1
 100 0 l 1,2,-1
 0 0 l 1,3,-1
 0 200 l 1,0,-1
0 500 m 1,4,-1
 0 700 l 1,5,-1
 100 700 l 1,6,-1
 100 500 l 1,7,-1
 0 500 l 1,4,-1
100 0 m 1,8,-1
 400 0 l 1,9,-1
 400 -100 l 1,10,-1
 100 -100 l 1,11,-1
 100 0 l 1,8,-1
100 700 m 1,12,-1
 100 800 l 1,13,-1
 400 800 l 1,14,-1
 400 700 l 1,15,-1
 100 700 l 1,12,-1
200 300 m 1,16,-1
 200 400 l 1,17,-1
 400 400 l 1,18,-1
 400 300 l 1,19,-1
 200 300 l 1,16,-1
400 0 m 1,20,-1
 400 300 l 1,21,-1
 500 300 l 1,22,-1
 500 0 l 1,23,-1
 400 0 l 1,20,-1
400 400 m 1,24,-1
 400 700 l 1,25,-1
 500 700 l 1,26,-1
 500 400 l 1,27,-1
 400 400 l 1,24,-1
EndSplineSet
EndChar

StartChar: four
Encoding: 52 52 24
Width: 700
GlyphClass: 1
Flags: W
LayerCount: 2
Fore
SplineSet
0 100 m 1,0,-1
 0 300 l 1,1,-1
 100 300 l 1,2,-1
 100 200 l 1,3,-1
 300 200 l 1,4,-1
 300 500 l 1,5,-1
 200 500 l 1,6,-1
 200 700 l 1,7,-1
 300 700 l 1,8,-1
 300 800 l 1,9,-1
 400 800 l 1,10,-1
 400 200 l 1,11,-1
 500 200 l 1,12,-1
 500 100 l 1,13,-1
 400 100 l 1,14,-1
 400 -100 l 1,15,-1
 300 -100 l 1,16,-1
 300 100 l 1,17,-1
 0 100 l 1,0,-1
100 500 m 1,18,-1
 200 500 l 1,19,-1
 200 300 l 1,20,-1
 100 300 l 1,21,-1
 100 500 l 1,18,-1
EndSplineSet
EndChar

StartChar: five
Encoding: 53 53 25
Width: 700
GlyphClass: 1
Flags: W
LayerCount: 2
Fore
SplineSet
0 0 m 1,0,-1
 0 100 l 1,1,-1
 100 100 l 1,2,-1
 100 0 l 1,3,-1
 0 0 l 1,0,-1
0 300 m 1,4,-1
 0 800 l 1,5,-1
 500 800 l 1,6,-1
 500 700 l 1,7,-1
 100 700 l 1,8,-1
 100 500 l 1,9,-1
 400 500 l 1,10,-1
 400 400 l 1,11,-1
 100 400 l 1,12,-1
 100 300 l 1,13,-1
 0 300 l 1,4,-1
100 0 m 1,14,-1
 400 0 l 1,15,-1
 400 -100 l 1,16,-1
 100 -100 l 1,17,-1
 100 0 l 1,14,-1
400 0 m 1,18,-1
 400 400 l 1,19,-1
 500 400 l 1,20,-1
 500 0 l 1,21,-1
 400 0 l 1,18,-1
EndSplineSet
EndChar

StartChar: six
Encoding: 54 54 26
Width: 700
GlyphClass: 1
Flags: W
LayerCount: 2
Fore
SplineSet
0 0 m 1,0,-1
 0 700 l 1,1,-1
 100 700 l 1,2,-1
 100 500 l 1,3,-1
 400 500 l 1,4,-1
 400 400 l 1,5,-1
 100 400 l 1,6,-1
 100 0 l 1,7,-1
 0 0 l 1,0,-1
100 0 m 1,8,-1
 400 0 l 1,9,-1
 400 -100 l 1,10,-1
 100 -100 l 1,11,-1
 100 0 l 1,8,-1
100 700 m 1,12,-1
 100 800 l 1,13,-1
 400 800 l 1,14,-1
 400 700 l 1,15,-1
 100 700 l 1,12,-1
400 0 m 1,16,-1
 400 400 l 1,17,-1
 500 400 l 1,18,-1
 500 0 l 1,19,-1
 400 0 l 1,16,-1
400 700 m 1,20,-1
 500 700 l 1,21,-1
 500 600 l 1,22,-1
 400 600 l 1,23,-1
 400 700 l 1,20,-1
EndSplineSet
EndChar

StartChar: seven
Encoding: 55 55 27
Width: 700
GlyphClass: 1
Flags: W
LayerCount: 2
Fore
SplineSet
0 600 m 1,0,-1
 0 800 l 1,1,-1
 500 800 l 1,2,-1
 500 500 l 1,3,-1
 400 500 l 1,4,-1
 400 700 l 1,5,-1
 100 700 l 1,6,-1
 100 600 l 1,7,-1
 0 600 l 1,0,-1
200 -100 m 1,8,-1
 200 300 l 1,9,-1
 300 300 l 1,10,-1
 300 -100 l 1,11,-1
 200 -100 l 1,8,-1
300 500 m 1,12,-1
 400 500 l 1,13,-1
 400 300 l 1,14,-1
 300 300 l 1,15,-1
 300 500 l 1,12,-1
EndSplineSet
EndChar

StartChar: eight
Encoding: 56 56 28
Width: 700
GlyphClass: 1
Flags: W
LayerCount: 2
Fore
SplineSet
0 0 m 1,0,-1
 0 300 l 1,1,-1
 100 300 l 1,2,-1
 100 0 l 1,3,-1
 0 0 l 1,0,-1
0 400 m 1,4,-1
 0 700 l 1,5,-1
 100 700 l 1,6,-1
 100 400 l 1,7,-1
 0 400 l 1,4,-1
100 0 m 1,8,-1
 400 0 l 1,9,-1
 400 -100 l 1,10,-1
 100 -100 l 1,11,-1
 100 0 l 1,8,-1
100 400 m 1,12,-1
 400 400 l 1,13,-1
 400 300 l 1,14,-1
 100 300 l 1,15,-1
 100 400 l 1,12,-1
100 700 m 1,16,-1
 100 800 l 1,17,-1
 400 800 l 1,18,-1
 400 700 l 1,19,-1
 100 700 l 1,16,-1
400 0 m 1,20,-1
 400 300 l 1,21,-1
 500 300 l 1,22,-1
 500 0 l 1,23,-1
 400 0 l 1,20,-1
400 400 m 1,24,-1
 400 700 l 1,25,-1
 500 700 l 1,26,-1
 500 400 l 1,27,-1
 400 400 l 1,24,-1
EndSplineSet
EndChar

StartChar: nine
Encoding: 57 57 29
Width: 700
GlyphClass: 1
Flags: W
LayerCount: 2
Fore
SplineSet
0 0 m 1,0,-1
 0 100 l 1,1,-1
 100 100 l 1,2,-1
 100 0 l 1,3,-1
 0 0 l 1,0,-1
0 300 m 1,4,-1
 0 700 l 1,5,-1
 100 700 l 1,6,-1
 100 300 l 1,7,-1
 0 300 l 1,4,-1
100 200 m 1,8,-1
 100 300 l 1,9,-1
 400 300 l 1,10,-1
 400 700 l 1,11,-1
 500 700 l 1,12,-1
 500 0 l 1,13,-1
 400 0 l 1,14,-1
 400 200 l 1,15,-1
 100 200 l 1,8,-1
100 0 m 1,16,-1
 400 0 l 1,17,-1
 400 -100 l 1,18,-1
 100 -100 l 1,19,-1
 100 0 l 1,16,-1
100 700 m 1,20,-1
 100 800 l 1,21,-1
 400 800 l 1,22,-1
 400 700 l 1,23,-1
 100 700 l 1,20,-1
EndSplineSet
EndChar

StartChar: colon
Encoding: 58 58 30
Width: 500
GlyphClass: 1
Flags: W
LayerCount: 2
Fore
SplineSet
100 100 m 1,0,-1
 200 100 l 1,1,-1
 200 -100 l 1,2,-1
 100 -100 l 1,3,-1
 100 100 l 1,0,-1
100 500 m 1,4,-1
 200 500 l 1,5,-1
 200 300 l 1,6,-1
 100 300 l 1,7,-1
 100 500 l 1,4,-1
EndSplineSet
EndChar

StartChar: semicolon
Encoding: 59 59 31
Width: 400
GlyphClass: 1
Flags: W
LayerCount: 2
Fore
SplineSet
0 -200 m 1,0,-1
 0 -100 l 1,1,-1
 100 -100 l 1,2,-1
 100 -200 l 1,3,-1
 0 -200 l 1,0,-1
100 100 m 1,4,-1
 200 100 l 1,5,-1
 200 -100 l 1,6,-1
 100 -100 l 1,7,-1
 100 100 l 1,4,-1
100 500 m 1,8,-1
 200 500 l 1,9,-1
 200 300 l 1,10,-1
 100 300 l 1,11,-1
 100 500 l 1,8,-1
EndSplineSet
EndChar

StartChar: less
Encoding: 60 60 32
Width: 700
GlyphClass: 1
Flags: W
LayerCount: 2
Fore
SplineSet
0 300 m 1,0,-1
 0 400 l 1,1,-1
 100 400 l 1,2,-1
 100 300 l 1,3,-1
 0 300 l 1,0,-1
200 200 m 1,4,-1
 100 200 l 1,5,-1
 100 300 l 1,6,-1
 200 300 l 1,7,-1
 200 200 l 1,4,-1
200 100 m 1,8,-1
 200 200 l 1,9,-1
 300 200 l 1,10,-1
 300 100 l 1,11,-1
 200 100 l 1,8,-1
200 500 m 1,12,-1
 200 400 l 1,13,-1
 100 400 l 1,14,-1
 100 500 l 1,15,-1
 200 500 l 1,12,-1
200 600 m 1,16,-1
 300 600 l 1,17,-1
 300 500 l 1,18,-1
 200 500 l 1,19,-1
 200 600 l 1,16,-1
400 100 m 1,20,-1
 400 0 l 1,21,-1
 300 0 l 1,22,-1
 300 100 l 1,23,-1
 400 100 l 1,20,-1
400 0 m 1,24,-1
 500 0 l 1,25,-1
 500 -100 l 1,26,-1
 400 -100 l 1,27,-1
 400 0 l 1,24,-1
400 700 m 1,28,-1
 400 600 l 1,29,-1
 300 600 l 1,30,-1
 300 700 l 1,31,-1
 400 700 l 1,28,-1
400 800 m 1,32,-1
 500 800 l 1,33,-1
 500 700 l 1,34,-1
 400 700 l 1,35,-1
 400 800 l 1,32,-1
EndSplineSet
EndChar

StartChar: equal
Encoding: 61 61 33
Width: 700
GlyphClass: 1
Flags: W
LayerCount: 2
Fore
SplineSet
0 100 m 1,0,-1
 0 200 l 1,1,-1
 500 200 l 1,2,-1
 500 100 l 1,3,-1
 0 100 l 1,0,-1
0 400 m 1,4,-1
 0 500 l 1,5,-1
 500 500 l 1,6,-1
 500 400 l 1,7,-1
 0 400 l 1,4,-1
EndSplineSet
EndChar

StartChar: greater
Encoding: 62 62 34
Width: 700
GlyphClass: 1
Flags: W
LayerCount: 2
Fore
SplineSet
0 -100 m 1,0,-1
 0 0 l 1,1,-1
 100 0 l 1,2,-1
 100 -100 l 1,3,-1
 0 -100 l 1,0,-1
0 700 m 1,4,-1
 0 800 l 1,5,-1
 100 800 l 1,6,-1
 100 700 l 1,7,-1
 0 700 l 1,4,-1
200 100 m 1,8,-1
 200 200 l 1,9,-1
 300 200 l 1,10,-1
 300 100 l 1,11,-1
 200 100 l 1,8,-1
200 0 m 1,12,-1
 100 0 l 1,13,-1
 100 100 l 1,14,-1
 200 100 l 1,15,-1
 200 0 l 1,12,-1
200 500 m 1,16,-1
 200 600 l 1,17,-1
 300 600 l 1,18,-1
 300 500 l 1,19,-1
 200 500 l 1,16,-1
200 700 m 1,20,-1
 200 600 l 1,21,-1
 100 600 l 1,22,-1
 100 700 l 1,23,-1
 200 700 l 1,20,-1
400 200 m 1,24,-1
 300 200 l 1,25,-1
 300 300 l 1,26,-1
 400 300 l 1,27,-1
 400 200 l 1,24,-1
400 500 m 1,28,-1
 400 400 l 1,29,-1
 300 400 l 1,30,-1
 300 500 l 1,31,-1
 400 500 l 1,28,-1
400 400 m 1,32,-1
 500 400 l 1,33,-1
 500 300 l 1,34,-1
 400 300 l 1,35,-1
 400 400 l 1,32,-1
EndSplineSet
EndChar

StartChar: question
Encoding: 63 63 35
Width: 700
GlyphClass: 1
Flags: W
LayerCount: 2
Fore
SplineSet
0 600 m 1,0,-1
 0 700 l 1,1,-1
 100 700 l 1,2,-1
 100 600 l 1,3,-1
 0 600 l 1,0,-1
100 700 m 1,4,-1
 100 800 l 1,5,-1
 400 800 l 1,6,-1
 400 700 l 1,7,-1
 100 700 l 1,4,-1
200 100 m 1,8,-1
 300 100 l 1,9,-1
 300 -100 l 1,10,-1
 200 -100 l 1,11,-1
 200 100 l 1,8,-1
200 200 m 1,12,-1
 200 400 l 1,13,-1
 300 400 l 1,14,-1
 300 200 l 1,15,-1
 200 200 l 1,12,-1
300 400 m 1,16,-1
 300 500 l 1,17,-1
 400 500 l 1,18,-1
 400 400 l 1,19,-1
 300 400 l 1,16,-1
400 500 m 1,20,-1
 400 700 l 1,21,-1
 500 700 l 1,22,-1
 500 500 l 1,23,-1
 400 500 l 1,20,-1
EndSplineSet
EndChar

StartChar: at
Encoding: 64 64 36
Width: 700
GlyphClass: 1
Flags: W
LayerCount: 2
Fore
SplineSet
0 0 m 1,0,-1
 0 700 l 1,1,-1
 100 700 l 1,2,-1
 100 0 l 1,3,-1
 0 0 l 1,0,-1
100 0 m 1,4,-1
 400 0 l 1,5,-1
 400 -100 l 1,6,-1
 100 -100 l 1,7,-1
 100 0 l 1,4,-1
100 700 m 1,8,-1
 100 800 l 1,9,-1
 400 800 l 1,10,-1
 400 700 l 1,11,-1
 100 700 l 1,8,-1
200 100 m 1,12,-1
 200 500 l 1,13,-1
 300 500 l 1,14,-1
 300 200 l 1,15,-1
 400 200 l 1,16,-1
 400 500 l 1,17,-1
 300 500 l 1,18,-1
 300 600 l 1,19,-1
 400 600 l 1,20,-1
 400 700 l 1,21,-1
 500 700 l 1,22,-1
 500 100 l 1,23,-1
 200 100 l 1,12,-1
EndSplineSet
EndChar

StartChar: A
Encoding: 65 65 37
Width: 700
GlyphClass: 1
Flags: W
LayerCount: 2
Fore
SplineSet
0 200 m 1,0,-1
 100 200 l 1,1,-1
 100 -100 l 1,2,-1
 0 -100 l 1,3,-1
 0 200 l 1,0,-1
100 200 m 1,4,-1
 100 600 l 1,5,-1
 200 600 l 1,6,-1
 200 300 l 1,7,-1
 300 300 l 1,8,-1
 300 600 l 1,9,-1
 400 600 l 1,10,-1
 400 200 l 1,11,-1
 100 200 l 1,4,-1
200 600 m 1,12,-1
 200 800 l 1,13,-1
 300 800 l 1,14,-1
 300 600 l 1,15,-1
 200 600 l 1,12,-1
400 200 m 1,16,-1
 500 200 l 1,17,-1
 500 -100 l 1,18,-1
 400 -100 l 1,19,-1
 400 200 l 1,16,-1
EndSplineSet
EndChar

StartChar: B
Encoding: 66 66 38
Width: 700
GlyphClass: 1
Flags: W
LayerCount: 2
Fore
SplineSet
0 -100 m 1,0,-1
 0 800 l 1,1,-1
 400 800 l 1,2,-1
 400 700 l 1,3,-1
 100 700 l 1,4,-1
 100 400 l 1,5,-1
 400 400 l 1,6,-1
 400 300 l 1,7,-1
 100 300 l 1,8,-1
 100 0 l 1,9,-1
 400 0 l 1,10,-1
 400 -100 l 1,11,-1
 0 -100 l 1,0,-1
400 0 m 1,12,-1
 400 300 l 1,13,-1
 500 300 l 1,14,-1
 500 0 l 1,15,-1
 400 0 l 1,12,-1
400 400 m 1,16,-1
 400 700 l 1,17,-1
 500 700 l 1,18,-1
 500 400 l 1,19,-1
 400 400 l 1,16,-1
EndSplineSet
EndChar

StartChar: C
Encoding: 67 67 39
Width: 700
GlyphClass: 1
Flags: W
LayerCount: 2
Fore
SplineSet
0 0 m 1,0,-1
 0 700 l 1,1,-1
 100 700 l 1,2,-1
 100 0 l 1,3,-1
 0 0 l 1,0,-1
100 0 m 1,4,-1
 400 0 l 1,5,-1
 400 -100 l 1,6,-1
 100 -100 l 1,7,-1
 100 0 l 1,4,-1
100 700 m 1,8,-1
 100 800 l 1,9,-1
 400 800 l 1,10,-1
 400 700 l 1,11,-1
 100 700 l 1,8,-1
400 200 m 1,12,-1
 500 200 l 1,13,-1
 500 0 l 1,14,-1
 400 0 l 1,15,-1
 400 200 l 1,12,-1
400 500 m 1,16,-1
 400 700 l 1,17,-1
 500 700 l 1,18,-1
 500 500 l 1,19,-1
 400 500 l 1,16,-1
EndSplineSet
EndChar

StartChar: D
Encoding: 68 68 40
Width: 700
GlyphClass: 1
Flags: W
LayerCount: 2
Fore
SplineSet
0 -100 m 1,0,-1
 0 800 l 1,1,-1
 400 800 l 1,2,-1
 400 700 l 1,3,-1
 100 700 l 1,4,-1
 100 0 l 1,5,-1
 400 0 l 1,6,-1
 400 -100 l 1,7,-1
 0 -100 l 1,0,-1
400 0 m 1,8,-1
 400 700 l 1,9,-1
 500 700 l 1,10,-1
 500 0 l 1,11,-1
 400 0 l 1,8,-1
EndSplineSet
EndChar

StartChar: E
Encoding: 69 69 41
Width: 700
GlyphClass: 1
Flags: W
LayerCount: 2
Fore
SplineSet
0 -100 m 1,0,-1
 0 800 l 1,1,-1
 500 800 l 1,2,-1
 500 700 l 1,3,-1
 100 700 l 1,4,-1
 100 400 l 1,5,-1
 500 400 l 1,6,-1
 500 300 l 1,7,-1
 100 300 l 1,8,-1
 100 0 l 1,9,-1
 500 0 l 1,10,-1
 500 -100 l 1,11,-1
 0 -100 l 1,0,-1
EndSplineSet
EndChar

StartChar: F
Encoding: 70 70 42
Width: 700
GlyphClass: 1
Flags: W
LayerCount: 2
Fore
SplineSet
0 -100 m 1,0,-1
 0 800 l 1,1,-1
 500 800 l 1,2,-1
 500 700 l 1,3,-1
 100 700 l 1,4,-1
 100 400 l 1,5,-1
 400 400 l 1,6,-1
 400 300 l 1,7,-1
 100 300 l 1,8,-1
 100 -100 l 1,9,-1
 0 -100 l 1,0,-1
EndSplineSet
EndChar

StartChar: G
Encoding: 71 71 43
Width: 700
GlyphClass: 1
Flags: W
LayerCount: 2
Fore
SplineSet
0 0 m 1,0,-1
 0 700 l 1,1,-1
 100 700 l 1,2,-1
 100 0 l 1,3,-1
 0 0 l 1,0,-1
100 0 m 1,4,-1
 300 0 l 1,5,-1
 300 -100 l 1,6,-1
 100 -100 l 1,7,-1
 100 0 l 1,4,-1
100 700 m 1,8,-1
 100 800 l 1,9,-1
 400 800 l 1,10,-1
 400 700 l 1,11,-1
 100 700 l 1,8,-1
200 300 m 1,12,-1
 200 400 l 1,13,-1
 500 400 l 1,14,-1
 500 -100 l 1,15,-1
 400 -100 l 1,16,-1
 400 0 l 1,17,-1
 300 0 l 1,18,-1
 300 100 l 1,19,-1
 400 100 l 1,20,-1
 400 300 l 1,21,-1
 200 300 l 1,12,-1
400 500 m 1,22,-1
 400 700 l 1,23,-1
 500 700 l 1,24,-1
 500 500 l 1,25,-1
 400 500 l 1,22,-1
EndSplineSet
EndChar

StartChar: H
Encoding: 72 72 44
Width: 700
GlyphClass: 1
Flags: W
LayerCount: 2
Fore
SplineSet
0 -100 m 1,0,-1
 0 800 l 1,1,-1
 100 800 l 1,2,-1
 100 400 l 1,3,-1
 400 400 l 1,4,-1
 400 800 l 1,5,-1
 500 800 l 1,6,-1
 500 -100 l 1,7,-1
 400 -100 l 1,8,-1
 400 300 l 1,9,-1
 100 300 l 1,10,-1
 100 -100 l 1,11,-1
 0 -100 l 1,0,-1
EndSplineSet
EndChar

StartChar: I
Encoding: 73 73 45
Width: 700
GlyphClass: 1
Flags: W
LayerCount: 2
Fore
SplineSet
0 -100 m 1,0,-1
 0 0 l 1,1,-1
 200 0 l 1,2,-1
 200 700 l 1,3,-1
 0 700 l 1,4,-1
 0 800 l 1,5,-1
 500 800 l 1,6,-1
 500 700 l 1,7,-1
 300 700 l 1,8,-1
 300 0 l 1,9,-1
 500 0 l 1,10,-1
 500 -100 l 1,11,-1
 0 -100 l 1,0,-1
EndSplineSet
EndChar

StartChar: J
Encoding: 74 74 46
Width: 700
GlyphClass: 1
Flags: W
LayerCount: 2
Fore
SplineSet
0 200 m 1,0,-1
 100 200 l 1,1,-1
 100 0 l 1,2,-1
 0 0 l 1,3,-1
 0 200 l 1,0,-1
400 0 m 1,4,-1
 400 -100 l 1,5,-1
 100 -100 l 1,6,-1
 100 0 l 1,7,-1
 400 0 l 1,4,-1
400 800 m 1,8,-1
 500 800 l 1,9,-1
 500 0 l 1,10,-1
 400 0 l 1,11,-1
 400 800 l 1,8,-1
EndSplineSet
EndChar

StartChar: K
Encoding: 75 75 47
Width: 700
GlyphClass: 1
Flags: W
LayerCount: 2
Fore
SplineSet
0 -100 m 1,0,-1
 0 800 l 1,1,-1
 100 800 l 1,2,-1
 100 400 l 1,3,-1
 200 400 l 1,4,-1
 200 300 l 1,5,-1
 100 300 l 1,6,-1
 100 -100 l 1,7,-1
 0 -100 l 1,0,-1
200 200 m 1,8,-1
 200 300 l 1,9,-1
 300 300 l 1,10,-1
 300 200 l 1,11,-1
 200 200 l 1,8,-1
200 400 m 1,12,-1
 200 500 l 1,13,-1
 300 500 l 1,14,-1
 300 400 l 1,15,-1
 200 400 l 1,12,-1
400 0 m 1,16,-1
 500 0 l 1,17,-1
 500 -100 l 1,18,-1
 400 -100 l 1,19,-1
 400 0 l 1,16,-1
400 200 m 1,20,-1
 400 0 l 1,21,-1
 300 0 l 1,22,-1
 300 200 l 1,23,-1
 400 200 l 1,20,-1
400 500 m 1,24,-1
 300 500 l 1,25,-1
 300 700 l 1,26,-1
 400 700 l 1,27,-1
 400 500 l 1,24,-1
400 700 m 1,28,-1
 400 800 l 1,29,-1
 500 800 l 1,30,-1
 500 700 l 1,31,-1
 400 700 l 1,28,-1
EndSplineSet
EndChar

StartChar: L
Encoding: 76 76 48
Width: 700
GlyphClass: 1
Flags: W
LayerCount: 2
Fore
SplineSet
0 -100 m 1,0,-1
 0 800 l 1,1,-1
 100 800 l 1,2,-1
 100 0 l 1,3,-1
 500 0 l 1,4,-1
 500 -100 l 1,5,-1
 0 -100 l 1,0,-1
EndSplineSet
EndChar

StartChar: M
Encoding: 77 77 49
Width: 700
GlyphClass: 1
Flags: W
LayerCount: 2
Fore
SplineSet
0 -100 m 1,0,-1
 0 800 l 1,1,-1
 100 800 l 1,2,-1
 100 600 l 1,3,-1
 200 600 l 1,4,-1
 200 400 l 1,5,-1
 100 400 l 1,6,-1
 100 -100 l 1,7,-1
 0 -100 l 1,0,-1
200 200 m 1,8,-1
 200 400 l 1,9,-1
 300 400 l 1,10,-1
 300 200 l 1,11,-1
 200 200 l 1,8,-1
300 400 m 1,12,-1
 300 600 l 1,13,-1
 400 600 l 1,14,-1
 400 800 l 1,15,-1
 500 800 l 1,16,-1
 500 -100 l 1,17,-1
 400 -100 l 1,18,-1
 400 400 l 1,19,-1
 300 400 l 1,12,-1
EndSplineSet
EndChar

StartChar: N
Encoding: 78 78 50
Width: 700
GlyphClass: 1
Flags: W
LayerCount: 2
Fore
SplineSet
0 -100 m 1,0,-1
 0 800 l 1,1,-1
 100 800 l 1,2,-1
 100 700 l 1,3,-1
 200 700 l 1,4,-1
 200 500 l 1,5,-1
 100 500 l 1,6,-1
 100 -100 l 1,7,-1
 0 -100 l 1,0,-1
200 500 m 1,8,-1
 300 500 l 1,9,-1
 300 300 l 1,10,-1
 200 300 l 1,11,-1
 200 500 l 1,8,-1
300 100 m 1,12,-1
 300 300 l 1,13,-1
 400 300 l 1,14,-1
 400 800 l 1,15,-1
 500 800 l 1,16,-1
 500 -100 l 1,17,-1
 400 -100 l 1,18,-1
 400 100 l 1,19,-1
 300 100 l 1,12,-1
EndSplineSet
EndChar

StartChar: O
Encoding: 79 79 51
Width: 700
GlyphClass: 1
Flags: W
LayerCount: 2
Fore
SplineSet
0 0 m 1,0,-1
 0 700 l 1,1,-1
 100 700 l 1,2,-1
 100 0 l 1,3,-1
 0 0 l 1,0,-1
400 0 m 1,4,-1
 400 -100 l 1,5,-1
 100 -100 l 1,6,-1
 100 0 l 1,7,-1
 400 0 l 1,4,-1
400 700 m 1,8,-1
 500 700 l 1,9,-1
 500 0 l 1,10,-1
 400 0 l 1,11,-1
 400 700 l 1,8,-1
400 800 m 1,12,-1
 400 700 l 1,13,-1
 100 700 l 1,14,-1
 100 800 l 1,15,-1
 400 800 l 1,12,-1
EndSplineSet
EndChar

StartChar: P
Encoding: 80 80 52
Width: 700
GlyphClass: 1
Flags: W
LayerCount: 2
Fore
SplineSet
0 -100 m 1,0,-1
 0 800 l 1,1,-1
 400 800 l 1,2,-1
 400 700 l 1,3,-1
 100 700 l 1,4,-1
 100 400 l 1,5,-1
 400 400 l 1,6,-1
 400 300 l 1,7,-1
 100 300 l 1,8,-1
 100 -100 l 1,9,-1
 0 -100 l 1,0,-1
400 400 m 1,10,-1
 400 700 l 1,11,-1
 500 700 l 1,12,-1
 500 400 l 1,13,-1
 400 400 l 1,10,-1
EndSplineSet
EndChar

StartChar: Q
Encoding: 81 81 53
Width: 700
GlyphClass: 1
Flags: W
LayerCount: 2
Fore
SplineSet
0 0 m 1,0,-1
 0 700 l 1,1,-1
 100 700 l 1,2,-1
 100 0 l 1,3,-1
 0 0 l 1,0,-1
100 0 m 1,4,-1
 200 0 l 1,5,-1
 200 100 l 1,6,-1
 300 100 l 1,7,-1
 300 0 l 1,8,-1
 400 0 l 1,9,-1
 400 -100 l 1,10,-1
 100 -100 l 1,11,-1
 100 0 l 1,4,-1
100 700 m 1,12,-1
 100 800 l 1,13,-1
 400 800 l 1,14,-1
 400 700 l 1,15,-1
 100 700 l 1,12,-1
400 0 m 1,16,-1
 400 700 l 1,17,-1
 500 700 l 1,18,-1
 500 0 l 1,19,-1
 400 0 l 1,16,-1
400 -100 m 1,20,-1
 500 -100 l 1,21,-1
 500 -200 l 1,22,-1
 400 -200 l 1,23,-1
 400 -100 l 1,20,-1
EndSplineSet
EndChar

StartChar: R
Encoding: 82 82 54
Width: 700
GlyphClass: 1
Flags: W
LayerCount: 2
Fore
SplineSet
0 -100 m 1,0,-1
 0 800 l 1,1,-1
 400 800 l 1,2,-1
 400 700 l 1,3,-1
 100 700 l 1,4,-1
 100 400 l 1,5,-1
 400 400 l 1,6,-1
 400 200 l 1,7,-1
 300 200 l 1,8,-1
 300 300 l 1,9,-1
 100 300 l 1,10,-1
 100 -100 l 1,11,-1
 0 -100 l 1,0,-1
400 200 m 1,12,-1
 500 200 l 1,13,-1
 500 -100 l 1,14,-1
 400 -100 l 1,15,-1
 400 200 l 1,12,-1
400 400 m 1,16,-1
 400 700 l 1,17,-1
 500 700 l 1,18,-1
 500 400 l 1,19,-1
 400 400 l 1,16,-1
EndSplineSet
EndChar

StartChar: S
Encoding: 83 83 55
Width: 700
GlyphClass: 1
Flags: W
LayerCount: 2
Fore
SplineSet
0 200 m 1,0,-1
 100 200 l 1,1,-1
 100 0 l 1,2,-1
 0 0 l 1,3,-1
 0 200 l 1,0,-1
0 500 m 1,4,-1
 0 700 l 1,5,-1
 100 700 l 1,6,-1
 100 500 l 1,7,-1
 0 500 l 1,4,-1
200 500 m 1,8,-1
 200 400 l 1,9,-1
 100 400 l 1,10,-1
 100 500 l 1,11,-1
 200 500 l 1,8,-1
200 400 m 1,12,-1
 300 400 l 1,13,-1
 300 300 l 1,14,-1
 200 300 l 1,15,-1
 200 400 l 1,12,-1
400 200 m 1,16,-1
 500 200 l 1,17,-1
 500 0 l 1,18,-1
 400 0 l 1,19,-1
 400 200 l 1,16,-1
400 0 m 1,20,-1
 400 -100 l 1,21,-1
 100 -100 l 1,22,-1
 100 0 l 1,23,-1
 400 0 l 1,20,-1
400 300 m 1,24,-1
 400 200 l 1,25,-1
 300 200 l 1,26,-1
 300 300 l 1,27,-1
 400 300 l 1,24,-1
400 500 m 1,28,-1
 400 700 l 1,29,-1
 500 700 l 1,30,-1
 500 500 l 1,31,-1
 400 500 l 1,28,-1
400 700 m 1,32,-1
 100 700 l 1,33,-1
 100 800 l 1,34,-1
 400 800 l 1,35,-1
 400 700 l 1,32,-1
EndSplineSet
EndChar

StartChar: T
Encoding: 84 84 56
Width: 700
GlyphClass: 1
Flags: W
LayerCount: 2
Fore
SplineSet
0 700 m 1,0,-1
 0 800 l 1,1,-1
 500 800 l 1,2,-1
 500 700 l 1,3,-1
 300 700 l 1,4,-1
 300 -100 l 1,5,-1
 200 -100 l 1,6,-1
 200 700 l 1,7,-1
 0 700 l 1,0,-1
EndSplineSet
EndChar

StartChar: U
Encoding: 85 85 57
Width: 700
GlyphClass: 1
Flags: W
LayerCount: 2
Fore
SplineSet
0 0 m 1,0,-1
 0 800 l 1,1,-1
 100 800 l 1,2,-1
 100 0 l 1,3,-1
 0 0 l 1,0,-1
400 0 m 1,4,-1
 400 -100 l 1,5,-1
 100 -100 l 1,6,-1
 100 0 l 1,7,-1
 400 0 l 1,4,-1
400 800 m 1,8,-1
 500 800 l 1,9,-1
 500 0 l 1,10,-1
 400 0 l 1,11,-1
 400 800 l 1,8,-1
EndSplineSet
EndChar

StartChar: V
Encoding: 86 86 58
Width: 700
GlyphClass: 1
Flags: W
LayerCount: 2
Fore
SplineSet
0 500 m 1,0,-1
 0 800 l 1,1,-1
 100 800 l 1,2,-1
 100 500 l 1,3,-1
 0 500 l 1,0,-1
100 200 m 1,4,-1
 100 500 l 1,5,-1
 200 500 l 1,6,-1
 200 200 l 1,7,-1
 100 200 l 1,4,-1
200 200 m 1,8,-1
 300 200 l 1,9,-1
 300 -100 l 1,10,-1
 200 -100 l 1,11,-1
 200 200 l 1,8,-1
300 200 m 1,12,-1
 300 500 l 1,13,-1
 400 500 l 1,14,-1
 400 200 l 1,15,-1
 300 200 l 1,12,-1
400 500 m 1,16,-1
 400 800 l 1,17,-1
 500 800 l 1,18,-1
 500 500 l 1,19,-1
 400 500 l 1,16,-1
EndSplineSet
EndChar

StartChar: W
Encoding: 87 87 59
Width: 700
GlyphClass: 1
Flags: W
LayerCount: 2
Fore
SplineSet
0 200 m 1,0,-1
 0 800 l 1,1,-1
 100 800 l 1,2,-1
 100 200 l 1,3,-1
 0 200 l 1,0,-1
100 200 m 1,4,-1
 200 200 l 1,5,-1
 200 -100 l 1,6,-1
 100 -100 l 1,7,-1
 100 200 l 1,4,-1
200 200 m 1,8,-1
 200 800 l 1,9,-1
 300 800 l 1,10,-1
 300 200 l 1,11,-1
 200 200 l 1,8,-1
300 200 m 1,12,-1
 400 200 l 1,13,-1
 400 -100 l 1,14,-1
 300 -100 l 1,15,-1
 300 200 l 1,12,-1
400 200 m 1,16,-1
 400 800 l 1,17,-1
 500 800 l 1,18,-1
 500 200 l 1,19,-1
 400 200 l 1,16,-1
EndSplineSet
EndChar

StartChar: X
Encoding: 88 88 60
Width: 700
GlyphClass: 1
Flags: W
LayerCount: 2
Fore
SplineSet
0 100 m 1,0,-1
 100 100 l 1,1,-1
 100 -100 l 1,2,-1
 0 -100 l 1,3,-1
 0 100 l 1,0,-1
0 600 m 1,4,-1
 0 800 l 1,5,-1
 100 800 l 1,6,-1
 100 600 l 1,7,-1
 0 600 l 1,4,-1
200 100 m 1,8,-1
 100 100 l 1,9,-1
 100 300 l 1,10,-1
 200 300 l 1,11,-1
 200 100 l 1,8,-1
200 400 m 1,12,-1
 100 400 l 1,13,-1
 100 600 l 1,14,-1
 200 600 l 1,15,-1
 200 400 l 1,12,-1
200 300 m 1,16,-1
 200 400 l 1,17,-1
 300 400 l 1,18,-1
 300 300 l 1,19,-1
 200 300 l 1,16,-1
400 100 m 1,20,-1
 500 100 l 1,21,-1
 500 -100 l 1,22,-1
 400 -100 l 1,23,-1
 400 100 l 1,20,-1
400 400 m 1,24,-1
 300 400 l 1,25,-1
 300 600 l 1,26,-1
 400 600 l 1,27,-1
 400 400 l 1,24,-1
400 300 m 1,28,-1
 400 100 l 1,29,-1
 300 100 l 1,30,-1
 300 300 l 1,31,-1
 400 300 l 1,28,-1
400 600 m 1,32,-1
 400 800 l 1,33,-1
 500 800 l 1,34,-1
 500 600 l 1,35,-1
 400 600 l 1,32,-1
EndSplineSet
EndChar

StartChar: Y
Encoding: 89 89 61
Width: 700
GlyphClass: 1
Flags: W
LayerCount: 2
Fore
SplineSet
0 500 m 1,0,-1
 0 800 l 1,1,-1
 100 800 l 1,2,-1
 100 500 l 1,3,-1
 0 500 l 1,0,-1
100 500 m 1,4,-1
 200 500 l 1,5,-1
 200 300 l 1,6,-1
 100 300 l 1,7,-1
 100 500 l 1,4,-1
200 -100 m 1,8,-1
 200 300 l 1,9,-1
 300 300 l 1,10,-1
 300 -100 l 1,11,-1
 200 -100 l 1,8,-1
300 500 m 1,12,-1
 400 500 l 1,13,-1
 400 300 l 1,14,-1
 300 300 l 1,15,-1
 300 500 l 1,12,-1
400 500 m 1,16,-1
 400 800 l 1,17,-1
 500 800 l 1,18,-1
 500 500 l 1,19,-1
 400 500 l 1,16,-1
EndSplineSet
EndChar

StartChar: Z
Encoding: 90 90 62
Width: 700
GlyphClass: 1
Flags: W
LayerCount: 2
Fore
SplineSet
0 100 m 1,0,-1
 100 100 l 1,1,-1
 100 0 l 1,2,-1
 500 0 l 1,3,-1
 500 -100 l 1,4,-1
 0 -100 l 1,5,-1
 0 100 l 1,0,-1
0 700 m 1,6,-1
 0 800 l 1,7,-1
 500 800 l 1,8,-1
 500 600 l 1,9,-1
 400 600 l 1,10,-1
 400 700 l 1,11,-1
 0 700 l 1,6,-1
100 100 m 1,12,-1
 100 300 l 1,13,-1
 200 300 l 1,14,-1
 200 100 l 1,15,-1
 100 100 l 1,12,-1
200 300 m 1,16,-1
 200 400 l 1,17,-1
 300 400 l 1,18,-1
 300 300 l 1,19,-1
 200 300 l 1,16,-1
300 400 m 1,20,-1
 300 600 l 1,21,-1
 400 600 l 1,22,-1
 400 400 l 1,23,-1
 300 400 l 1,20,-1
EndSplineSet
EndChar

StartChar: bracketleft
Encoding: 91 91 63
Width: 400
GlyphClass: 1
Flags: W
LayerCount: 2
Fore
SplineSet
0 -200 m 1,0,-1
 0 900 l 1,1,-1
 200 900 l 1,2,-1
 200 800 l 1,3,-1
 100 800 l 1,4,-1
 100 -100 l 1,5,-1
 200 -100 l 1,6,-1
 200 -200 l 1,7,-1
 0 -200 l 1,0,-1
EndSplineSet
EndChar

StartChar: backslash
Encoding: 92 92 64
Width: 700
GlyphClass: 1
Flags: W
LayerCount: 2
Fore
SplineSet
400 -100 m 1,0,-1
 300 -100 l 1,1,-1
 300 200 l 1,2,-1
 400 200 l 1,3,-1
 400 -100 l 1,0,-1
100 500 m 1,4,-1
 100 800 l 1,5,-1
 200 800 l 1,6,-1
 200 500 l 1,7,-1
 100 500 l 1,4,-1
200 200 m 1,8,-1
 200 500 l 1,9,-1
 300 500 l 1,10,-1
 300 200 l 1,11,-1
 200 200 l 1,8,-1
EndSplineSet
EndChar

StartChar: bracketright
Encoding: 93 93 65
Width: 400
GlyphClass: 1
Flags: W
LayerCount: 2
Fore
SplineSet
0 -200 m 1,0,-1
 0 -100 l 1,1,-1
 100 -100 l 1,2,-1
 100 800 l 1,3,-1
 0 800 l 1,4,-1
 0 900 l 1,5,-1
 200 900 l 1,6,-1
 200 -200 l 1,7,-1
 0 -200 l 1,0,-1
EndSplineSet
EndChar

StartChar: asciicircum
Encoding: 94 94 66
Width: 600
GlyphClass: 1
Flags: W
LayerCount: 2
Fore
SplineSet
0 600 m 1,0,-1
 0 700 l 1,1,-1
 100 700 l 1,2,-1
 100 600 l 1,3,-1
 0 600 l 1,0,-1
400 700 m 1,4,-1
 400 600 l 1,5,-1
 300 600 l 1,6,-1
 300 700 l 1,7,-1
 400 700 l 1,4,-1
100 700 m 1,8,-1
 100 800 l 1,9,-1
 300 800 l 1,10,-1
 300 700 l 1,11,-1
 100 700 l 1,8,-1
EndSplineSet
EndChar

StartChar: underscore
Encoding: 95 95 67
Width: 800
GlyphClass: 1
Flags: W
LayerCount: 2
Fore
SplineSet
0 -200 m 1,0,-1
 600 -200 l 1,1,-1
 600 -300 l 1,2,-1
 0 -300 l 1,3,-1
 0 -200 l 1,0,-1
EndSplineSet
EndChar

StartChar: grave
Encoding: 96 96 68
Width: 400
GlyphClass: 1
Flags: W
LayerCount: 2
Fore
SplineSet
0 700 m 1,0,-1
 0 800 l 1,1,-1
 100 800 l 1,2,-1
 100 700 l 1,3,-1
 0 700 l 1,0,-1
100 700 m 1,4,-1
 200 700 l 1,5,-1
 200 600 l 1,6,-1
 100 600 l 1,7,-1
 100 700 l 1,4,-1
EndSplineSet
EndChar

StartChar: a
Encoding: 97 97 69
Width: 700
GlyphClass: 1
Flags: W
LayerCount: 2
Fore
SplineSet
0 200 m 1,0,-1
 100 200 l 1,1,-1
 100 0 l 1,2,-1
 0 0 l 1,3,-1
 0 200 l 1,0,-1
0 500 m 1,4,-1
 0 600 l 1,5,-1
 400 600 l 1,6,-1
 400 500 l 1,7,-1
 0 500 l 1,4,-1
100 200 m 1,8,-1
 100 300 l 1,9,-1
 400 300 l 1,10,-1
 400 500 l 1,11,-1
 500 500 l 1,12,-1
 500 -100 l 1,13,-1
 100 -100 l 1,14,-1
 100 0 l 1,15,-1
 400 0 l 1,16,-1
 400 200 l 1,17,-1
 100 200 l 1,8,-1
EndSplineSet
EndChar

StartChar: b
Encoding: 98 98 70
Width: 700
GlyphClass: 1
Flags: W
LayerCount: 2
Fore
SplineSet
0 -100 m 1,0,-1
 0 800 l 1,1,-1
 100 800 l 1,2,-1
 100 600 l 1,3,-1
 400 600 l 1,4,-1
 400 500 l 1,5,-1
 100 500 l 1,6,-1
 100 0 l 1,7,-1
 400 0 l 1,8,-1
 400 -100 l 1,9,-1
 0 -100 l 1,0,-1
400 0 m 1,10,-1
 400 500 l 1,11,-1
 500 500 l 1,12,-1
 500 0 l 1,13,-1
 400 0 l 1,10,-1
EndSplineSet
EndChar

StartChar: c
Encoding: 99 99 71
Width: 700
GlyphClass: 1
Flags: W
LayerCount: 2
Fore
SplineSet
0 0 m 1,0,-1
 0 500 l 1,1,-1
 100 500 l 1,2,-1
 100 0 l 1,3,-1
 0 0 l 1,0,-1
100 0 m 1,4,-1
 400 0 l 1,5,-1
 400 -100 l 1,6,-1
 100 -100 l 1,7,-1
 100 0 l 1,4,-1
100 500 m 1,8,-1
 100 600 l 1,9,-1
 400 600 l 1,10,-1
 400 500 l 1,11,-1
 100 500 l 1,8,-1
400 0 m 1,12,-1
 400 100 l 1,13,-1
 500 100 l 1,14,-1
 500 0 l 1,15,-1
 400 0 l 1,12,-1
400 500 m 1,16,-1
 500 500 l 1,17,-1
 500 400 l 1,18,-1
 400 400 l 1,19,-1
 400 500 l 1,16,-1
EndSplineSet
EndChar

StartChar: d
Encoding: 100 100 72
Width: 700
GlyphClass: 1
Flags: W
LayerCount: 2
Fore
SplineSet
0 0 m 1,0,-1
 0 500 l 1,1,-1
 100 500 l 1,2,-1
 100 0 l 1,3,-1
 0 0 l 1,0,-1
400 0 m 1,4,-1
 400 500 l 1,5,-1
 100 500 l 1,6,-1
 100 600 l 1,7,-1
 400 600 l 1,8,-1
 400 800 l 1,9,-1
 500 800 l 1,10,-1
 500 -100 l 1,11,-1
 100 -100 l 1,12,-1
 100 0 l 1,13,-1
 400 0 l 1,4,-1
EndSplineSet
EndChar

StartChar: e
Encoding: 101 101 73
Width: 700
GlyphClass: 1
Flags: W
LayerCount: 2
Fore
SplineSet
0 0 m 1,0,-1
 0 500 l 1,1,-1
 100 500 l 1,2,-1
 100 300 l 1,3,-1
 400 300 l 1,4,-1
 400 500 l 1,5,-1
 500 500 l 1,6,-1
 500 200 l 1,7,-1
 100 200 l 1,8,-1
 100 0 l 1,9,-1
 0 0 l 1,0,-1
100 0 m 1,10,-1
 400 0 l 1,11,-1
 400 -100 l 1,12,-1
 100 -100 l 1,13,-1
 100 0 l 1,10,-1
100 500 m 1,14,-1
 100 600 l 1,15,-1
 400 600 l 1,16,-1
 400 500 l 1,17,-1
 100 500 l 1,14,-1
400 0 m 1,18,-1
 400 100 l 1,19,-1
 500 100 l 1,20,-1
 500 0 l 1,21,-1
 400 0 l 1,18,-1
EndSplineSet
EndChar

StartChar: f
Encoding: 102 102 74
Width: 600
GlyphClass: 1
Flags: W
LayerCount: 2
Fore
SplineSet
0 400 m 1,0,-1
 0 500 l 1,1,-1
 100 500 l 1,2,-1
 100 700 l 1,3,-1
 200 700 l 1,4,-1
 200 500 l 1,5,-1
 400 500 l 1,6,-1
 400 400 l 1,7,-1
 200 400 l 1,8,-1
 200 -100 l 1,9,-1
 100 -100 l 1,10,-1
 100 400 l 1,11,-1
 0 400 l 1,0,-1
200 700 m 1,12,-1
 200 800 l 1,13,-1
 400 800 l 1,14,-1
 400 700 l 1,15,-1
 200 700 l 1,12,-1
EndSplineSet
EndChar

StartChar: g
Encoding: 103 103 75
Width: 700
GlyphClass: 1
Flags: W
LayerCount: 2
Fore
SplineSet
0 -100 m 1,0,-1
 0 0 l 1,1,-1
 100 0 l 1,2,-1
 100 -100 l 1,3,-1
 0 -100 l 1,0,-1
0 200 m 1,4,-1
 0 500 l 1,5,-1
 100 500 l 1,6,-1
 100 200 l 1,7,-1
 0 200 l 1,4,-1
100 200 m 1,8,-1
 400 200 l 1,9,-1
 400 500 l 1,10,-1
 100 500 l 1,11,-1
 100 600 l 1,12,-1
 500 600 l 1,13,-1
 500 -100 l 1,14,-1
 400 -100 l 1,15,-1
 400 100 l 1,16,-1
 100 100 l 1,17,-1
 100 200 l 1,8,-1
100 -100 m 1,18,-1
 400 -100 l 1,19,-1
 400 -200 l 1,20,-1
 100 -200 l 1,21,-1
 100 -100 l 1,18,-1
EndSplineSet
EndChar

StartChar: h
Encoding: 104 104 76
Width: 700
GlyphClass: 1
Flags: W
LayerCount: 2
Fore
SplineSet
0 -100 m 1,0,-1
 0 800 l 1,1,-1
 100 800 l 1,2,-1
 100 600 l 1,3,-1
 400 600 l 1,4,-1
 400 500 l 1,5,-1
 100 500 l 1,6,-1
 100 -100 l 1,7,-1
 0 -100 l 1,0,-1
400 -100 m 1,8,-1
 400 500 l 1,9,-1
 500 500 l 1,10,-1
 500 -100 l 1,11,-1
 400 -100 l 1,8,-1
EndSplineSet
EndChar

StartChar: i
Encoding: 105 105 77
Width: 500
GlyphClass: 1
Flags: W
LayerCount: 2
Fore
SplineSet
0 -100 m 1,0,-1
 0 0 l 1,1,-1
 100 0 l 1,2,-1
 100 500 l 1,3,-1
 0 500 l 1,4,-1
 0 600 l 1,5,-1
 200 600 l 1,6,-1
 200 0 l 1,7,-1
 300 0 l 1,8,-1
 300 -100 l 1,9,-1
 0 -100 l 1,0,-1
100 700 m 1,10,-1
 100 800 l 1,11,-1
 200 800 l 1,12,-1
 200 700 l 1,13,-1
 100 700 l 1,10,-1
EndSplineSet
EndChar

StartChar: j
Encoding: 106 106 78
Width: 500
GlyphClass: 1
Flags: W
LayerCount: 2
Fore
SplineSet
0 -200 m 1,0,-1
 0 -100 l 1,1,-1
 200 -100 l 1,2,-1
 200 -200 l 1,3,-1
 0 -200 l 1,0,-1
100 500 m 1,4,-1
 100 600 l 1,5,-1
 300 600 l 1,6,-1
 300 -100 l 1,7,-1
 200 -100 l 1,8,-1
 200 500 l 1,9,-1
 100 500 l 1,4,-1
200 700 m 1,10,-1
 200 800 l 1,11,-1
 300 800 l 1,12,-1
 300 700 l 1,13,-1
 200 700 l 1,10,-1
EndSplineSet
EndChar

StartChar: k
Encoding: 107 107 79
Width: 700
GlyphClass: 1
Flags: W
LayerCount: 2
Fore
SplineSet
0 -100 m 1,0,-1
 0 800 l 1,1,-1
 100 800 l 1,2,-1
 100 300 l 1,3,-1
 200 300 l 1,4,-1
 200 200 l 1,5,-1
 100 200 l 1,6,-1
 100 -100 l 1,7,-1
 0 -100 l 1,0,-1
200 200 m 1,8,-1
 300 200 l 1,9,-1
 300 100 l 1,10,-1
 200 100 l 1,11,-1
 200 200 l 1,8,-1
200 300 m 1,12,-1
 200 400 l 1,13,-1
 300 400 l 1,14,-1
 300 300 l 1,15,-1
 200 300 l 1,12,-1
400 100 m 1,16,-1
 400 0 l 1,17,-1
 300 0 l 1,18,-1
 300 100 l 1,19,-1
 400 100 l 1,16,-1
400 0 m 1,20,-1
 500 0 l 1,21,-1
 500 -100 l 1,22,-1
 400 -100 l 1,23,-1
 400 0 l 1,20,-1
400 500 m 1,24,-1
 400 400 l 1,25,-1
 300 400 l 1,26,-1
 300 500 l 1,27,-1
 400 500 l 1,24,-1
400 600 m 1,28,-1
 500 600 l 1,29,-1
 500 500 l 1,30,-1
 400 500 l 1,31,-1
 400 600 l 1,28,-1
EndSplineSet
EndChar

StartChar: l
Encoding: 108 108 80
Width: 500
GlyphClass: 1
Flags: W
LayerCount: 2
Fore
SplineSet
0 -100 m 1,0,-1
 0 0 l 1,1,-1
 100 0 l 1,2,-1
 100 700 l 1,3,-1
 0 700 l 1,4,-1
 0 800 l 1,5,-1
 200 800 l 1,6,-1
 200 0 l 1,7,-1
 300 0 l 1,8,-1
 300 -100 l 1,9,-1
 0 -100 l 1,0,-1
EndSplineSet
EndChar

StartChar: m
Encoding: 109 109 81
Width: 700
GlyphClass: 1
Flags: W
LayerCount: 2
Fore
SplineSet
0 -100 m 1,0,-1
 0 600 l 1,1,-1
 200 600 l 1,2,-1
 200 500 l 1,3,-1
 100 500 l 1,4,-1
 100 -100 l 1,5,-1
 0 -100 l 1,0,-1
200 -100 m 1,6,-1
 200 500 l 1,7,-1
 300 500 l 1,8,-1
 300 -100 l 1,9,-1
 200 -100 l 1,6,-1
300 500 m 1,10,-1
 300 600 l 1,11,-1
 400 600 l 1,12,-1
 400 500 l 1,13,-1
 300 500 l 1,10,-1
400 -100 m 1,14,-1
 400 500 l 1,15,-1
 500 500 l 1,16,-1
 500 -100 l 1,17,-1
 400 -100 l 1,14,-1
EndSplineSet
EndChar

StartChar: n
Encoding: 110 110 82
Width: 700
GlyphClass: 1
Flags: W
LayerCount: 2
Fore
SplineSet
0 -100 m 1,0,-1
 0 600 l 1,1,-1
 400 600 l 1,2,-1
 400 500 l 1,3,-1
 100 500 l 1,4,-1
 100 -100 l 1,5,-1
 0 -100 l 1,0,-1
400 -100 m 1,6,-1
 400 500 l 1,7,-1
 500 500 l 1,8,-1
 500 -100 l 1,9,-1
 400 -100 l 1,6,-1
EndSplineSet
EndChar

StartChar: o
Encoding: 111 111 83
Width: 700
GlyphClass: 1
Flags: W
LayerCount: 2
Fore
SplineSet
0 0 m 1,0,-1
 0 500 l 1,1,-1
 100 500 l 1,2,-1
 100 0 l 1,3,-1
 0 0 l 1,0,-1
400 0 m 1,4,-1
 400 -100 l 1,5,-1
 100 -100 l 1,6,-1
 100 0 l 1,7,-1
 400 0 l 1,4,-1
400 500 m 1,8,-1
 500 500 l 1,9,-1
 500 0 l 1,10,-1
 400 0 l 1,11,-1
 400 500 l 1,8,-1
400 600 m 1,12,-1
 400 500 l 1,13,-1
 100 500 l 1,14,-1
 100 600 l 1,15,-1
 400 600 l 1,12,-1
EndSplineSet
EndChar

StartChar: p
Encoding: 112 112 84
Width: 700
GlyphClass: 1
Flags: W
LayerCount: 2
Fore
SplineSet
0 -200 m 1,0,-1
 0 600 l 1,1,-1
 400 600 l 1,2,-1
 400 500 l 1,3,-1
 100 500 l 1,4,-1
 100 100 l 1,5,-1
 400 100 l 1,6,-1
 400 0 l 1,7,-1
 100 0 l 1,8,-1
 100 -200 l 1,9,-1
 0 -200 l 1,0,-1
400 100 m 1,10,-1
 400 500 l 1,11,-1
 500 500 l 1,12,-1
 500 100 l 1,13,-1
 400 100 l 1,10,-1
EndSplineSet
EndChar

StartChar: q
Encoding: 113 113 85
Width: 700
GlyphClass: 1
Flags: W
LayerCount: 2
Fore
SplineSet
0 100 m 1,0,-1
 0 500 l 1,1,-1
 100 500 l 1,2,-1
 100 100 l 1,3,-1
 0 100 l 1,0,-1
400 100 m 1,4,-1
 400 500 l 1,5,-1
 100 500 l 1,6,-1
 100 600 l 1,7,-1
 500 600 l 1,8,-1
 500 -200 l 1,9,-1
 400 -200 l 1,10,-1
 400 0 l 1,11,-1
 100 0 l 1,12,-1
 100 100 l 1,13,-1
 400 100 l 1,4,-1
EndSplineSet
EndChar

StartChar: r
Encoding: 114 114 86
Width: 600
GlyphClass: 1
Flags: W
LayerCount: 2
Fore
SplineSet
0 -100 m 1,0,-1
 0 600 l 1,1,-1
 100 600 l 1,2,-1
 100 500 l 1,3,-1
 200 500 l 1,4,-1
 200 400 l 1,5,-1
 100 400 l 1,6,-1
 100 -100 l 1,7,-1
 0 -100 l 1,0,-1
400 500 m 1,8,-1
 200 500 l 1,9,-1
 200 600 l 1,10,-1
 400 600 l 1,11,-1
 400 500 l 1,8,-1
EndSplineSet
EndChar

StartChar: s
Encoding: 115 115 87
Width: 700
GlyphClass: 1
Flags: W
LayerCount: 2
Fore
SplineSet
0 0 m 1,0,-1
 0 100 l 1,1,-1
 100 100 l 1,2,-1
 100 0 l 1,3,-1
 0 0 l 1,0,-1
0 500 m 1,4,-1
 100 500 l 1,5,-1
 100 300 l 1,6,-1
 0 300 l 1,7,-1
 0 500 l 1,4,-1
100 200 m 1,8,-1
 100 300 l 1,9,-1
 400 300 l 1,10,-1
 400 200 l 1,11,-1
 100 200 l 1,8,-1
100 0 m 1,12,-1
 400 0 l 1,13,-1
 400 -100 l 1,14,-1
 100 -100 l 1,15,-1
 100 0 l 1,12,-1
100 500 m 1,16,-1
 100 600 l 1,17,-1
 400 600 l 1,18,-1
 400 500 l 1,19,-1
 100 500 l 1,16,-1
400 200 m 1,20,-1
 500 200 l 1,21,-1
 500 0 l 1,22,-1
 400 0 l 1,23,-1
 400 200 l 1,20,-1
400 500 m 1,24,-1
 500 500 l 1,25,-1
 500 400 l 1,26,-1
 400 400 l 1,27,-1
 400 500 l 1,24,-1
EndSplineSet
EndChar

StartChar: t
Encoding: 116 116 88
Width: 600
GlyphClass: 1
Flags: W
LayerCount: 2
Fore
SplineSet
0 500 m 1,0,-1
 0 600 l 1,1,-1
 100 600 l 1,2,-1
 100 800 l 1,3,-1
 200 800 l 1,4,-1
 200 600 l 1,5,-1
 400 600 l 1,6,-1
 400 500 l 1,7,-1
 200 500 l 1,8,-1
 200 0 l 1,9,-1
 100 0 l 1,10,-1
 100 500 l 1,11,-1
 0 500 l 1,0,-1
200 0 m 1,12,-1
 400 0 l 1,13,-1
 400 -100 l 1,14,-1
 200 -100 l 1,15,-1
 200 0 l 1,12,-1
EndSplineSet
EndChar

StartChar: u
Encoding: 117 117 89
Width: 700
GlyphClass: 1
Flags: W
LayerCount: 2
Fore
SplineSet
0 0 m 1,0,-1
 0 600 l 1,1,-1
 100 600 l 1,2,-1
 100 0 l 1,3,-1
 0 0 l 1,0,-1
400 0 m 1,4,-1
 400 600 l 1,5,-1
 500 600 l 1,6,-1
 500 -100 l 1,7,-1
 100 -100 l 1,8,-1
 100 0 l 1,9,-1
 400 0 l 1,4,-1
EndSplineSet
EndChar

StartChar: v
Encoding: 118 118 90
Width: 700
GlyphClass: 1
Flags: W
LayerCount: 2
Fore
SplineSet
0 300 m 1,0,-1
 0 600 l 1,1,-1
 100 600 l 1,2,-1
 100 300 l 1,3,-1
 0 300 l 1,0,-1
100 100 m 1,4,-1
 100 300 l 1,5,-1
 200 300 l 1,6,-1
 200 100 l 1,7,-1
 100 100 l 1,4,-1
200 100 m 1,8,-1
 300 100 l 1,9,-1
 300 -100 l 1,10,-1
 200 -100 l 1,11,-1
 200 100 l 1,8,-1
300 100 m 1,12,-1
 300 300 l 1,13,-1
 400 300 l 1,14,-1
 400 100 l 1,15,-1
 300 100 l 1,12,-1
400 300 m 1,16,-1
 400 600 l 1,17,-1
 500 600 l 1,18,-1
 500 300 l 1,19,-1
 400 300 l 1,16,-1
EndSplineSet
EndChar

StartChar: w
Encoding: 119 119 91
Width: 700
GlyphClass: 1
Flags: W
LayerCount: 2
Fore
SplineSet
0 200 m 1,0,-1
 0 600 l 1,1,-1
 100 600 l 1,2,-1
 100 200 l 1,3,-1
 0 200 l 1,0,-1
100 200 m 1,4,-1
 200 200 l 1,5,-1
 200 600 l 1,6,-1
 300 600 l 1,7,-1
 300 200 l 1,8,-1
 400 200 l 1,9,-1
 400 -100 l 1,10,-1
 300 -100 l 1,11,-1
 300 100 l 1,12,-1
 200 100 l 1,13,-1
 200 -100 l 1,14,-1
 100 -100 l 1,15,-1
 100 200 l 1,4,-1
400 200 m 1,16,-1
 400 600 l 1,17,-1
 500 600 l 1,18,-1
 500 200 l 1,19,-1
 400 200 l 1,16,-1
EndSplineSet
EndChar

StartChar: x
Encoding: 120 120 92
Width: 700
GlyphClass: 1
Flags: W
LayerCount: 2
Fore
SplineSet
0 100 m 1,0,-1
 100 100 l 1,1,-1
 100 -100 l 1,2,-1
 0 -100 l 1,3,-1
 0 100 l 1,0,-1
0 400 m 1,4,-1
 0 600 l 1,5,-1
 100 600 l 1,6,-1
 100 400 l 1,7,-1
 0 400 l 1,4,-1
200 200 m 1,8,-1
 200 100 l 1,9,-1
 100 100 l 1,10,-1
 100 200 l 1,11,-1
 200 200 l 1,8,-1
200 400 m 1,12,-1
 200 300 l 1,13,-1
 100 300 l 1,14,-1
 100 400 l 1,15,-1
 200 400 l 1,12,-1
200 300 m 1,16,-1
 300 300 l 1,17,-1
 300 200 l 1,18,-1
 200 200 l 1,19,-1
 200 300 l 1,16,-1
400 200 m 1,20,-1
 400 100 l 1,21,-1
 300 100 l 1,22,-1
 300 200 l 1,23,-1
 400 200 l 1,20,-1
400 100 m 1,24,-1
 500 100 l 1,25,-1
 500 -100 l 1,26,-1
 400 -100 l 1,27,-1
 400 100 l 1,24,-1
400 400 m 1,28,-1
 400 300 l 1,29,-1
 300 300 l 1,30,-1
 300 400 l 1,31,-1
 400 400 l 1,28,-1
400 600 m 1,32,-1
 500 600 l 1,33,-1
 500 400 l 1,34,-1
 400 400 l 1,35,-1
 400 600 l 1,32,-1
EndSplineSet
EndChar

StartChar: y
Encoding: 121 121 93
Width: 700
GlyphClass: 1
Flags: W
LayerCount: 2
Fore
SplineSet
0 -200 m 1,0,-1
 0 -100 l 1,1,-1
 200 -100 l 1,2,-1
 200 -200 l 1,3,-1
 0 -200 l 1,0,-1
0 300 m 1,4,-1
 0 600 l 1,5,-1
 100 600 l 1,6,-1
 100 300 l 1,7,-1
 0 300 l 1,4,-1
100 100 m 1,8,-1
 100 300 l 1,9,-1
 200 300 l 1,10,-1
 200 100 l 1,11,-1
 100 100 l 1,8,-1
200 100 m 1,12,-1
 300 100 l 1,13,-1
 300 -100 l 1,14,-1
 200 -100 l 1,15,-1
 200 100 l 1,12,-1
300 100 m 1,16,-1
 300 300 l 1,17,-1
 400 300 l 1,18,-1
 400 100 l 1,19,-1
 300 100 l 1,16,-1
400 300 m 1,20,-1
 400 600 l 1,21,-1
 500 600 l 1,22,-1
 500 300 l 1,23,-1
 400 300 l 1,20,-1
EndSplineSet
EndChar

StartChar: z
Encoding: 122 122 94
Width: 700
GlyphClass: 1
Flags: W
LayerCount: 2
Fore
SplineSet
0 100 m 1,0,-1
 100 100 l 1,1,-1
 100 0 l 1,2,-1
 500 0 l 1,3,-1
 500 -100 l 1,4,-1
 0 -100 l 1,5,-1
 0 100 l 1,0,-1
0 500 m 1,6,-1
 0 600 l 1,7,-1
 500 600 l 1,8,-1
 500 400 l 1,9,-1
 400 400 l 1,10,-1
 400 500 l 1,11,-1
 0 500 l 1,6,-1
100 100 m 1,12,-1
 100 200 l 1,13,-1
 200 200 l 1,14,-1
 200 100 l 1,15,-1
 100 100 l 1,12,-1
200 200 m 1,16,-1
 200 300 l 1,17,-1
 300 300 l 1,18,-1
 300 200 l 1,19,-1
 200 200 l 1,16,-1
300 300 m 1,20,-1
 300 400 l 1,21,-1
 400 400 l 1,22,-1
 400 300 l 1,23,-1
 300 300 l 1,20,-1
EndSplineSet
EndChar

StartChar: braceleft
Encoding: 123 123 95
Width: 500
GlyphClass: 1
Flags: W
LayerCount: 2
Fore
SplineSet
0 300 m 1,0,-1
 0 400 l 1,1,-1
 100 400 l 1,2,-1
 100 300 l 1,3,-1
 0 300 l 1,0,-1
100 -100 m 1,4,-1
 100 300 l 1,5,-1
 200 300 l 1,6,-1
 200 -100 l 1,7,-1
 100 -100 l 1,4,-1
100 400 m 1,8,-1
 100 800 l 1,9,-1
 200 800 l 1,10,-1
 200 400 l 1,11,-1
 100 400 l 1,8,-1
200 -100 m 1,12,-1
 300 -100 l 1,13,-1
 300 -200 l 1,14,-1
 200 -200 l 1,15,-1
 200 -100 l 1,12,-1
200 800 m 1,16,-1
 200 900 l 1,17,-1
 300 900 l 1,18,-1
 300 800 l 1,19,-1
 200 800 l 1,16,-1
EndSplineSet
EndChar

StartChar: bar
Encoding: 124 124 96
Width: 300
GlyphClass: 1
Flags: W
LayerCount: 2
Fore
SplineSet
0 -300 m 1,0,-1
 0 900 l 1,1,-1
 100 900 l 1,2,-1
 100 -300 l 1,3,-1
 0 -300 l 1,0,-1
EndSplineSet
EndChar

StartChar: braceright
Encoding: 125 125 97
Width: 500
GlyphClass: 1
Flags: W
LayerCount: 2
Fore
SplineSet
0 -200 m 1,0,-1
 0 -100 l 1,1,-1
 100 -100 l 1,2,-1
 100 -200 l 1,3,-1
 0 -200 l 1,0,-1
0 800 m 1,4,-1
 0 900 l 1,5,-1
 100 900 l 1,6,-1
 100 800 l 1,7,-1
 0 800 l 1,4,-1
100 -100 m 1,8,-1
 100 300 l 1,9,-1
 200 300 l 1,10,-1
 200 -100 l 1,11,-1
 100 -100 l 1,8,-1
100 400 m 1,12,-1
 100 800 l 1,13,-1
 200 800 l 1,14,-1
 200 400 l 1,15,-1
 100 400 l 1,12,-1
200 400 m 1,16,-1
 300 400 l 1,17,-1
 300 300 l 1,18,-1
 200 300 l 1,19,-1
 200 400 l 1,16,-1
EndSplineSet
EndChar

StartChar: asciitilde
Encoding: 126 126 98
Width: 700
GlyphClass: 1
Flags: W
LayerCount: 2
Fore
SplineSet
0 700 m 1,0,-1
 0 800 l 1,1,-1
 100 800 l 1,2,-1
 100 700 l 1,3,-1
 0 700 l 1,0,-1
100 800 m 1,4,-1
 100 900 l 1,5,-1
 300 900 l 1,6,-1
 300 800 l 1,7,-1
 100 800 l 1,4,-1
300 700 m 1,8,-1
 300 800 l 1,9,-1
 400 800 l 1,10,-1
 400 700 l 1,11,-1
 300 700 l 1,8,-1
400 800 m 1,12,-1
 400 900 l 1,13,-1
 500 900 l 1,14,-1
 500 800 l 1,15,-1
 400 800 l 1,12,-1
EndSplineSet
EndChar

StartChar: exclamdown
Encoding: 161 161 99
Width: 300
GlyphClass: 1
Flags: W
LayerCount: 2
Fore
SplineSet
0 300 m 1,0,-1
 100 300 l 1,1,-1
 100 -300 l 1,2,-1
 0 -300 l 1,3,-1
 0 300 l 1,0,-1
0 400 m 1,4,-1
 0 600 l 1,5,-1
 100 600 l 1,6,-1
 100 400 l 1,7,-1
 0 400 l 1,4,-1
EndSplineSet
EndChar

StartChar: cent
Encoding: 162 162 100
Width: 700
GlyphClass: 1
Flags: W
LayerCount: 2
Fore
SplineSet
0 0 m 1,0,-1
 0 400 l 1,1,-1
 100 400 l 1,2,-1
 100 0 l 1,3,-1
 0 0 l 1,0,-1
100 0 m 1,4,-1
 200 0 l 1,5,-1
 200 400 l 1,6,-1
 100 400 l 1,7,-1
 100 500 l 1,8,-1
 300 500 l 1,9,-1
 300 700 l 1,10,-1
 400 700 l 1,11,-1
 400 400 l 1,12,-1
 300 400 l 1,13,-1
 300 0 l 1,14,-1
 400 0 l 1,15,-1
 400 -100 l 1,16,-1
 200 -100 l 1,17,-1
 200 -200 l 1,18,-1
 100 -200 l 1,19,-1
 100 0 l 1,4,-1
400 0 m 1,20,-1
 400 100 l 1,21,-1
 500 100 l 1,22,-1
 500 0 l 1,23,-1
 400 0 l 1,20,-1
400 400 m 1,24,-1
 500 400 l 1,25,-1
 500 300 l 1,26,-1
 400 300 l 1,27,-1
 400 400 l 1,24,-1
EndSplineSet
EndChar

StartChar: sterling
Encoding: 163 163 101
Width: 700
GlyphClass: 1
Flags: W
LayerCount: 2
Fore
SplineSet
0 200 m 1,0,-1
 100 200 l 1,1,-1
 100 0 l 1,2,-1
 0 0 l 1,3,-1
 0 200 l 1,0,-1
0 400 m 1,4,-1
 0 500 l 1,5,-1
 100 500 l 1,6,-1
 100 800 l 1,7,-1
 200 800 l 1,8,-1
 200 500 l 1,9,-1
 400 500 l 1,10,-1
 400 400 l 1,11,-1
 300 400 l 1,12,-1
 300 0 l 1,13,-1
 200 0 l 1,14,-1
 200 200 l 1,15,-1
 100 200 l 1,16,-1
 100 300 l 1,17,-1
 200 300 l 1,18,-1
 200 400 l 1,19,-1
 0 400 l 1,4,-1
200 0 m 1,20,-1
 200 -100 l 1,21,-1
 100 -100 l 1,22,-1
 100 0 l 1,23,-1
 200 0 l 1,20,-1
200 800 m 1,24,-1
 200 900 l 1,25,-1
 400 900 l 1,26,-1
 400 800 l 1,27,-1
 200 800 l 1,24,-1
400 0 m 1,28,-1
 400 100 l 1,29,-1
 500 100 l 1,30,-1
 500 -100 l 1,31,-1
 300 -100 l 1,32,-1
 300 0 l 1,33,-1
 400 0 l 1,28,-1
400 700 m 1,34,-1
 400 800 l 1,35,-1
 500 800 l 1,36,-1
 500 700 l 1,37,-1
 400 700 l 1,34,-1
EndSplineSet
EndChar

StartChar: currency
Encoding: 164 164 102
Width: 700
GlyphClass: 1
Flags: W
LayerCount: 2
Fore
SplineSet
0 0 m 1,0,-1
 0 100 l 1,1,-1
 100 100 l 1,2,-1
 100 0 l 1,3,-1
 0 0 l 1,0,-1
0 200 m 1,4,-1
 0 500 l 1,5,-1
 100 500 l 1,6,-1
 100 200 l 1,7,-1
 0 200 l 1,4,-1
0 600 m 1,8,-1
 0 700 l 1,9,-1
 100 700 l 1,10,-1
 100 600 l 1,11,-1
 0 600 l 1,8,-1
100 200 m 1,12,-1
 400 200 l 1,13,-1
 400 100 l 1,14,-1
 100 100 l 1,15,-1
 100 200 l 1,12,-1
100 500 m 1,16,-1
 100 600 l 1,17,-1
 400 600 l 1,18,-1
 400 500 l 1,19,-1
 100 500 l 1,16,-1
400 200 m 1,20,-1
 400 500 l 1,21,-1
 500 500 l 1,22,-1
 500 200 l 1,23,-1
 400 200 l 1,20,-1
400 100 m 1,24,-1
 500 100 l 1,25,-1
 500 0 l 1,26,-1
 400 0 l 1,27,-1
 400 100 l 1,24,-1
400 600 m 1,28,-1
 400 700 l 1,29,-1
 500 700 l 1,30,-1
 500 600 l 1,31,-1
 400 600 l 1,28,-1
EndSplineSet
EndChar

StartChar: yen
Encoding: 165 165 103
Width: 700
GlyphClass: 1
Flags: W
LayerCount: 2
Fore
SplineSet
0 100 m 1,0,-1
 0 200 l 1,1,-1
 200 200 l 1,2,-1
 200 300 l 1,3,-1
 0 300 l 1,4,-1
 0 400 l 1,5,-1
 100 400 l 1,6,-1
 100 600 l 1,7,-1
 200 600 l 1,8,-1
 200 400 l 1,9,-1
 300 400 l 1,10,-1
 300 600 l 1,11,-1
 400 600 l 1,12,-1
 400 400 l 1,13,-1
 500 400 l 1,14,-1
 500 300 l 1,15,-1
 300 300 l 1,16,-1
 300 200 l 1,17,-1
 500 200 l 1,18,-1
 500 100 l 1,19,-1
 300 100 l 1,20,-1
 300 -100 l 1,21,-1
 200 -100 l 1,22,-1
 200 100 l 1,23,-1
 0 100 l 1,0,-1
0 600 m 1,24,-1
 0 800 l 1,25,-1
 100 800 l 1,26,-1
 100 600 l 1,27,-1
 0 600 l 1,24,-1
400 600 m 1,28,-1
 400 800 l 1,29,-1
 500 800 l 1,30,-1
 500 600 l 1,31,-1
 400 600 l 1,28,-1
EndSplineSet
EndChar

StartChar: brokenbar
Encoding: 166 166 104
Width: 300
GlyphClass: 1
Flags: W
LayerCount: 2
Fore
SplineSet
0 200 m 1,0,-1
 100 200 l 1,1,-1
 100 -300 l 1,2,-1
 0 -300 l 1,3,-1
 0 200 l 1,0,-1
0 400 m 1,4,-1
 0 900 l 1,5,-1
 100 900 l 1,6,-1
 100 400 l 1,7,-1
 0 400 l 1,4,-1
EndSplineSet
EndChar

StartChar: section
Encoding: 167 167 105
Width: 1300
GlyphClass: 1
Flags: W
LayerCount: 2
Fore
SplineSet
0 100 m 1,0,-1
 100 100 l 1,1,-1
 100 -100 l 1,2,-1
 0 -100 l 1,3,-1
 0 100 l 1,0,-1
0 500 m 1,4,-1
 100 500 l 1,5,-1
 100 300 l 1,6,-1
 0 300 l 1,7,-1
 0 500 l 1,4,-1
0 600 m 1,8,-1
 0 800 l 1,9,-1
 100 800 l 1,10,-1
 100 600 l 1,11,-1
 0 600 l 1,8,-1
200 200 m 1,12,-1
 400 200 l 1,13,-1
 400 100 l 1,14,-1
 200 100 l 1,15,-1
 200 200 l 1,12,-1
200 300 m 1,16,-1
 200 200 l 1,17,-1
 100 200 l 1,18,-1
 100 300 l 1,19,-1
 200 300 l 1,16,-1
400 200 m 1,20,-1
 400 400 l 1,21,-1
 500 400 l 1,22,-1
 500 200 l 1,23,-1
 400 200 l 1,20,-1
400 100 m 1,24,-1
 500 100 l 1,25,-1
 500 -100 l 1,26,-1
 400 -100 l 1,27,-1
 400 100 l 1,24,-1
400 -100 m 1,28,-1
 400 -200 l 1,29,-1
 100 -200 l 1,30,-1
 100 -100 l 1,31,-1
 400 -100 l 1,28,-1
400 500 m 1,32,-1
 400 400 l 1,33,-1
 300 400 l 1,34,-1
 300 500 l 1,35,-1
 400 500 l 1,32,-1
400 600 m 1,36,-1
 400 800 l 1,37,-1
 500 800 l 1,38,-1
 500 600 l 1,39,-1
 400 600 l 1,36,-1
400 900 m 1,40,-1
 400 800 l 1,41,-1
 100 800 l 1,42,-1
 100 900 l 1,43,-1
 400 900 l 1,40,-1
100 500 m 1,44,-1
 100 600 l 1,45,-1
 300 600 l 1,46,-1
 300 500 l 1,47,-1
 100 500 l 1,44,-1
EndSplineSet
EndChar

StartChar: dieresis
Encoding: 168 168 106
Width: 800
GlyphClass: 1
Flags: W
LayerCount: 2
Fore
SplineSet
0 700 m 1,0,-1
 0 900 l 1,1,-1
 200 900 l 1,2,-1
 200 700 l 1,3,-1
 0 700 l 1,0,-1
400 700 m 1,4,-1
 400 900 l 1,5,-1
 600 900 l 1,6,-1
 600 700 l 1,7,-1
 400 700 l 1,4,-1
EndSplineSet
EndChar

StartChar: copyright
Encoding: 169 169 107
Width: 1000
GlyphClass: 1
Flags: W
LayerCount: 2
Fore
SplineSet
0 100 m 1,0,-1
 0 700 l 1,1,-1
 100 700 l 1,2,-1
 100 100 l 1,3,-1
 0 100 l 1,0,-1
200 100 m 1,4,-1
 200 0 l 1,5,-1
 100 0 l 1,6,-1
 100 100 l 1,7,-1
 200 100 l 1,4,-1
200 0 m 1,8,-1
 600 0 l 1,9,-1
 600 -100 l 1,10,-1
 200 -100 l 1,11,-1
 200 0 l 1,8,-1
200 200 m 1,12,-1
 200 600 l 1,13,-1
 300 600 l 1,14,-1
 300 200 l 1,15,-1
 200 200 l 1,12,-1
200 700 m 1,16,-1
 100 700 l 1,17,-1
 100 800 l 1,18,-1
 200 800 l 1,19,-1
 200 700 l 1,16,-1
200 800 m 1,20,-1
 200 900 l 1,21,-1
 600 900 l 1,22,-1
 600 800 l 1,23,-1
 200 800 l 1,20,-1
600 200 m 1,24,-1
 500 200 l 1,25,-1
 500 300 l 1,26,-1
 600 300 l 1,27,-1
 600 200 l 1,24,-1
600 0 m 1,28,-1
 600 100 l 1,29,-1
 700 100 l 1,30,-1
 700 0 l 1,31,-1
 600 0 l 1,28,-1
600 500 m 1,32,-1
 500 500 l 1,33,-1
 500 600 l 1,34,-1
 600 600 l 1,35,-1
 600 500 l 1,32,-1
600 700 m 1,36,-1
 600 800 l 1,37,-1
 700 800 l 1,38,-1
 700 700 l 1,39,-1
 600 700 l 1,36,-1
800 100 m 1,40,-1
 700 100 l 1,41,-1
 700 700 l 1,42,-1
 800 700 l 1,43,-1
 800 100 l 1,40,-1
300 200 m 1,44,-1
 500 200 l 1,45,-1
 500 100 l 1,46,-1
 300 100 l 1,47,-1
 300 200 l 1,44,-1
300 600 m 1,48,-1
 300 700 l 1,49,-1
 500 700 l 1,50,-1
 500 600 l 1,51,-1
 300 600 l 1,48,-1
EndSplineSet
EndChar

StartChar: ordfeminine
Encoding: 170 170 108
Width: 700
GlyphClass: 1
Flags: W
LayerCount: 2
Fore
SplineSet
0 400 m 1,0,-1
 0 500 l 1,1,-1
 100 500 l 1,2,-1
 100 400 l 1,3,-1
 0 400 l 1,0,-1
0 600 m 1,4,-1
 0 700 l 1,5,-1
 100 700 l 1,6,-1
 100 600 l 1,7,-1
 0 600 l 1,4,-1
100 500 m 1,8,-1
 100 600 l 1,9,-1
 300 600 l 1,10,-1
 300 700 l 1,11,-1
 400 700 l 1,12,-1
 400 400 l 1,13,-1
 300 400 l 1,14,-1
 300 500 l 1,15,-1
 100 500 l 1,8,-1
100 400 m 1,16,-1
 300 400 l 1,17,-1
 300 300 l 1,18,-1
 100 300 l 1,19,-1
 100 400 l 1,16,-1
100 700 m 1,20,-1
 100 800 l 1,21,-1
 300 800 l 1,22,-1
 300 700 l 1,23,-1
 100 700 l 1,20,-1
400 400 m 1,24,-1
 500 400 l 1,25,-1
 500 300 l 1,26,-1
 400 300 l 1,27,-1
 400 400 l 1,24,-1
EndSplineSet
EndChar

StartChar: guillemotleft
Encoding: 171 171 109
Width: 700
GlyphClass: 1
Flags: W
LayerCount: 2
Fore
SplineSet
0 300 m 1,0,-1
 0 400 l 1,1,-1
 100 400 l 1,2,-1
 100 300 l 1,3,-1
 0 300 l 1,0,-1
200 100 m 1,4,-1
 100 100 l 1,5,-1
 100 300 l 1,6,-1
 200 300 l 1,7,-1
 200 100 l 1,4,-1
200 0 m 1,8,-1
 200 100 l 1,9,-1
 300 100 l 1,10,-1
 300 0 l 1,11,-1
 200 0 l 1,8,-1
200 400 m 1,12,-1
 100 400 l 1,13,-1
 100 600 l 1,14,-1
 200 600 l 1,15,-1
 200 400 l 1,12,-1
200 300 m 1,16,-1
 200 400 l 1,17,-1
 300 400 l 1,18,-1
 300 300 l 1,19,-1
 200 300 l 1,16,-1
200 600 m 1,20,-1
 200 700 l 1,21,-1
 300 700 l 1,22,-1
 300 600 l 1,23,-1
 200 600 l 1,20,-1
400 100 m 1,24,-1
 500 100 l 1,25,-1
 500 0 l 1,26,-1
 400 0 l 1,27,-1
 400 100 l 1,24,-1
400 400 m 1,28,-1
 300 400 l 1,29,-1
 300 600 l 1,30,-1
 400 600 l 1,31,-1
 400 400 l 1,28,-1
400 300 m 1,32,-1
 400 100 l 1,33,-1
 300 100 l 1,34,-1
 300 300 l 1,35,-1
 400 300 l 1,32,-1
400 600 m 1,36,-1
 400 700 l 1,37,-1
 500 700 l 1,38,-1
 500 600 l 1,39,-1
 400 600 l 1,36,-1
EndSplineSet
EndChar

StartChar: logicalnot
Encoding: 172 172 110
Width: 700
GlyphClass: 1
Flags: W
LayerCount: 2
Fore
SplineSet
400 200 m 1,0,-1
 400 400 l 1,1,-1
 0 400 l 1,2,-1
 0 500 l 1,3,-1
 500 500 l 1,4,-1
 500 200 l 1,5,-1
 400 200 l 1,0,-1
EndSplineSet
EndChar

StartChar: hyphen
Encoding: 173 173 111
Width: 600
GlyphClass: 1
Flags: W
LayerCount: 2
Fore
SplineSet
0 300 m 1,0,-1
 0 400 l 1,1,-1
 400 400 l 1,2,-1
 400 300 l 1,3,-1
 0 300 l 1,0,-1
EndSplineSet
EndChar

StartChar: registered
Encoding: 174 174 112
Width: 700
GlyphClass: 1
Flags: W
LayerCount: 2
Fore
SplineSet
0 200 m 1,0,-1
 0 800 l 1,1,-1
 100 800 l 1,2,-1
 100 700 l 1,3,-1
 300 700 l 1,4,-1
 300 600 l 1,5,-1
 100 600 l 1,6,-1
 100 500 l 1,7,-1
 300 500 l 1,8,-1
 300 300 l 1,9,-1
 200 300 l 1,10,-1
 200 400 l 1,11,-1
 100 400 l 1,12,-1
 100 200 l 1,13,-1
 0 200 l 1,0,-1
400 200 m 1,14,-1
 400 100 l 1,15,-1
 100 100 l 1,16,-1
 100 200 l 1,17,-1
 300 200 l 1,18,-1
 300 300 l 1,19,-1
 400 300 l 1,20,-1
 400 500 l 1,21,-1
 300 500 l 1,22,-1
 300 600 l 1,23,-1
 400 600 l 1,24,-1
 400 800 l 1,25,-1
 500 800 l 1,26,-1
 500 200 l 1,27,-1
 400 200 l 1,14,-1
400 900 m 1,28,-1
 400 800 l 1,29,-1
 100 800 l 1,30,-1
 100 900 l 1,31,-1
 400 900 l 1,28,-1
EndSplineSet
EndChar

StartChar: macron
Encoding: 175 175 113
Width: 600
GlyphClass: 1
Flags: W
LayerCount: 2
Fore
SplineSet
0 700 m 1,0,-1
 0 800 l 1,1,-1
 400 800 l 1,2,-1
 400 700 l 1,3,-1
 0 700 l 1,0,-1
EndSplineSet
EndChar

StartChar: degree
Encoding: 176 176 114
Width: 1300
GlyphClass: 1
Flags: W
LayerCount: 2
Fore
SplineSet
0 700 m 1,0,-1
 0 800 l 1,1,-1
 100 800 l 1,2,-1
 100 700 l 1,3,-1
 0 700 l 1,0,-1
100 700 m 1,4,-1
 200 700 l 1,5,-1
 200 600 l 1,6,-1
 100 600 l 1,7,-1
 100 700 l 1,4,-1
100 800 m 1,8,-1
 100 900 l 1,9,-1
 200 900 l 1,10,-1
 200 800 l 1,11,-1
 100 800 l 1,8,-1
200 700 m 1,12,-1
 200 800 l 1,13,-1
 300 800 l 1,14,-1
 300 700 l 1,15,-1
 200 700 l 1,12,-1
EndSplineSet
EndChar

StartChar: plusminus
Encoding: 177 177 115
Width: 900
GlyphClass: 1
Flags: W
LayerCount: 2
Fore
SplineSet
0 -100 m 1,0,-1
 0 0 l 1,1,-1
 700 0 l 1,2,-1
 700 -100 l 1,3,-1
 0 -100 l 1,0,-1
0 400 m 1,4,-1
 0 500 l 1,5,-1
 300 500 l 1,6,-1
 300 800 l 1,7,-1
 400 800 l 1,8,-1
 400 500 l 1,9,-1
 700 500 l 1,10,-1
 700 400 l 1,11,-1
 400 400 l 1,12,-1
 400 100 l 1,13,-1
 300 100 l 1,14,-1
 300 400 l 1,15,-1
 0 400 l 1,4,-1
EndSplineSet
EndChar

StartChar: twosuperior
Encoding: 178 178 116
Width: 700
GlyphClass: 1
Flags: W
LayerCount: 2
Fore
SplineSet
0 300 m 1,0,-1
 0 400 l 1,1,-1
 100 400 l 1,2,-1
 100 500 l 1,3,-1
 200 500 l 1,4,-1
 200 400 l 1,5,-1
 400 400 l 1,6,-1
 400 300 l 1,7,-1
 0 300 l 1,0,-1
0 600 m 1,8,-1
 0 700 l 1,9,-1
 100 700 l 1,10,-1
 100 600 l 1,11,-1
 0 600 l 1,8,-1
100 700 m 1,12,-1
 100 800 l 1,13,-1
 300 800 l 1,14,-1
 300 700 l 1,15,-1
 100 700 l 1,12,-1
200 500 m 1,16,-1
 200 600 l 1,17,-1
 300 600 l 1,18,-1
 300 500 l 1,19,-1
 200 500 l 1,16,-1
300 700 m 1,20,-1
 400 700 l 1,21,-1
 400 600 l 1,22,-1
 300 600 l 1,23,-1
 300 700 l 1,20,-1
EndSplineSet
EndChar

StartChar: threesuperior
Encoding: 179 179 117
Width: 700
GlyphClass: 1
Flags: W
LayerCount: 2
Fore
SplineSet
0 400 m 1,0,-1
 0 500 l 1,1,-1
 100 500 l 1,2,-1
 100 400 l 1,3,-1
 0 400 l 1,0,-1
0 600 m 1,4,-1
 0 700 l 1,5,-1
 100 700 l 1,6,-1
 100 600 l 1,7,-1
 0 600 l 1,4,-1
100 400 m 1,8,-1
 300 400 l 1,9,-1
 300 300 l 1,10,-1
 100 300 l 1,11,-1
 100 400 l 1,8,-1
100 700 m 1,12,-1
 100 800 l 1,13,-1
 300 800 l 1,14,-1
 300 700 l 1,15,-1
 100 700 l 1,12,-1
200 500 m 1,16,-1
 200 600 l 1,17,-1
 300 600 l 1,18,-1
 300 500 l 1,19,-1
 200 500 l 1,16,-1
300 500 m 1,20,-1
 400 500 l 1,21,-1
 400 400 l 1,22,-1
 300 400 l 1,23,-1
 300 500 l 1,20,-1
300 700 m 1,24,-1
 400 700 l 1,25,-1
 400 600 l 1,26,-1
 300 600 l 1,27,-1
 300 700 l 1,24,-1
EndSplineSet
EndChar

StartChar: acute
Encoding: 180 180 118
Width: 400
GlyphClass: 1
Flags: W
LayerCount: 2
Fore
SplineSet
0 700 m 1,0,-1
 0 800 l 1,1,-1
 100 800 l 1,2,-1
 100 700 l 1,3,-1
 0 700 l 1,0,-1
100 800 m 1,4,-1
 100 900 l 1,5,-1
 200 900 l 1,6,-1
 200 800 l 1,7,-1
 100 800 l 1,4,-1
EndSplineSet
EndChar

StartChar: mu
Encoding: 181 181 119
Width: 700
GlyphClass: 1
Flags: W
LayerCount: 2
Fore
SplineSet
0 -200 m 1,0,-1
 0 500 l 1,1,-1
 100 500 l 1,2,-1
 100 0 l 1,3,-1
 300 0 l 1,4,-1
 300 -100 l 1,5,-1
 100 -100 l 1,6,-1
 100 -200 l 1,7,-1
 0 -200 l 1,0,-1
300 0 m 1,8,-1
 300 500 l 1,9,-1
 400 500 l 1,10,-1
 400 0 l 1,11,-1
 300 0 l 1,8,-1
400 0 m 1,12,-1
 500 0 l 1,13,-1
 500 -100 l 1,14,-1
 400 -100 l 1,15,-1
 400 0 l 1,12,-1
EndSplineSet
EndChar

StartChar: paragraph
Encoding: 182 182 120
Width: 700
GlyphClass: 1
Flags: W
LayerCount: 2
Fore
SplineSet
0 500 m 1,0,-1
 0 800 l 1,1,-1
 100 800 l 1,2,-1
 100 900 l 1,3,-1
 500 900 l 1,4,-1
 500 -200 l 1,5,-1
 400 -200 l 1,6,-1
 400 800 l 1,7,-1
 300 800 l 1,8,-1
 300 -200 l 1,9,-1
 200 -200 l 1,10,-1
 200 400 l 1,11,-1
 100 400 l 1,12,-1
 100 500 l 1,13,-1
 0 500 l 1,0,-1
EndSplineSet
EndChar

StartChar: periodcentered
Encoding: 183 183 121
Width: 400
GlyphClass: 1
Flags: W
LayerCount: 2
Fore
SplineSet
0 500 m 1,0,-1
 200 500 l 1,1,-1
 200 300 l 1,2,-1
 0 300 l 1,3,-1
 0 500 l 1,0,-1
EndSplineSet
EndChar

StartChar: cedilla
Encoding: 184 184 122
Width: 400
GlyphClass: 1
Flags: W
LayerCount: 2
Fore
SplineSet
0 0 m 1,0,-1
 0 100 l 1,1,-1
 200 100 l 1,2,-1
 200 -100 l 1,3,-1
 100 -100 l 1,4,-1
 100 0 l 1,5,-1
 0 0 l 1,0,-1
0 -200 m 1,6,-1
 0 -100 l 1,7,-1
 100 -100 l 1,8,-1
 100 -200 l 1,9,-1
 0 -200 l 1,6,-1
EndSplineSet
EndChar

StartChar: onesuperior
Encoding: 185 185 123
Width: 400
GlyphClass: 1
Flags: W
LayerCount: 2
Fore
SplineSet
0 700 m 1,0,-1
 0 800 l 1,1,-1
 200 800 l 1,2,-1
 200 300 l 1,3,-1
 100 300 l 1,4,-1
 100 700 l 1,5,-1
 0 700 l 1,0,-1
EndSplineSet
EndChar

StartChar: ordmasculine
Encoding: 186 186 124
Width: 700
GlyphClass: 1
Flags: W
LayerCount: 2
Fore
SplineSet
0 400 m 1,0,-1
 0 700 l 1,1,-1
 100 700 l 1,2,-1
 100 400 l 1,3,-1
 0 400 l 1,0,-1
400 400 m 1,4,-1
 300 400 l 1,5,-1
 300 700 l 1,6,-1
 400 700 l 1,7,-1
 400 400 l 1,4,-1
100 400 m 1,8,-1
 300 400 l 1,9,-1
 300 300 l 1,10,-1
 100 300 l 1,11,-1
 100 400 l 1,8,-1
100 700 m 1,12,-1
 100 800 l 1,13,-1
 300 800 l 1,14,-1
 300 700 l 1,15,-1
 100 700 l 1,12,-1
EndSplineSet
EndChar

StartChar: guillemotright
Encoding: 187 187 125
Width: 700
GlyphClass: 1
Flags: W
LayerCount: 2
Fore
SplineSet
0 0 m 1,0,-1
 0 100 l 1,1,-1
 100 100 l 1,2,-1
 100 0 l 1,3,-1
 0 0 l 1,0,-1
0 600 m 1,4,-1
 0 700 l 1,5,-1
 100 700 l 1,6,-1
 100 600 l 1,7,-1
 0 600 l 1,4,-1
200 100 m 1,8,-1
 100 100 l 1,9,-1
 100 300 l 1,10,-1
 200 300 l 1,11,-1
 200 100 l 1,8,-1
200 0 m 1,12,-1
 200 100 l 1,13,-1
 300 100 l 1,14,-1
 300 0 l 1,15,-1
 200 0 l 1,12,-1
200 400 m 1,16,-1
 100 400 l 1,17,-1
 100 600 l 1,18,-1
 200 600 l 1,19,-1
 200 400 l 1,16,-1
200 300 m 1,20,-1
 200 400 l 1,21,-1
 300 400 l 1,22,-1
 300 300 l 1,23,-1
 200 300 l 1,20,-1
200 600 m 1,24,-1
 200 700 l 1,25,-1
 300 700 l 1,26,-1
 300 600 l 1,27,-1
 200 600 l 1,24,-1
400 100 m 1,28,-1
 300 100 l 1,29,-1
 300 300 l 1,30,-1
 400 300 l 1,31,-1
 400 100 l 1,28,-1
400 400 m 1,32,-1
 500 400 l 1,33,-1
 500 300 l 1,34,-1
 400 300 l 1,35,-1
 400 400 l 1,32,-1
400 600 m 1,36,-1
 400 400 l 1,37,-1
 300 400 l 1,38,-1
 300 600 l 1,39,-1
 400 600 l 1,36,-1
EndSplineSet
EndChar

StartChar: onequarter
Encoding: 188 188 126
Width: 700
GlyphClass: 1
Flags: W
LayerCount: 2
Fore
SplineSet
0 200 m 1,0,-1
 100 200 l 1,1,-1
 100 0 l 1,2,-1
 0 0 l 1,3,-1
 0 200 l 1,0,-1
0 800 m 1,4,-1
 0 900 l 1,5,-1
 200 900 l 1,6,-1
 200 500 l 1,7,-1
 100 500 l 1,8,-1
 100 800 l 1,9,-1
 0 800 l 1,4,-1
200 200 m 1,10,-1
 100 200 l 1,11,-1
 100 300 l 1,12,-1
 200 300 l 1,13,-1
 200 200 l 1,10,-1
200 0 m 1,14,-1
 200 200 l 1,15,-1
 300 200 l 1,16,-1
 300 100 l 1,17,-1
 400 100 l 1,18,-1
 400 200 l 1,19,-1
 300 200 l 1,20,-1
 300 300 l 1,21,-1
 400 300 l 1,22,-1
 400 400 l 1,23,-1
 500 400 l 1,24,-1
 500 -100 l 1,25,-1
 400 -100 l 1,26,-1
 400 0 l 1,27,-1
 200 0 l 1,14,-1
200 500 m 1,28,-1
 300 500 l 1,29,-1
 300 300 l 1,30,-1
 200 300 l 1,31,-1
 200 500 l 1,28,-1
400 500 m 1,32,-1
 300 500 l 1,33,-1
 300 600 l 1,34,-1
 400 600 l 1,35,-1
 400 500 l 1,32,-1
400 600 m 1,36,-1
 400 800 l 1,37,-1
 500 800 l 1,38,-1
 500 600 l 1,39,-1
 400 600 l 1,36,-1
EndSplineSet
EndChar

StartChar: onehalf
Encoding: 189 189 127
Width: 700
GlyphClass: 1
Flags: W
LayerCount: 2
Fore
SplineSet
0 200 m 1,0,-1
 100 200 l 1,1,-1
 100 0 l 1,2,-1
 0 0 l 1,3,-1
 0 200 l 1,0,-1
0 800 m 1,4,-1
 0 900 l 1,5,-1
 200 900 l 1,6,-1
 200 500 l 1,7,-1
 100 500 l 1,8,-1
 100 800 l 1,9,-1
 0 800 l 1,4,-1
200 200 m 1,10,-1
 100 200 l 1,11,-1
 100 300 l 1,12,-1
 200 300 l 1,13,-1
 200 200 l 1,10,-1
200 -100 m 1,14,-1
 200 0 l 1,15,-1
 300 0 l 1,16,-1
 300 100 l 1,17,-1
 400 100 l 1,18,-1
 400 0 l 1,19,-1
 500 0 l 1,20,-1
 500 -100 l 1,21,-1
 200 -100 l 1,14,-1
200 500 m 1,22,-1
 300 500 l 1,23,-1
 300 400 l 1,24,-1
 400 400 l 1,25,-1
 400 300 l 1,26,-1
 200 300 l 1,27,-1
 200 500 l 1,22,-1
400 100 m 1,28,-1
 400 300 l 1,29,-1
 500 300 l 1,30,-1
 500 100 l 1,31,-1
 400 100 l 1,28,-1
400 500 m 1,32,-1
 300 500 l 1,33,-1
 300 600 l 1,34,-1
 400 600 l 1,35,-1
 400 500 l 1,32,-1
400 600 m 1,36,-1
 400 800 l 1,37,-1
 500 800 l 1,38,-1
 500 600 l 1,39,-1
 400 600 l 1,36,-1
EndSplineSet
EndChar

StartChar: threequarters
Encoding: 190 190 128
Width: 700
GlyphClass: 1
Flags: W
LayerCount: 2
Fore
SplineSet
0 200 m 1,0,-1
 100 200 l 1,1,-1
 100 0 l 1,2,-1
 0 0 l 1,3,-1
 0 200 l 1,0,-1
0 400 m 1,4,-1
 0 500 l 1,5,-1
 200 500 l 1,6,-1
 200 600 l 1,7,-1
 100 600 l 1,8,-1
 100 700 l 1,9,-1
 200 700 l 1,10,-1
 200 800 l 1,11,-1
 300 800 l 1,12,-1
 300 600 l 1,13,-1
 400 600 l 1,14,-1
 400 500 l 1,15,-1
 300 500 l 1,16,-1
 300 300 l 1,17,-1
 200 300 l 1,18,-1
 200 400 l 1,19,-1
 0 400 l 1,4,-1
0 800 m 1,20,-1
 0 900 l 1,21,-1
 200 900 l 1,22,-1
 200 800 l 1,23,-1
 0 800 l 1,20,-1
200 200 m 1,24,-1
 100 200 l 1,25,-1
 100 300 l 1,26,-1
 200 300 l 1,27,-1
 200 200 l 1,24,-1
200 0 m 1,28,-1
 200 200 l 1,29,-1
 300 200 l 1,30,-1
 300 100 l 1,31,-1
 400 100 l 1,32,-1
 400 200 l 1,33,-1
 300 200 l 1,34,-1
 300 300 l 1,35,-1
 400 300 l 1,36,-1
 400 400 l 1,37,-1
 500 400 l 1,38,-1
 500 -100 l 1,39,-1
 400 -100 l 1,40,-1
 400 0 l 1,41,-1
 200 0 l 1,28,-1
400 600 m 1,42,-1
 400 800 l 1,43,-1
 500 800 l 1,44,-1
 500 600 l 1,45,-1
 400 600 l 1,42,-1
EndSplineSet
EndChar

StartChar: questiondown
Encoding: 191 191 129
Width: 600
GlyphClass: 1
Flags: W
LayerCount: 2
Fore
SplineSet
0 0 m 1,0,-1
 100 0 l 1,1,-1
 100 -200 l 1,2,-1
 0 -200 l 1,3,-1
 0 0 l 1,0,-1
100 0 m 1,4,-1
 100 100 l 1,5,-1
 200 100 l 1,6,-1
 200 0 l 1,7,-1
 100 0 l 1,4,-1
100 -200 m 1,8,-1
 300 -200 l 1,9,-1
 300 -300 l 1,10,-1
 100 -300 l 1,11,-1
 100 -200 l 1,8,-1
200 100 m 1,12,-1
 200 300 l 1,13,-1
 300 300 l 1,14,-1
 300 100 l 1,15,-1
 200 100 l 1,12,-1
200 400 m 1,16,-1
 200 600 l 1,17,-1
 300 600 l 1,18,-1
 300 400 l 1,19,-1
 200 400 l 1,16,-1
300 -200 m 1,20,-1
 300 -100 l 1,21,-1
 400 -100 l 1,22,-1
 400 -200 l 1,23,-1
 300 -200 l 1,20,-1
EndSplineSet
EndChar

StartChar: Agrave
Encoding: 192 192 130
Width: 700
GlyphClass: 1
Flags: W
LayerCount: 2
Fore
SplineSet
0 -100 m 1,0,-1
 0 300 l 1,1,-1
 100 300 l 1,2,-1
 100 200 l 1,3,-1
 400 200 l 1,4,-1
 400 300 l 1,5,-1
 500 300 l 1,6,-1
 500 -100 l 1,7,-1
 400 -100 l 1,8,-1
 400 100 l 1,9,-1
 100 100 l 1,10,-1
 100 -100 l 1,11,-1
 0 -100 l 1,0,-1
200 500 m 1,12,-1
 200 300 l 1,13,-1
 100 300 l 1,14,-1
 100 500 l 1,15,-1
 200 500 l 1,12,-1
200 700 m 1,16,-1
 300 700 l 1,17,-1
 300 500 l 1,18,-1
 200 500 l 1,19,-1
 200 700 l 1,16,-1
200 800 m 1,20,-1
 200 900 l 1,21,-1
 300 900 l 1,22,-1
 300 800 l 1,23,-1
 200 800 l 1,20,-1
400 300 m 1,24,-1
 300 300 l 1,25,-1
 300 500 l 1,26,-1
 400 500 l 1,27,-1
 400 300 l 1,24,-1
400 700 m 1,28,-1
 300 700 l 1,29,-1
 300 800 l 1,30,-1
 400 800 l 1,31,-1
 400 700 l 1,28,-1
EndSplineSet
EndChar

StartChar: Aacute
Encoding: 193 193 131
Width: 700
GlyphClass: 1
Flags: W
LayerCount: 2
Fore
SplineSet
0 -100 m 1,0,-1
 0 300 l 1,1,-1
 100 300 l 1,2,-1
 100 200 l 1,3,-1
 400 200 l 1,4,-1
 400 300 l 1,5,-1
 500 300 l 1,6,-1
 500 -100 l 1,7,-1
 400 -100 l 1,8,-1
 400 100 l 1,9,-1
 100 100 l 1,10,-1
 100 -100 l 1,11,-1
 0 -100 l 1,0,-1
200 500 m 1,12,-1
 200 300 l 1,13,-1
 100 300 l 1,14,-1
 100 500 l 1,15,-1
 200 500 l 1,12,-1
200 700 m 1,16,-1
 100 700 l 1,17,-1
 100 800 l 1,18,-1
 200 800 l 1,19,-1
 200 700 l 1,16,-1
200 800 m 1,20,-1
 200 900 l 1,21,-1
 300 900 l 1,22,-1
 300 800 l 1,23,-1
 200 800 l 1,20,-1
400 300 m 1,24,-1
 300 300 l 1,25,-1
 300 500 l 1,26,-1
 400 500 l 1,27,-1
 400 300 l 1,24,-1
300 500 m 1,28,-1
 200 500 l 1,29,-1
 200 700 l 1,30,-1
 300 700 l 1,31,-1
 300 500 l 1,28,-1
EndSplineSet
EndChar

StartChar: Acircumflex
Encoding: 194 194 132
Width: 700
GlyphClass: 1
Flags: W
LayerCount: 2
Fore
SplineSet
0 -100 m 1,0,-1
 0 300 l 1,1,-1
 100 300 l 1,2,-1
 100 200 l 1,3,-1
 400 200 l 1,4,-1
 400 300 l 1,5,-1
 500 300 l 1,6,-1
 500 -100 l 1,7,-1
 400 -100 l 1,8,-1
 400 100 l 1,9,-1
 100 100 l 1,10,-1
 100 -100 l 1,11,-1
 0 -100 l 1,0,-1
200 500 m 1,12,-1
 200 300 l 1,13,-1
 100 300 l 1,14,-1
 100 500 l 1,15,-1
 200 500 l 1,12,-1
200 700 m 1,16,-1
 100 700 l 1,17,-1
 100 800 l 1,18,-1
 200 800 l 1,19,-1
 200 700 l 1,16,-1
200 800 m 1,20,-1
 200 900 l 1,21,-1
 300 900 l 1,22,-1
 300 800 l 1,23,-1
 200 800 l 1,20,-1
400 300 m 1,24,-1
 300 300 l 1,25,-1
 300 500 l 1,26,-1
 400 500 l 1,27,-1
 400 300 l 1,24,-1
400 700 m 1,28,-1
 300 700 l 1,29,-1
 300 800 l 1,30,-1
 400 800 l 1,31,-1
 400 700 l 1,28,-1
300 500 m 1,32,-1
 200 500 l 1,33,-1
 200 700 l 1,34,-1
 300 700 l 1,35,-1
 300 500 l 1,32,-1
EndSplineSet
EndChar

StartChar: Atilde
Encoding: 195 195 133
Width: 700
GlyphClass: 1
Flags: W
LayerCount: 2
Fore
SplineSet
0 -100 m 1,0,-1
 0 300 l 1,1,-1
 100 300 l 1,2,-1
 100 200 l 1,3,-1
 400 200 l 1,4,-1
 400 300 l 1,5,-1
 500 300 l 1,6,-1
 500 -100 l 1,7,-1
 400 -100 l 1,8,-1
 400 100 l 1,9,-1
 100 100 l 1,10,-1
 100 -100 l 1,11,-1
 0 -100 l 1,0,-1
0 700 m 1,12,-1
 0 800 l 1,13,-1
 100 800 l 1,14,-1
 100 700 l 1,15,-1
 0 700 l 1,12,-1
200 500 m 1,16,-1
 200 300 l 1,17,-1
 100 300 l 1,18,-1
 100 500 l 1,19,-1
 200 500 l 1,16,-1
200 700 m 1,20,-1
 300 700 l 1,21,-1
 300 500 l 1,22,-1
 200 500 l 1,23,-1
 200 700 l 1,20,-1
400 300 m 1,24,-1
 300 300 l 1,25,-1
 300 500 l 1,26,-1
 400 500 l 1,27,-1
 400 300 l 1,24,-1
400 700 m 1,28,-1
 300 700 l 1,29,-1
 300 800 l 1,30,-1
 400 800 l 1,31,-1
 400 700 l 1,28,-1
400 800 m 1,32,-1
 400 900 l 1,33,-1
 500 900 l 1,34,-1
 500 800 l 1,35,-1
 400 800 l 1,32,-1
100 800 m 1,36,-1
 100 900 l 1,37,-1
 300 900 l 1,38,-1
 300 800 l 1,39,-1
 100 800 l 1,36,-1
EndSplineSet
EndChar

StartChar: Adieresis
Encoding: 196 196 134
Width: 700
GlyphClass: 1
Flags: W
LayerCount: 2
Fore
SplineSet
0 -100 m 1,0,-1
 0 300 l 1,1,-1
 100 300 l 1,2,-1
 100 200 l 1,3,-1
 400 200 l 1,4,-1
 400 300 l 1,5,-1
 500 300 l 1,6,-1
 500 -100 l 1,7,-1
 400 -100 l 1,8,-1
 400 100 l 1,9,-1
 100 100 l 1,10,-1
 100 -100 l 1,11,-1
 0 -100 l 1,0,-1
200 500 m 1,12,-1
 200 300 l 1,13,-1
 100 300 l 1,14,-1
 100 500 l 1,15,-1
 200 500 l 1,12,-1
200 700 m 1,16,-1
 300 700 l 1,17,-1
 300 500 l 1,18,-1
 200 500 l 1,19,-1
 200 700 l 1,16,-1
200 900 m 1,20,-1
 200 800 l 1,21,-1
 100 800 l 1,22,-1
 100 900 l 1,23,-1
 200 900 l 1,20,-1
400 300 m 1,24,-1
 300 300 l 1,25,-1
 300 500 l 1,26,-1
 400 500 l 1,27,-1
 400 300 l 1,24,-1
400 900 m 1,28,-1
 400 800 l 1,29,-1
 300 800 l 1,30,-1
 300 900 l 1,31,-1
 400 900 l 1,28,-1
EndSplineSet
EndChar

StartChar: Aring
Encoding: 197 197 135
Width: 700
GlyphClass: 1
Flags: W
LayerCount: 2
Fore
SplineSet
0 -100 m 1,0,-1
 0 300 l 1,1,-1
 100 300 l 1,2,-1
 100 200 l 1,3,-1
 400 200 l 1,4,-1
 400 300 l 1,5,-1
 500 300 l 1,6,-1
 500 -100 l 1,7,-1
 400 -100 l 1,8,-1
 400 100 l 1,9,-1
 100 100 l 1,10,-1
 100 -100 l 1,11,-1
 0 -100 l 1,0,-1
200 500 m 1,12,-1
 200 300 l 1,13,-1
 100 300 l 1,14,-1
 100 500 l 1,15,-1
 200 500 l 1,12,-1
200 600 m 1,16,-1
 100 600 l 1,17,-1
 100 800 l 1,18,-1
 200 800 l 1,19,-1
 200 600 l 1,16,-1
200 800 m 1,20,-1
 200 900 l 1,21,-1
 300 900 l 1,22,-1
 300 800 l 1,23,-1
 200 800 l 1,20,-1
400 300 m 1,24,-1
 300 300 l 1,25,-1
 300 500 l 1,26,-1
 400 500 l 1,27,-1
 400 300 l 1,24,-1
400 600 m 1,28,-1
 300 600 l 1,29,-1
 300 800 l 1,30,-1
 400 800 l 1,31,-1
 400 600 l 1,28,-1
300 500 m 1,32,-1
 200 500 l 1,33,-1
 200 600 l 1,34,-1
 300 600 l 1,35,-1
 300 500 l 1,32,-1
EndSplineSet
EndChar

StartChar: AE
Encoding: 198 198 136
Width: 700
GlyphClass: 1
Flags: W
LayerCount: 2
Fore
SplineSet
0 -100 m 1,0,-1
 0 300 l 1,1,-1
 100 300 l 1,2,-1
 100 200 l 1,3,-1
 300 200 l 1,4,-1
 300 600 l 1,5,-1
 200 600 l 1,6,-1
 200 800 l 1,7,-1
 500 800 l 1,8,-1
 500 700 l 1,9,-1
 400 700 l 1,10,-1
 400 400 l 1,11,-1
 500 400 l 1,12,-1
 500 300 l 1,13,-1
 400 300 l 1,14,-1
 400 0 l 1,15,-1
 500 0 l 1,16,-1
 500 -100 l 1,17,-1
 300 -100 l 1,18,-1
 300 100 l 1,19,-1
 100 100 l 1,20,-1
 100 -100 l 1,21,-1
 0 -100 l 1,0,-1
100 300 m 1,22,-1
 100 600 l 1,23,-1
 200 600 l 1,24,-1
 200 300 l 1,25,-1
 100 300 l 1,22,-1
EndSplineSet
EndChar

StartChar: Ccedilla
Encoding: 199 199 137
Width: 700
GlyphClass: 1
Flags: W
LayerCount: 2
Fore
SplineSet
0 0 m 1,0,-1
 0 700 l 1,1,-1
 100 700 l 1,2,-1
 100 0 l 1,3,-1
 0 0 l 1,0,-1
100 0 m 1,4,-1
 400 0 l 1,5,-1
 400 -100 l 1,6,-1
 300 -100 l 1,7,-1
 300 -200 l 1,8,-1
 200 -200 l 1,9,-1
 200 -100 l 1,10,-1
 100 -100 l 1,11,-1
 100 0 l 1,4,-1
100 -200 m 1,12,-1
 200 -200 l 1,13,-1
 200 -300 l 1,14,-1
 100 -300 l 1,15,-1
 100 -200 l 1,12,-1
100 700 m 1,16,-1
 100 800 l 1,17,-1
 400 800 l 1,18,-1
 400 700 l 1,19,-1
 100 700 l 1,16,-1
400 200 m 1,20,-1
 500 200 l 1,21,-1
 500 0 l 1,22,-1
 400 0 l 1,23,-1
 400 200 l 1,20,-1
400 500 m 1,24,-1
 400 700 l 1,25,-1
 500 700 l 1,26,-1
 500 500 l 1,27,-1
 400 500 l 1,24,-1
EndSplineSet
EndChar

StartChar: Egrave
Encoding: 200 200 138
Width: 700
GlyphClass: 1
Flags: W
LayerCount: 2
Fore
SplineSet
0 -100 m 1,0,-1
 0 700 l 1,1,-1
 200 700 l 1,2,-1
 200 800 l 1,3,-1
 300 800 l 1,4,-1
 300 700 l 1,5,-1
 500 700 l 1,6,-1
 500 600 l 1,7,-1
 100 600 l 1,8,-1
 100 400 l 1,9,-1
 400 400 l 1,10,-1
 400 300 l 1,11,-1
 100 300 l 1,12,-1
 100 0 l 1,13,-1
 500 0 l 1,14,-1
 500 -100 l 1,15,-1
 0 -100 l 1,0,-1
100 800 m 1,16,-1
 100 900 l 1,17,-1
 200 900 l 1,18,-1
 200 800 l 1,19,-1
 100 800 l 1,16,-1
EndSplineSet
EndChar

StartChar: Eacute
Encoding: 201 201 139
Width: 700
GlyphClass: 1
Flags: W
LayerCount: 2
Fore
SplineSet
0 -100 m 1,0,-1
 0 700 l 1,1,-1
 200 700 l 1,2,-1
 200 800 l 1,3,-1
 300 800 l 1,4,-1
 300 700 l 1,5,-1
 500 700 l 1,6,-1
 500 600 l 1,7,-1
 100 600 l 1,8,-1
 100 400 l 1,9,-1
 400 400 l 1,10,-1
 400 300 l 1,11,-1
 100 300 l 1,12,-1
 100 0 l 1,13,-1
 500 0 l 1,14,-1
 500 -100 l 1,15,-1
 0 -100 l 1,0,-1
300 800 m 1,16,-1
 300 900 l 1,17,-1
 400 900 l 1,18,-1
 400 800 l 1,19,-1
 300 800 l 1,16,-1
EndSplineSet
EndChar

StartChar: Ecircumflex
Encoding: 202 202 140
Width: 700
GlyphClass: 1
Flags: W
LayerCount: 2
Fore
SplineSet
0 -100 m 1,0,-1
 0 700 l 1,1,-1
 100 700 l 1,2,-1
 100 800 l 1,3,-1
 200 800 l 1,4,-1
 200 700 l 1,5,-1
 300 700 l 1,6,-1
 300 800 l 1,7,-1
 400 800 l 1,8,-1
 400 700 l 1,9,-1
 500 700 l 1,10,-1
 500 600 l 1,11,-1
 100 600 l 1,12,-1
 100 400 l 1,13,-1
 400 400 l 1,14,-1
 400 300 l 1,15,-1
 100 300 l 1,16,-1
 100 0 l 1,17,-1
 500 0 l 1,18,-1
 500 -100 l 1,19,-1
 0 -100 l 1,0,-1
200 800 m 1,20,-1
 200 900 l 1,21,-1
 300 900 l 1,22,-1
 300 800 l 1,23,-1
 200 800 l 1,20,-1
EndSplineSet
EndChar

StartChar: Edieresis
Encoding: 203 203 141
Width: 700
GlyphClass: 1
Flags: W
LayerCount: 2
Fore
SplineSet
0 -100 m 1,0,-1
 0 700 l 1,1,-1
 500 700 l 1,2,-1
 500 600 l 1,3,-1
 100 600 l 1,4,-1
 100 400 l 1,5,-1
 400 400 l 1,6,-1
 400 300 l 1,7,-1
 100 300 l 1,8,-1
 100 0 l 1,9,-1
 500 0 l 1,10,-1
 500 -100 l 1,11,-1
 0 -100 l 1,0,-1
100 800 m 1,12,-1
 100 900 l 1,13,-1
 200 900 l 1,14,-1
 200 800 l 1,15,-1
 100 800 l 1,12,-1
300 800 m 1,16,-1
 300 900 l 1,17,-1
 400 900 l 1,18,-1
 400 800 l 1,19,-1
 300 800 l 1,16,-1
EndSplineSet
EndChar

StartChar: Igrave
Encoding: 204 204 142
Width: 500
GlyphClass: 1
Flags: W
LayerCount: 2
Fore
SplineSet
0 -100 m 1,0,-1
 0 0 l 1,1,-1
 100 0 l 1,2,-1
 100 600 l 1,3,-1
 0 600 l 1,4,-1
 0 700 l 1,5,-1
 100 700 l 1,6,-1
 100 800 l 1,7,-1
 200 800 l 1,8,-1
 200 700 l 1,9,-1
 300 700 l 1,10,-1
 300 600 l 1,11,-1
 200 600 l 1,12,-1
 200 0 l 1,13,-1
 300 0 l 1,14,-1
 300 -100 l 1,15,-1
 0 -100 l 1,0,-1
0 800 m 1,16,-1
 0 900 l 1,17,-1
 100 900 l 1,18,-1
 100 800 l 1,19,-1
 0 800 l 1,16,-1
EndSplineSet
EndChar

StartChar: Iacute
Encoding: 205 205 143
Width: 500
GlyphClass: 1
Flags: W
LayerCount: 2
Fore
SplineSet
0 -100 m 1,0,-1
 0 0 l 1,1,-1
 100 0 l 1,2,-1
 100 600 l 1,3,-1
 0 600 l 1,4,-1
 0 800 l 1,5,-1
 100 800 l 1,6,-1
 100 700 l 1,7,-1
 300 700 l 1,8,-1
 300 600 l 1,9,-1
 200 600 l 1,10,-1
 200 0 l 1,11,-1
 300 0 l 1,12,-1
 300 -100 l 1,13,-1
 0 -100 l 1,0,-1
100 800 m 1,14,-1
 100 900 l 1,15,-1
 200 900 l 1,16,-1
 200 800 l 1,17,-1
 100 800 l 1,14,-1
EndSplineSet
EndChar

StartChar: Icircumflex
Encoding: 206 206 144
Width: 500
GlyphClass: 1
Flags: W
LayerCount: 2
Fore
SplineSet
0 -100 m 1,0,-1
 0 0 l 1,1,-1
 100 0 l 1,2,-1
 100 600 l 1,3,-1
 0 600 l 1,4,-1
 0 800 l 1,5,-1
 100 800 l 1,6,-1
 100 700 l 1,7,-1
 200 700 l 1,8,-1
 200 800 l 1,9,-1
 300 800 l 1,10,-1
 300 600 l 1,11,-1
 200 600 l 1,12,-1
 200 0 l 1,13,-1
 300 0 l 1,14,-1
 300 -100 l 1,15,-1
 0 -100 l 1,0,-1
100 800 m 1,16,-1
 100 900 l 1,17,-1
 200 900 l 1,18,-1
 200 800 l 1,19,-1
 100 800 l 1,16,-1
EndSplineSet
EndChar

StartChar: Idieresis
Encoding: 207 207 145
Width: 500
GlyphClass: 1
Flags: W
LayerCount: 2
Fore
SplineSet
0 -100 m 1,0,-1
 0 0 l 1,1,-1
 100 0 l 1,2,-1
 100 600 l 1,3,-1
 0 600 l 1,4,-1
 0 700 l 1,5,-1
 300 700 l 1,6,-1
 300 600 l 1,7,-1
 200 600 l 1,8,-1
 200 0 l 1,9,-1
 300 0 l 1,10,-1
 300 -100 l 1,11,-1
 0 -100 l 1,0,-1
0 800 m 1,12,-1
 0 900 l 1,13,-1
 100 900 l 1,14,-1
 100 800 l 1,15,-1
 0 800 l 1,12,-1
200 800 m 1,16,-1
 200 900 l 1,17,-1
 300 900 l 1,18,-1
 300 800 l 1,19,-1
 200 800 l 1,16,-1
EndSplineSet
EndChar

StartChar: Eth
Encoding: 208 208 146
Width: 700
GlyphClass: 1
Flags: W
LayerCount: 2
Fore
SplineSet
0 -100 m 1,0,-1
 0 800 l 1,1,-1
 300 800 l 1,2,-1
 300 700 l 1,3,-1
 100 700 l 1,4,-1
 100 400 l 1,5,-1
 300 400 l 1,6,-1
 300 300 l 1,7,-1
 100 300 l 1,8,-1
 100 0 l 1,9,-1
 300 0 l 1,10,-1
 300 -100 l 1,11,-1
 0 -100 l 1,0,-1
300 0 m 1,12,-1
 300 100 l 1,13,-1
 400 100 l 1,14,-1
 400 0 l 1,15,-1
 300 0 l 1,12,-1
300 700 m 1,16,-1
 400 700 l 1,17,-1
 400 600 l 1,18,-1
 300 600 l 1,19,-1
 300 700 l 1,16,-1
400 100 m 1,20,-1
 400 600 l 1,21,-1
 500 600 l 1,22,-1
 500 100 l 1,23,-1
 400 100 l 1,20,-1
EndSplineSet
EndChar

StartChar: Ntilde
Encoding: 209 209 147
Width: 700
GlyphClass: 1
Flags: W
LayerCount: 2
Fore
SplineSet
0 -100 m 1,0,-1
 0 800 l 1,1,-1
 100 800 l 1,2,-1
 100 700 l 1,3,-1
 200 700 l 1,4,-1
 200 500 l 1,5,-1
 100 500 l 1,6,-1
 100 -100 l 1,7,-1
 0 -100 l 1,0,-1
200 200 m 1,8,-1
 200 500 l 1,9,-1
 300 500 l 1,10,-1
 300 200 l 1,11,-1
 200 200 l 1,8,-1
400 0 m 1,12,-1
 300 0 l 1,13,-1
 300 200 l 1,14,-1
 400 200 l 1,15,-1
 400 700 l 1,16,-1
 500 700 l 1,17,-1
 500 -100 l 1,18,-1
 400 -100 l 1,19,-1
 400 0 l 1,12,-1
400 700 m 1,20,-1
 300 700 l 1,21,-1
 300 800 l 1,22,-1
 400 800 l 1,23,-1
 400 700 l 1,20,-1
400 800 m 1,24,-1
 400 900 l 1,25,-1
 500 900 l 1,26,-1
 500 800 l 1,27,-1
 400 800 l 1,24,-1
100 800 m 1,28,-1
 100 900 l 1,29,-1
 300 900 l 1,30,-1
 300 800 l 1,31,-1
 100 800 l 1,28,-1
EndSplineSet
EndChar

StartChar: Ograve
Encoding: 210 210 148
Width: 700
GlyphClass: 1
Flags: W
LayerCount: 2
Fore
SplineSet
0 0 m 1,0,-1
 0 600 l 1,1,-1
 100 600 l 1,2,-1
 100 0 l 1,3,-1
 0 0 l 1,0,-1
100 0 m 1,4,-1
 400 0 l 1,5,-1
 400 -100 l 1,6,-1
 100 -100 l 1,7,-1
 100 0 l 1,4,-1
100 600 m 1,8,-1
 100 700 l 1,9,-1
 200 700 l 1,10,-1
 200 800 l 1,11,-1
 300 800 l 1,12,-1
 300 700 l 1,13,-1
 400 700 l 1,14,-1
 400 600 l 1,15,-1
 100 600 l 1,8,-1
100 800 m 1,16,-1
 100 900 l 1,17,-1
 200 900 l 1,18,-1
 200 800 l 1,19,-1
 100 800 l 1,16,-1
400 0 m 1,20,-1
 400 600 l 1,21,-1
 500 600 l 1,22,-1
 500 0 l 1,23,-1
 400 0 l 1,20,-1
EndSplineSet
EndChar

StartChar: Oacute
Encoding: 211 211 149
Width: 700
GlyphClass: 1
Flags: W
LayerCount: 2
Fore
SplineSet
0 0 m 1,0,-1
 0 600 l 1,1,-1
 100 600 l 1,2,-1
 100 0 l 1,3,-1
 0 0 l 1,0,-1
100 0 m 1,4,-1
 400 0 l 1,5,-1
 400 -100 l 1,6,-1
 100 -100 l 1,7,-1
 100 0 l 1,4,-1
100 600 m 1,8,-1
 100 800 l 1,9,-1
 200 800 l 1,10,-1
 200 700 l 1,11,-1
 400 700 l 1,12,-1
 400 600 l 1,13,-1
 100 600 l 1,8,-1
200 800 m 1,14,-1
 200 900 l 1,15,-1
 300 900 l 1,16,-1
 300 800 l 1,17,-1
 200 800 l 1,14,-1
400 0 m 1,18,-1
 400 600 l 1,19,-1
 500 600 l 1,20,-1
 500 0 l 1,21,-1
 400 0 l 1,18,-1
EndSplineSet
EndChar

StartChar: Ocircumflex
Encoding: 212 212 150
Width: 700
GlyphClass: 1
Flags: W
LayerCount: 2
Fore
SplineSet
0 0 m 1,0,-1
 0 600 l 1,1,-1
 100 600 l 1,2,-1
 100 0 l 1,3,-1
 0 0 l 1,0,-1
100 0 m 1,4,-1
 400 0 l 1,5,-1
 400 -100 l 1,6,-1
 100 -100 l 1,7,-1
 100 0 l 1,4,-1
100 600 m 1,8,-1
 100 800 l 1,9,-1
 200 800 l 1,10,-1
 200 700 l 1,11,-1
 300 700 l 1,12,-1
 300 800 l 1,13,-1
 400 800 l 1,14,-1
 400 600 l 1,15,-1
 100 600 l 1,8,-1
200 800 m 1,16,-1
 200 900 l 1,17,-1
 300 900 l 1,18,-1
 300 800 l 1,19,-1
 200 800 l 1,16,-1
400 0 m 1,20,-1
 400 600 l 1,21,-1
 500 600 l 1,22,-1
 500 0 l 1,23,-1
 400 0 l 1,20,-1
EndSplineSet
EndChar

StartChar: Otilde
Encoding: 213 213 151
Width: 700
GlyphClass: 1
Flags: W
LayerCount: 2
Fore
SplineSet
0 0 m 1,0,-1
 0 600 l 1,1,-1
 100 600 l 1,2,-1
 100 0 l 1,3,-1
 0 0 l 1,0,-1
0 700 m 1,4,-1
 0 800 l 1,5,-1
 100 800 l 1,6,-1
 100 700 l 1,7,-1
 0 700 l 1,4,-1
100 0 m 1,8,-1
 400 0 l 1,9,-1
 400 -100 l 1,10,-1
 100 -100 l 1,11,-1
 100 0 l 1,8,-1
100 700 m 1,12,-1
 300 700 l 1,13,-1
 300 800 l 1,14,-1
 400 800 l 1,15,-1
 400 600 l 1,16,-1
 100 600 l 1,17,-1
 100 700 l 1,12,-1
100 800 m 1,18,-1
 100 900 l 1,19,-1
 300 900 l 1,20,-1
 300 800 l 1,21,-1
 100 800 l 1,18,-1
400 0 m 1,22,-1
 400 600 l 1,23,-1
 500 600 l 1,24,-1
 500 0 l 1,25,-1
 400 0 l 1,22,-1
400 800 m 1,26,-1
 400 900 l 1,27,-1
 500 900 l 1,28,-1
 500 800 l 1,29,-1
 400 800 l 1,26,-1
EndSplineSet
EndChar

StartChar: Odieresis
Encoding: 214 214 152
Width: 700
GlyphClass: 1
Flags: W
LayerCount: 2
Fore
SplineSet
0 0 m 1,0,-1
 0 600 l 1,1,-1
 100 600 l 1,2,-1
 100 0 l 1,3,-1
 0 0 l 1,0,-1
100 0 m 1,4,-1
 400 0 l 1,5,-1
 400 -100 l 1,6,-1
 100 -100 l 1,7,-1
 100 0 l 1,4,-1
100 600 m 1,8,-1
 100 700 l 1,9,-1
 400 700 l 1,10,-1
 400 600 l 1,11,-1
 100 600 l 1,8,-1
100 800 m 1,12,-1
 100 900 l 1,13,-1
 200 900 l 1,14,-1
 200 800 l 1,15,-1
 100 800 l 1,12,-1
300 800 m 1,16,-1
 300 900 l 1,17,-1
 400 900 l 1,18,-1
 400 800 l 1,19,-1
 300 800 l 1,16,-1
400 0 m 1,20,-1
 400 600 l 1,21,-1
 500 600 l 1,22,-1
 500 0 l 1,23,-1
 400 0 l 1,20,-1
EndSplineSet
EndChar

StartChar: multiply
Encoding: 215 215 153
Width: 900
GlyphClass: 1
Flags: W
LayerCount: 2
Fore
SplineSet
0 0 m 1,0,-1
 0 100 l 1,1,-1
 100 100 l 1,2,-1
 100 0 l 1,3,-1
 0 0 l 1,0,-1
0 600 m 1,4,-1
 0 700 l 1,5,-1
 100 700 l 1,6,-1
 100 600 l 1,7,-1
 0 600 l 1,4,-1
200 200 m 1,8,-1
 200 100 l 1,9,-1
 100 100 l 1,10,-1
 100 200 l 1,11,-1
 200 200 l 1,8,-1
200 500 m 1,12,-1
 100 500 l 1,13,-1
 100 600 l 1,14,-1
 200 600 l 1,15,-1
 200 500 l 1,12,-1
200 400 m 1,16,-1
 200 500 l 1,17,-1
 300 500 l 1,18,-1
 300 400 l 1,19,-1
 200 400 l 1,16,-1
200 300 m 1,20,-1
 300 300 l 1,21,-1
 300 200 l 1,22,-1
 200 200 l 1,23,-1
 200 300 l 1,20,-1
400 200 m 1,24,-1
 400 300 l 1,25,-1
 500 300 l 1,26,-1
 500 200 l 1,27,-1
 400 200 l 1,24,-1
400 400 m 1,28,-1
 400 500 l 1,29,-1
 500 500 l 1,30,-1
 500 400 l 1,31,-1
 400 400 l 1,28,-1
400 300 m 1,32,-1
 300 300 l 1,33,-1
 300 400 l 1,34,-1
 400 400 l 1,35,-1
 400 300 l 1,32,-1
600 200 m 1,36,-1
 600 100 l 1,37,-1
 500 100 l 1,38,-1
 500 200 l 1,39,-1
 600 200 l 1,36,-1
600 100 m 1,40,-1
 700 100 l 1,41,-1
 700 0 l 1,42,-1
 600 0 l 1,43,-1
 600 100 l 1,40,-1
600 500 m 1,44,-1
 500 500 l 1,45,-1
 500 600 l 1,46,-1
 600 600 l 1,47,-1
 600 500 l 1,44,-1
600 600 m 1,48,-1
 600 700 l 1,49,-1
 700 700 l 1,50,-1
 700 600 l 1,51,-1
 600 600 l 1,48,-1
EndSplineSet
EndChar

StartChar: Oslash
Encoding: 216 216 154
Width: 700
GlyphClass: 1
Flags: W
LayerCount: 2
Fore
SplineSet
0 0 m 1,0,-1
 0 700 l 1,1,-1
 100 700 l 1,2,-1
 100 0 l 1,3,-1
 0 0 l 1,0,-1
100 0 m 1,4,-1
 200 0 l 1,5,-1
 200 700 l 1,6,-1
 100 700 l 1,7,-1
 100 800 l 1,8,-1
 300 800 l 1,9,-1
 300 900 l 1,10,-1
 400 900 l 1,11,-1
 400 700 l 1,12,-1
 300 700 l 1,13,-1
 300 0 l 1,14,-1
 400 0 l 1,15,-1
 400 -100 l 1,16,-1
 200 -100 l 1,17,-1
 200 -200 l 1,18,-1
 100 -200 l 1,19,-1
 100 0 l 1,4,-1
400 0 m 1,20,-1
 400 700 l 1,21,-1
 500 700 l 1,22,-1
 500 0 l 1,23,-1
 400 0 l 1,20,-1
EndSplineSet
EndChar

StartChar: Ugrave
Encoding: 217 217 155
Width: 700
GlyphClass: 1
Flags: W
LayerCount: 2
Fore
SplineSet
0 0 m 1,0,-1
 0 700 l 1,1,-1
 100 700 l 1,2,-1
 100 0 l 1,3,-1
 0 0 l 1,0,-1
100 0 m 1,4,-1
 400 0 l 1,5,-1
 400 -100 l 1,6,-1
 100 -100 l 1,7,-1
 100 0 l 1,4,-1
100 800 m 1,8,-1
 100 900 l 1,9,-1
 200 900 l 1,10,-1
 200 800 l 1,11,-1
 100 800 l 1,8,-1
200 700 m 1,12,-1
 200 800 l 1,13,-1
 300 800 l 1,14,-1
 300 700 l 1,15,-1
 200 700 l 1,12,-1
400 0 m 1,16,-1
 400 700 l 1,17,-1
 500 700 l 1,18,-1
 500 0 l 1,19,-1
 400 0 l 1,16,-1
EndSplineSet
EndChar

StartChar: Uacute
Encoding: 218 218 156
Width: 700
GlyphClass: 1
Flags: W
LayerCount: 2
Fore
SplineSet
0 0 m 1,0,-1
 0 700 l 1,1,-1
 100 700 l 1,2,-1
 100 0 l 1,3,-1
 0 0 l 1,0,-1
100 0 m 1,4,-1
 400 0 l 1,5,-1
 400 -100 l 1,6,-1
 100 -100 l 1,7,-1
 100 0 l 1,4,-1
200 700 m 1,8,-1
 200 800 l 1,9,-1
 300 800 l 1,10,-1
 300 700 l 1,11,-1
 200 700 l 1,8,-1
300 800 m 1,12,-1
 300 900 l 1,13,-1
 400 900 l 1,14,-1
 400 800 l 1,15,-1
 300 800 l 1,12,-1
400 0 m 1,16,-1
 400 700 l 1,17,-1
 500 700 l 1,18,-1
 500 0 l 1,19,-1
 400 0 l 1,16,-1
EndSplineSet
EndChar

StartChar: Ucircumflex
Encoding: 219 219 157
Width: 700
GlyphClass: 1
Flags: W
LayerCount: 2
Fore
SplineSet
0 0 m 1,0,-1
 0 700 l 1,1,-1
 100 700 l 1,2,-1
 100 0 l 1,3,-1
 0 0 l 1,0,-1
100 0 m 1,4,-1
 400 0 l 1,5,-1
 400 -100 l 1,6,-1
 100 -100 l 1,7,-1
 100 0 l 1,4,-1
100 700 m 1,8,-1
 100 800 l 1,9,-1
 200 800 l 1,10,-1
 200 700 l 1,11,-1
 100 700 l 1,8,-1
200 800 m 1,12,-1
 200 900 l 1,13,-1
 300 900 l 1,14,-1
 300 800 l 1,15,-1
 200 800 l 1,12,-1
300 700 m 1,16,-1
 300 800 l 1,17,-1
 400 800 l 1,18,-1
 400 700 l 1,19,-1
 300 700 l 1,16,-1
400 0 m 1,20,-1
 400 700 l 1,21,-1
 500 700 l 1,22,-1
 500 0 l 1,23,-1
 400 0 l 1,20,-1
EndSplineSet
EndChar

StartChar: Udieresis
Encoding: 220 220 158
Width: 700
GlyphClass: 1
Flags: W
LayerCount: 2
Fore
SplineSet
0 0 m 1,0,-1
 0 700 l 1,1,-1
 100 700 l 1,2,-1
 100 0 l 1,3,-1
 0 0 l 1,0,-1
100 0 m 1,4,-1
 400 0 l 1,5,-1
 400 -100 l 1,6,-1
 100 -100 l 1,7,-1
 100 0 l 1,4,-1
100 800 m 1,8,-1
 100 900 l 1,9,-1
 200 900 l 1,10,-1
 200 800 l 1,11,-1
 100 800 l 1,8,-1
300 800 m 1,12,-1
 300 900 l 1,13,-1
 400 900 l 1,14,-1
 400 800 l 1,15,-1
 300 800 l 1,12,-1
400 0 m 1,16,-1
 400 700 l 1,17,-1
 500 700 l 1,18,-1
 500 0 l 1,19,-1
 400 0 l 1,16,-1
EndSplineSet
EndChar

StartChar: Yacute
Encoding: 221 221 159
Width: 700
GlyphClass: 1
Flags: W
LayerCount: 2
Fore
SplineSet
0 500 m 1,0,-1
 0 700 l 1,1,-1
 100 700 l 1,2,-1
 100 500 l 1,3,-1
 0 500 l 1,0,-1
100 500 m 1,4,-1
 200 500 l 1,5,-1
 200 300 l 1,6,-1
 100 300 l 1,7,-1
 100 500 l 1,4,-1
200 -100 m 1,8,-1
 200 300 l 1,9,-1
 300 300 l 1,10,-1
 300 -100 l 1,11,-1
 200 -100 l 1,8,-1
200 700 m 1,12,-1
 200 800 l 1,13,-1
 300 800 l 1,14,-1
 300 700 l 1,15,-1
 200 700 l 1,12,-1
300 500 m 1,16,-1
 400 500 l 1,17,-1
 400 300 l 1,18,-1
 300 300 l 1,19,-1
 300 500 l 1,16,-1
300 800 m 1,20,-1
 300 900 l 1,21,-1
 400 900 l 1,22,-1
 400 800 l 1,23,-1
 300 800 l 1,20,-1
400 500 m 1,24,-1
 400 700 l 1,25,-1
 500 700 l 1,26,-1
 500 500 l 1,27,-1
 400 500 l 1,24,-1
EndSplineSet
EndChar

StartChar: Thorn
Encoding: 222 222 160
Width: 700
GlyphClass: 1
Flags: W
LayerCount: 2
Fore
SplineSet
0 -100 m 1,0,-1
 0 800 l 1,1,-1
 100 800 l 1,2,-1
 100 500 l 1,3,-1
 400 500 l 1,4,-1
 400 400 l 1,5,-1
 100 400 l 1,6,-1
 100 100 l 1,7,-1
 400 100 l 1,8,-1
 400 0 l 1,9,-1
 100 0 l 1,10,-1
 100 -100 l 1,11,-1
 0 -100 l 1,0,-1
400 100 m 1,12,-1
 400 400 l 1,13,-1
 500 400 l 1,14,-1
 500 100 l 1,15,-1
 400 100 l 1,12,-1
EndSplineSet
EndChar

StartChar: germandbls
Encoding: 223 223 161
Width: 700
GlyphClass: 1
Flags: W
LayerCount: 2
Fore
SplineSet
0 -100 m 1,0,-1
 0 700 l 1,1,-1
 100 700 l 1,2,-1
 100 100 l 1,3,-1
 200 100 l 1,4,-1
 200 0 l 1,5,-1
 100 0 l 1,6,-1
 100 -100 l 1,7,-1
 0 -100 l 1,0,-1
100 700 m 1,8,-1
 100 800 l 1,9,-1
 300 800 l 1,10,-1
 300 700 l 1,11,-1
 100 700 l 1,8,-1
200 0 m 1,12,-1
 400 0 l 1,13,-1
 400 -100 l 1,14,-1
 200 -100 l 1,15,-1
 200 0 l 1,12,-1
200 300 m 1,16,-1
 200 400 l 1,17,-1
 300 400 l 1,18,-1
 300 700 l 1,19,-1
 400 700 l 1,20,-1
 400 300 l 1,21,-1
 200 300 l 1,16,-1
400 0 m 1,22,-1
 400 300 l 1,23,-1
 500 300 l 1,24,-1
 500 0 l 1,25,-1
 400 0 l 1,22,-1
EndSplineSet
EndChar

StartChar: agrave
Encoding: 224 224 162
Width: 700
GlyphClass: 1
Flags: W
LayerCount: 2
Fore
SplineSet
0 200 m 1,0,-1
 100 200 l 1,1,-1
 100 0 l 1,2,-1
 0 0 l 1,3,-1
 0 200 l 1,0,-1
0 300 m 1,4,-1
 0 400 l 1,5,-1
 100 400 l 1,6,-1
 100 300 l 1,7,-1
 0 300 l 1,4,-1
200 700 m 1,8,-1
 100 700 l 1,9,-1
 100 800 l 1,10,-1
 200 800 l 1,11,-1
 200 700 l 1,8,-1
200 600 m 1,12,-1
 200 700 l 1,13,-1
 300 700 l 1,14,-1
 300 600 l 1,15,-1
 200 600 l 1,12,-1
400 0 m 1,16,-1
 500 0 l 1,17,-1
 500 -100 l 1,18,-1
 400 -100 l 1,19,-1
 400 0 l 1,16,-1
400 400 m 1,20,-1
 400 0 l 1,21,-1
 300 0 l 1,22,-1
 300 200 l 1,23,-1
 100 200 l 1,24,-1
 100 300 l 1,25,-1
 300 300 l 1,26,-1
 300 400 l 1,27,-1
 400 400 l 1,20,-1
100 0 m 1,28,-1
 300 0 l 1,29,-1
 300 -100 l 1,30,-1
 100 -100 l 1,31,-1
 100 0 l 1,28,-1
100 400 m 1,32,-1
 100 500 l 1,33,-1
 300 500 l 1,34,-1
 300 400 l 1,35,-1
 100 400 l 1,32,-1
EndSplineSet
EndChar

StartChar: aacute
Encoding: 225 225 163
Width: 700
GlyphClass: 1
Flags: W
LayerCount: 2
Fore
SplineSet
0 200 m 1,0,-1
 100 200 l 1,1,-1
 100 0 l 1,2,-1
 0 0 l 1,3,-1
 0 200 l 1,0,-1
0 300 m 1,4,-1
 0 400 l 1,5,-1
 100 400 l 1,6,-1
 100 300 l 1,7,-1
 0 300 l 1,4,-1
200 700 m 1,8,-1
 200 600 l 1,9,-1
 100 600 l 1,10,-1
 100 700 l 1,11,-1
 200 700 l 1,8,-1
200 800 m 1,12,-1
 300 800 l 1,13,-1
 300 700 l 1,14,-1
 200 700 l 1,15,-1
 200 800 l 1,12,-1
400 0 m 1,16,-1
 500 0 l 1,17,-1
 500 -100 l 1,18,-1
 400 -100 l 1,19,-1
 400 0 l 1,16,-1
400 400 m 1,20,-1
 400 0 l 1,21,-1
 300 0 l 1,22,-1
 300 200 l 1,23,-1
 100 200 l 1,24,-1
 100 300 l 1,25,-1
 300 300 l 1,26,-1
 300 400 l 1,27,-1
 400 400 l 1,20,-1
100 0 m 1,28,-1
 300 0 l 1,29,-1
 300 -100 l 1,30,-1
 100 -100 l 1,31,-1
 100 0 l 1,28,-1
100 400 m 1,32,-1
 100 500 l 1,33,-1
 300 500 l 1,34,-1
 300 400 l 1,35,-1
 100 400 l 1,32,-1
EndSplineSet
EndChar

StartChar: acircumflex
Encoding: 226 226 164
Width: 700
GlyphClass: 1
Flags: W
LayerCount: 2
Fore
SplineSet
0 200 m 1,0,-1
 100 200 l 1,1,-1
 100 0 l 1,2,-1
 0 0 l 1,3,-1
 0 200 l 1,0,-1
0 300 m 1,4,-1
 0 400 l 1,5,-1
 100 400 l 1,6,-1
 100 300 l 1,7,-1
 0 300 l 1,4,-1
200 700 m 1,8,-1
 200 600 l 1,9,-1
 100 600 l 1,10,-1
 100 700 l 1,11,-1
 200 700 l 1,8,-1
200 800 m 1,12,-1
 300 800 l 1,13,-1
 300 700 l 1,14,-1
 200 700 l 1,15,-1
 200 800 l 1,12,-1
400 0 m 1,16,-1
 500 0 l 1,17,-1
 500 -100 l 1,18,-1
 400 -100 l 1,19,-1
 400 0 l 1,16,-1
400 400 m 1,20,-1
 400 0 l 1,21,-1
 300 0 l 1,22,-1
 300 200 l 1,23,-1
 100 200 l 1,24,-1
 100 300 l 1,25,-1
 300 300 l 1,26,-1
 300 400 l 1,27,-1
 400 400 l 1,20,-1
400 700 m 1,28,-1
 400 600 l 1,29,-1
 300 600 l 1,30,-1
 300 700 l 1,31,-1
 400 700 l 1,28,-1
100 0 m 1,32,-1
 300 0 l 1,33,-1
 300 -100 l 1,34,-1
 100 -100 l 1,35,-1
 100 0 l 1,32,-1
100 400 m 1,36,-1
 100 500 l 1,37,-1
 300 500 l 1,38,-1
 300 400 l 1,39,-1
 100 400 l 1,36,-1
EndSplineSet
EndChar

StartChar: atilde
Encoding: 227 227 165
Width: 700
GlyphClass: 1
Flags: W
LayerCount: 2
Fore
SplineSet
0 200 m 1,0,-1
 100 200 l 1,1,-1
 100 0 l 1,2,-1
 0 0 l 1,3,-1
 0 200 l 1,0,-1
0 300 m 1,4,-1
 0 400 l 1,5,-1
 100 400 l 1,6,-1
 100 300 l 1,7,-1
 0 300 l 1,4,-1
0 600 m 1,8,-1
 0 700 l 1,9,-1
 100 700 l 1,10,-1
 100 600 l 1,11,-1
 0 600 l 1,8,-1
400 0 m 1,12,-1
 500 0 l 1,13,-1
 500 -100 l 1,14,-1
 400 -100 l 1,15,-1
 400 0 l 1,12,-1
400 400 m 1,16,-1
 400 0 l 1,17,-1
 300 0 l 1,18,-1
 300 200 l 1,19,-1
 100 200 l 1,20,-1
 100 300 l 1,21,-1
 300 300 l 1,22,-1
 300 400 l 1,23,-1
 400 400 l 1,16,-1
400 700 m 1,24,-1
 400 600 l 1,25,-1
 300 600 l 1,26,-1
 300 700 l 1,27,-1
 400 700 l 1,24,-1
400 800 m 1,28,-1
 500 800 l 1,29,-1
 500 700 l 1,30,-1
 400 700 l 1,31,-1
 400 800 l 1,28,-1
100 0 m 1,32,-1
 300 0 l 1,33,-1
 300 -100 l 1,34,-1
 100 -100 l 1,35,-1
 100 0 l 1,32,-1
100 400 m 1,36,-1
 100 500 l 1,37,-1
 300 500 l 1,38,-1
 300 400 l 1,39,-1
 100 400 l 1,36,-1
100 700 m 1,40,-1
 100 800 l 1,41,-1
 300 800 l 1,42,-1
 300 700 l 1,43,-1
 100 700 l 1,40,-1
EndSplineSet
EndChar

StartChar: adieresis
Encoding: 228 228 166
Width: 700
GlyphClass: 1
Flags: W
LayerCount: 2
Fore
SplineSet
0 200 m 1,0,-1
 100 200 l 1,1,-1
 100 0 l 1,2,-1
 0 0 l 1,3,-1
 0 200 l 1,0,-1
0 300 m 1,4,-1
 0 400 l 1,5,-1
 100 400 l 1,6,-1
 100 300 l 1,7,-1
 0 300 l 1,4,-1
200 700 m 1,8,-1
 200 600 l 1,9,-1
 100 600 l 1,10,-1
 100 700 l 1,11,-1
 200 700 l 1,8,-1
400 0 m 1,12,-1
 500 0 l 1,13,-1
 500 -100 l 1,14,-1
 400 -100 l 1,15,-1
 400 0 l 1,12,-1
400 400 m 1,16,-1
 400 0 l 1,17,-1
 300 0 l 1,18,-1
 300 200 l 1,19,-1
 100 200 l 1,20,-1
 100 300 l 1,21,-1
 300 300 l 1,22,-1
 300 400 l 1,23,-1
 400 400 l 1,16,-1
400 700 m 1,24,-1
 400 600 l 1,25,-1
 300 600 l 1,26,-1
 300 700 l 1,27,-1
 400 700 l 1,24,-1
100 0 m 1,28,-1
 300 0 l 1,29,-1
 300 -100 l 1,30,-1
 100 -100 l 1,31,-1
 100 0 l 1,28,-1
100 400 m 1,32,-1
 100 500 l 1,33,-1
 300 500 l 1,34,-1
 300 400 l 1,35,-1
 100 400 l 1,32,-1
EndSplineSet
EndChar

StartChar: aring
Encoding: 229 229 167
Width: 700
GlyphClass: 1
Flags: W
LayerCount: 2
Fore
SplineSet
0 200 m 1,0,-1
 100 200 l 1,1,-1
 100 0 l 1,2,-1
 0 0 l 1,3,-1
 0 200 l 1,0,-1
0 300 m 1,4,-1
 0 400 l 1,5,-1
 100 400 l 1,6,-1
 100 300 l 1,7,-1
 0 300 l 1,4,-1
0 500 m 1,8,-1
 0 700 l 1,9,-1
 100 700 l 1,10,-1
 100 500 l 1,11,-1
 0 500 l 1,8,-1
400 0 m 1,12,-1
 500 0 l 1,13,-1
 500 -100 l 1,14,-1
 400 -100 l 1,15,-1
 400 0 l 1,12,-1
400 500 m 1,16,-1
 300 500 l 1,17,-1
 300 700 l 1,18,-1
 400 700 l 1,19,-1
 400 500 l 1,16,-1
400 400 m 1,20,-1
 400 0 l 1,21,-1
 300 0 l 1,22,-1
 300 200 l 1,23,-1
 100 200 l 1,24,-1
 100 300 l 1,25,-1
 300 300 l 1,26,-1
 300 400 l 1,27,-1
 400 400 l 1,20,-1
100 0 m 1,28,-1
 300 0 l 1,29,-1
 300 -100 l 1,30,-1
 100 -100 l 1,31,-1
 100 0 l 1,28,-1
100 500 m 1,32,-1
 300 500 l 1,33,-1
 300 400 l 1,34,-1
 100 400 l 1,35,-1
 100 500 l 1,32,-1
100 700 m 1,36,-1
 100 800 l 1,37,-1
 300 800 l 1,38,-1
 300 700 l 1,39,-1
 100 700 l 1,36,-1
EndSplineSet
EndChar

StartChar: ae
Encoding: 230 230 168
Width: 700
GlyphClass: 1
Flags: W
LayerCount: 2
Fore
SplineSet
0 200 m 1,0,-1
 100 200 l 1,1,-1
 100 0 l 1,2,-1
 0 0 l 1,3,-1
 0 200 l 1,0,-1
0 300 m 1,4,-1
 0 400 l 1,5,-1
 100 400 l 1,6,-1
 100 300 l 1,7,-1
 0 300 l 1,4,-1
200 200 m 1,8,-1
 100 200 l 1,9,-1
 100 300 l 1,10,-1
 200 300 l 1,11,-1
 200 400 l 1,12,-1
 100 400 l 1,13,-1
 100 500 l 1,14,-1
 400 500 l 1,15,-1
 400 400 l 1,16,-1
 300 400 l 1,17,-1
 300 300 l 1,18,-1
 400 300 l 1,19,-1
 400 400 l 1,20,-1
 500 400 l 1,21,-1
 500 200 l 1,22,-1
 300 200 l 1,23,-1
 300 0 l 1,24,-1
 200 0 l 1,25,-1
 200 200 l 1,8,-1
200 0 m 1,26,-1
 200 -100 l 1,27,-1
 100 -100 l 1,28,-1
 100 0 l 1,29,-1
 200 0 l 1,26,-1
400 0 m 1,30,-1
 400 100 l 1,31,-1
 500 100 l 1,32,-1
 500 0 l 1,33,-1
 400 0 l 1,30,-1
400 -100 m 1,34,-1
 300 -100 l 1,35,-1
 300 0 l 1,36,-1
 400 0 l 1,37,-1
 400 -100 l 1,34,-1
EndSplineSet
EndChar

StartChar: ccedilla
Encoding: 231 231 169
Width: 700
GlyphClass: 1
Flags: W
LayerCount: 2
Fore
SplineSet
0 0 m 1,0,-1
 0 400 l 1,1,-1
 100 400 l 1,2,-1
 100 0 l 1,3,-1
 0 0 l 1,0,-1
100 0 m 1,4,-1
 400 0 l 1,5,-1
 400 -100 l 1,6,-1
 300 -100 l 1,7,-1
 300 -200 l 1,8,-1
 200 -200 l 1,9,-1
 200 -100 l 1,10,-1
 100 -100 l 1,11,-1
 100 0 l 1,4,-1
100 -200 m 1,12,-1
 200 -200 l 1,13,-1
 200 -300 l 1,14,-1
 100 -300 l 1,15,-1
 100 -200 l 1,12,-1
100 400 m 1,16,-1
 100 500 l 1,17,-1
 400 500 l 1,18,-1
 400 400 l 1,19,-1
 100 400 l 1,16,-1
400 0 m 1,20,-1
 400 100 l 1,21,-1
 500 100 l 1,22,-1
 500 0 l 1,23,-1
 400 0 l 1,20,-1
400 400 m 1,24,-1
 500 400 l 1,25,-1
 500 300 l 1,26,-1
 400 300 l 1,27,-1
 400 400 l 1,24,-1
EndSplineSet
EndChar

StartChar: egrave
Encoding: 232 232 170
Width: 700
GlyphClass: 1
Flags: W
LayerCount: 2
Fore
SplineSet
0 0 m 1,0,-1
 0 400 l 1,1,-1
 100 400 l 1,2,-1
 100 300 l 1,3,-1
 400 300 l 1,4,-1
 400 400 l 1,5,-1
 500 400 l 1,6,-1
 500 200 l 1,7,-1
 100 200 l 1,8,-1
 100 0 l 1,9,-1
 0 0 l 1,0,-1
200 700 m 1,10,-1
 100 700 l 1,11,-1
 100 800 l 1,12,-1
 200 800 l 1,13,-1
 200 700 l 1,10,-1
200 600 m 1,14,-1
 200 700 l 1,15,-1
 300 700 l 1,16,-1
 300 600 l 1,17,-1
 200 600 l 1,14,-1
400 0 m 1,18,-1
 400 100 l 1,19,-1
 500 100 l 1,20,-1
 500 0 l 1,21,-1
 400 0 l 1,18,-1
400 -100 m 1,22,-1
 100 -100 l 1,23,-1
 100 0 l 1,24,-1
 400 0 l 1,25,-1
 400 -100 l 1,22,-1
400 500 m 1,26,-1
 400 400 l 1,27,-1
 100 400 l 1,28,-1
 100 500 l 1,29,-1
 400 500 l 1,26,-1
EndSplineSet
EndChar

StartChar: eacute
Encoding: 233 233 171
Width: 700
GlyphClass: 1
Flags: W
LayerCount: 2
Fore
SplineSet
0 0 m 1,0,-1
 0 400 l 1,1,-1
 100 400 l 1,2,-1
 100 300 l 1,3,-1
 400 300 l 1,4,-1
 400 400 l 1,5,-1
 500 400 l 1,6,-1
 500 200 l 1,7,-1
 100 200 l 1,8,-1
 100 0 l 1,9,-1
 0 0 l 1,0,-1
200 600 m 1,10,-1
 200 700 l 1,11,-1
 300 700 l 1,12,-1
 300 600 l 1,13,-1
 200 600 l 1,10,-1
400 0 m 1,14,-1
 400 100 l 1,15,-1
 500 100 l 1,16,-1
 500 0 l 1,17,-1
 400 0 l 1,14,-1
400 -100 m 1,18,-1
 100 -100 l 1,19,-1
 100 0 l 1,20,-1
 400 0 l 1,21,-1
 400 -100 l 1,18,-1
400 500 m 1,22,-1
 400 400 l 1,23,-1
 100 400 l 1,24,-1
 100 500 l 1,25,-1
 400 500 l 1,22,-1
400 700 m 1,26,-1
 300 700 l 1,27,-1
 300 800 l 1,28,-1
 400 800 l 1,29,-1
 400 700 l 1,26,-1
EndSplineSet
EndChar

StartChar: ecircumflex
Encoding: 234 234 172
Width: 700
GlyphClass: 1
Flags: W
LayerCount: 2
Fore
SplineSet
0 0 m 1,0,-1
 0 400 l 1,1,-1
 100 400 l 1,2,-1
 100 300 l 1,3,-1
 400 300 l 1,4,-1
 400 400 l 1,5,-1
 500 400 l 1,6,-1
 500 200 l 1,7,-1
 100 200 l 1,8,-1
 100 0 l 1,9,-1
 0 0 l 1,0,-1
200 700 m 1,10,-1
 200 600 l 1,11,-1
 100 600 l 1,12,-1
 100 700 l 1,13,-1
 200 700 l 1,10,-1
200 800 m 1,14,-1
 300 800 l 1,15,-1
 300 700 l 1,16,-1
 200 700 l 1,17,-1
 200 800 l 1,14,-1
400 0 m 1,18,-1
 400 100 l 1,19,-1
 500 100 l 1,20,-1
 500 0 l 1,21,-1
 400 0 l 1,18,-1
400 -100 m 1,22,-1
 100 -100 l 1,23,-1
 100 0 l 1,24,-1
 400 0 l 1,25,-1
 400 -100 l 1,22,-1
400 500 m 1,26,-1
 400 400 l 1,27,-1
 100 400 l 1,28,-1
 100 500 l 1,29,-1
 400 500 l 1,26,-1
400 700 m 1,30,-1
 400 600 l 1,31,-1
 300 600 l 1,32,-1
 300 700 l 1,33,-1
 400 700 l 1,30,-1
EndSplineSet
EndChar

StartChar: edieresis
Encoding: 235 235 173
Width: 700
GlyphClass: 1
Flags: W
LayerCount: 2
Fore
SplineSet
0 0 m 1,0,-1
 0 400 l 1,1,-1
 100 400 l 1,2,-1
 100 300 l 1,3,-1
 400 300 l 1,4,-1
 400 400 l 1,5,-1
 500 400 l 1,6,-1
 500 200 l 1,7,-1
 100 200 l 1,8,-1
 100 0 l 1,9,-1
 0 0 l 1,0,-1
200 700 m 1,10,-1
 200 600 l 1,11,-1
 100 600 l 1,12,-1
 100 700 l 1,13,-1
 200 700 l 1,10,-1
400 0 m 1,14,-1
 400 100 l 1,15,-1
 500 100 l 1,16,-1
 500 0 l 1,17,-1
 400 0 l 1,14,-1
400 -100 m 1,18,-1
 100 -100 l 1,19,-1
 100 0 l 1,20,-1
 400 0 l 1,21,-1
 400 -100 l 1,18,-1
400 500 m 1,22,-1
 400 400 l 1,23,-1
 100 400 l 1,24,-1
 100 500 l 1,25,-1
 400 500 l 1,22,-1
400 700 m 1,26,-1
 400 600 l 1,27,-1
 300 600 l 1,28,-1
 300 700 l 1,29,-1
 400 700 l 1,26,-1
EndSplineSet
EndChar

StartChar: igrave
Encoding: 236 236 174
Width: 400
GlyphClass: 1
Flags: W
LayerCount: 2
Fore
SplineSet
0 700 m 1,0,-1
 0 800 l 1,1,-1
 100 800 l 1,2,-1
 100 700 l 1,3,-1
 0 700 l 1,0,-1
100 -100 m 1,4,-1
 100 500 l 1,5,-1
 200 500 l 1,6,-1
 200 -100 l 1,7,-1
 100 -100 l 1,4,-1
100 700 m 1,8,-1
 200 700 l 1,9,-1
 200 600 l 1,10,-1
 100 600 l 1,11,-1
 100 700 l 1,8,-1
EndSplineSet
EndChar

StartChar: iacute
Encoding: 237 237 175
Width: 400
GlyphClass: 1
Flags: W
LayerCount: 2
Fore
SplineSet
0 -100 m 1,0,-1
 0 500 l 1,1,-1
 100 500 l 1,2,-1
 100 -100 l 1,3,-1
 0 -100 l 1,0,-1
0 600 m 1,4,-1
 0 700 l 1,5,-1
 100 700 l 1,6,-1
 100 600 l 1,7,-1
 0 600 l 1,4,-1
100 700 m 1,8,-1
 100 800 l 1,9,-1
 200 800 l 1,10,-1
 200 700 l 1,11,-1
 100 700 l 1,8,-1
EndSplineSet
EndChar

StartChar: icircumflex
Encoding: 238 238 176
Width: 500
GlyphClass: 1
Flags: W
LayerCount: 2
Fore
SplineSet
0 600 m 1,0,-1
 0 700 l 1,1,-1
 100 700 l 1,2,-1
 100 600 l 1,3,-1
 0 600 l 1,0,-1
100 -100 m 1,4,-1
 100 500 l 1,5,-1
 200 500 l 1,6,-1
 200 -100 l 1,7,-1
 100 -100 l 1,4,-1
100 700 m 1,8,-1
 100 800 l 1,9,-1
 200 800 l 1,10,-1
 200 700 l 1,11,-1
 100 700 l 1,8,-1
200 700 m 1,12,-1
 300 700 l 1,13,-1
 300 600 l 1,14,-1
 200 600 l 1,15,-1
 200 700 l 1,12,-1
EndSplineSet
EndChar

StartChar: idieresis
Encoding: 239 239 177
Width: 500
GlyphClass: 1
Flags: W
LayerCount: 2
Fore
SplineSet
0 600 m 1,0,-1
 0 700 l 1,1,-1
 100 700 l 1,2,-1
 100 600 l 1,3,-1
 0 600 l 1,0,-1
100 -100 m 1,4,-1
 100 500 l 1,5,-1
 200 500 l 1,6,-1
 200 -100 l 1,7,-1
 100 -100 l 1,4,-1
200 600 m 1,8,-1
 200 700 l 1,9,-1
 300 700 l 1,10,-1
 300 600 l 1,11,-1
 200 600 l 1,8,-1
EndSplineSet
EndChar

StartChar: eth
Encoding: 240 240 178
Width: 700
GlyphClass: 1
Flags: W
LayerCount: 2
Fore
SplineSet
0 0 m 1,0,-1
 0 400 l 1,1,-1
 100 400 l 1,2,-1
 100 0 l 1,3,-1
 0 0 l 1,0,-1
0 500 m 1,4,-1
 0 600 l 1,5,-1
 100 600 l 1,6,-1
 100 500 l 1,7,-1
 0 500 l 1,4,-1
0 700 m 1,8,-1
 0 800 l 1,9,-1
 100 800 l 1,10,-1
 100 700 l 1,11,-1
 0 700 l 1,8,-1
400 0 m 1,12,-1
 400 -100 l 1,13,-1
 100 -100 l 1,14,-1
 100 0 l 1,15,-1
 400 0 l 1,12,-1
400 400 m 1,16,-1
 500 400 l 1,17,-1
 500 0 l 1,18,-1
 400 0 l 1,19,-1
 400 400 l 1,16,-1
400 700 m 1,20,-1
 300 700 l 1,21,-1
 300 800 l 1,22,-1
 400 800 l 1,23,-1
 400 700 l 1,20,-1
400 600 m 1,24,-1
 400 400 l 1,25,-1
 100 400 l 1,26,-1
 100 500 l 1,27,-1
 300 500 l 1,28,-1
 300 600 l 1,29,-1
 400 600 l 1,24,-1
100 700 m 1,30,-1
 300 700 l 1,31,-1
 300 600 l 1,32,-1
 100 600 l 1,33,-1
 100 700 l 1,30,-1
EndSplineSet
EndChar

StartChar: ntilde
Encoding: 241 241 179
Width: 700
GlyphClass: 1
Flags: W
LayerCount: 2
Fore
SplineSet
0 -100 m 1,0,-1
 0 500 l 1,1,-1
 400 500 l 1,2,-1
 400 400 l 1,3,-1
 100 400 l 1,4,-1
 100 -100 l 1,5,-1
 0 -100 l 1,0,-1
0 600 m 1,6,-1
 0 700 l 1,7,-1
 100 700 l 1,8,-1
 100 600 l 1,9,-1
 0 600 l 1,6,-1
100 700 m 1,10,-1
 100 800 l 1,11,-1
 300 800 l 1,12,-1
 300 700 l 1,13,-1
 100 700 l 1,10,-1
300 700 m 1,14,-1
 400 700 l 1,15,-1
 400 600 l 1,16,-1
 300 600 l 1,17,-1
 300 700 l 1,14,-1
400 -100 m 1,18,-1
 400 400 l 1,19,-1
 500 400 l 1,20,-1
 500 -100 l 1,21,-1
 400 -100 l 1,18,-1
400 700 m 1,22,-1
 400 800 l 1,23,-1
 500 800 l 1,24,-1
 500 700 l 1,25,-1
 400 700 l 1,22,-1
EndSplineSet
EndChar

StartChar: ograve
Encoding: 242 242 180
Width: 700
GlyphClass: 1
Flags: W
LayerCount: 2
Fore
SplineSet
0 0 m 1,0,-1
 0 400 l 1,1,-1
 100 400 l 1,2,-1
 100 0 l 1,3,-1
 0 0 l 1,0,-1
100 0 m 1,4,-1
 400 0 l 1,5,-1
 400 -100 l 1,6,-1
 100 -100 l 1,7,-1
 100 0 l 1,4,-1
100 400 m 1,8,-1
 100 500 l 1,9,-1
 400 500 l 1,10,-1
 400 400 l 1,11,-1
 100 400 l 1,8,-1
100 700 m 1,12,-1
 100 800 l 1,13,-1
 200 800 l 1,14,-1
 200 700 l 1,15,-1
 100 700 l 1,12,-1
200 700 m 1,16,-1
 300 700 l 1,17,-1
 300 600 l 1,18,-1
 200 600 l 1,19,-1
 200 700 l 1,16,-1
400 0 m 1,20,-1
 400 400 l 1,21,-1
 500 400 l 1,22,-1
 500 0 l 1,23,-1
 400 0 l 1,20,-1
EndSplineSet
EndChar

StartChar: oacute
Encoding: 243 243 181
Width: 700
GlyphClass: 1
Flags: W
LayerCount: 2
Fore
SplineSet
0 0 m 1,0,-1
 0 400 l 1,1,-1
 100 400 l 1,2,-1
 100 0 l 1,3,-1
 0 0 l 1,0,-1
100 0 m 1,4,-1
 400 0 l 1,5,-1
 400 -100 l 1,6,-1
 100 -100 l 1,7,-1
 100 0 l 1,4,-1
100 400 m 1,8,-1
 100 500 l 1,9,-1
 400 500 l 1,10,-1
 400 400 l 1,11,-1
 100 400 l 1,8,-1
200 600 m 1,12,-1
 200 700 l 1,13,-1
 300 700 l 1,14,-1
 300 600 l 1,15,-1
 200 600 l 1,12,-1
300 700 m 1,16,-1
 300 800 l 1,17,-1
 400 800 l 1,18,-1
 400 700 l 1,19,-1
 300 700 l 1,16,-1
400 0 m 1,20,-1
 400 400 l 1,21,-1
 500 400 l 1,22,-1
 500 0 l 1,23,-1
 400 0 l 1,20,-1
EndSplineSet
EndChar

StartChar: ocircumflex
Encoding: 244 244 182
Width: 700
GlyphClass: 1
Flags: W
LayerCount: 2
Fore
SplineSet
0 0 m 1,0,-1
 0 400 l 1,1,-1
 100 400 l 1,2,-1
 100 0 l 1,3,-1
 0 0 l 1,0,-1
100 0 m 1,4,-1
 400 0 l 1,5,-1
 400 -100 l 1,6,-1
 100 -100 l 1,7,-1
 100 0 l 1,4,-1
100 400 m 1,8,-1
 100 500 l 1,9,-1
 400 500 l 1,10,-1
 400 400 l 1,11,-1
 100 400 l 1,8,-1
100 600 m 1,12,-1
 100 700 l 1,13,-1
 200 700 l 1,14,-1
 200 600 l 1,15,-1
 100 600 l 1,12,-1
200 700 m 1,16,-1
 200 800 l 1,17,-1
 300 800 l 1,18,-1
 300 700 l 1,19,-1
 200 700 l 1,16,-1
300 700 m 1,20,-1
 400 700 l 1,21,-1
 400 600 l 1,22,-1
 300 600 l 1,23,-1
 300 700 l 1,20,-1
400 0 m 1,24,-1
 400 400 l 1,25,-1
 500 400 l 1,26,-1
 500 0 l 1,27,-1
 400 0 l 1,24,-1
EndSplineSet
EndChar

StartChar: otilde
Encoding: 245 245 183
Width: 700
GlyphClass: 1
Flags: W
LayerCount: 2
Fore
SplineSet
0 0 m 1,0,-1
 0 400 l 1,1,-1
 100 400 l 1,2,-1
 100 0 l 1,3,-1
 0 0 l 1,0,-1
0 600 m 1,4,-1
 0 700 l 1,5,-1
 100 700 l 1,6,-1
 100 600 l 1,7,-1
 0 600 l 1,4,-1
400 0 m 1,8,-1
 400 -100 l 1,9,-1
 100 -100 l 1,10,-1
 100 0 l 1,11,-1
 400 0 l 1,8,-1
400 500 m 1,12,-1
 400 400 l 1,13,-1
 100 400 l 1,14,-1
 100 500 l 1,15,-1
 400 500 l 1,12,-1
400 400 m 1,16,-1
 500 400 l 1,17,-1
 500 0 l 1,18,-1
 400 0 l 1,19,-1
 400 400 l 1,16,-1
400 700 m 1,20,-1
 400 600 l 1,21,-1
 300 600 l 1,22,-1
 300 700 l 1,23,-1
 400 700 l 1,20,-1
400 800 m 1,24,-1
 500 800 l 1,25,-1
 500 700 l 1,26,-1
 400 700 l 1,27,-1
 400 800 l 1,24,-1
100 700 m 1,28,-1
 100 800 l 1,29,-1
 300 800 l 1,30,-1
 300 700 l 1,31,-1
 100 700 l 1,28,-1
EndSplineSet
EndChar

StartChar: odieresis
Encoding: 246 246 184
Width: 700
GlyphClass: 1
Flags: W
LayerCount: 2
Fore
SplineSet
0 0 m 1,0,-1
 0 400 l 1,1,-1
 100 400 l 1,2,-1
 100 0 l 1,3,-1
 0 0 l 1,0,-1
100 0 m 1,4,-1
 400 0 l 1,5,-1
 400 -100 l 1,6,-1
 100 -100 l 1,7,-1
 100 0 l 1,4,-1
100 400 m 1,8,-1
 100 500 l 1,9,-1
 400 500 l 1,10,-1
 400 400 l 1,11,-1
 100 400 l 1,8,-1
100 600 m 1,12,-1
 100 700 l 1,13,-1
 200 700 l 1,14,-1
 200 600 l 1,15,-1
 100 600 l 1,12,-1
300 600 m 1,16,-1
 300 700 l 1,17,-1
 400 700 l 1,18,-1
 400 600 l 1,19,-1
 300 600 l 1,16,-1
400 0 m 1,20,-1
 400 400 l 1,21,-1
 500 400 l 1,22,-1
 500 0 l 1,23,-1
 400 0 l 1,20,-1
EndSplineSet
EndChar

StartChar: divide
Encoding: 247 247 185
Width: 1100
GlyphClass: 1
Flags: W
LayerCount: 2
Fore
SplineSet
400 100 m 1,0,-1
 500 100 l 1,1,-1
 500 -100 l 1,2,-1
 400 -100 l 1,3,-1
 400 100 l 1,0,-1
0 300 m 1,4,-1
 0 400 l 1,5,-1
 900 400 l 1,6,-1
 900 300 l 1,7,-1
 0 300 l 1,4,-1
400 600 m 1,8,-1
 400 800 l 1,9,-1
 500 800 l 1,10,-1
 500 600 l 1,11,-1
 400 600 l 1,8,-1
EndSplineSet
EndChar

StartChar: oslash
Encoding: 248 248 186
Width: 700
GlyphClass: 1
Flags: W
LayerCount: 2
Fore
SplineSet
0 -200 m 1,0,-1
 0 -100 l 1,1,-1
 100 -100 l 1,2,-1
 100 -200 l 1,3,-1
 0 -200 l 1,0,-1
0 0 m 1,4,-1
 0 400 l 1,5,-1
 100 400 l 1,6,-1
 100 100 l 1,7,-1
 200 100 l 1,8,-1
 200 0 l 1,9,-1
 400 0 l 1,10,-1
 400 -100 l 1,11,-1
 100 -100 l 1,12,-1
 100 0 l 1,13,-1
 0 0 l 1,4,-1
200 100 m 1,14,-1
 200 300 l 1,15,-1
 300 300 l 1,16,-1
 300 100 l 1,17,-1
 200 100 l 1,14,-1
400 0 m 1,18,-1
 400 300 l 1,19,-1
 300 300 l 1,20,-1
 300 400 l 1,21,-1
 100 400 l 1,22,-1
 100 500 l 1,23,-1
 400 500 l 1,24,-1
 400 400 l 1,25,-1
 500 400 l 1,26,-1
 500 0 l 1,27,-1
 400 0 l 1,18,-1
400 500 m 1,28,-1
 400 600 l 1,29,-1
 500 600 l 1,30,-1
 500 500 l 1,31,-1
 400 500 l 1,28,-1
EndSplineSet
EndChar

StartChar: ugrave
Encoding: 249 249 187
Width: 700
GlyphClass: 1
Flags: W
LayerCount: 2
Fore
SplineSet
0 0 m 1,0,-1
 0 500 l 1,1,-1
 100 500 l 1,2,-1
 100 0 l 1,3,-1
 0 0 l 1,0,-1
100 0 m 1,4,-1
 400 0 l 1,5,-1
 400 500 l 1,6,-1
 500 500 l 1,7,-1
 500 -100 l 1,8,-1
 100 -100 l 1,9,-1
 100 0 l 1,4,-1
100 700 m 1,10,-1
 100 800 l 1,11,-1
 200 800 l 1,12,-1
 200 700 l 1,13,-1
 100 700 l 1,10,-1
200 700 m 1,14,-1
 300 700 l 1,15,-1
 300 600 l 1,16,-1
 200 600 l 1,17,-1
 200 700 l 1,14,-1
EndSplineSet
EndChar

StartChar: uacute
Encoding: 250 250 188
Width: 700
GlyphClass: 1
Flags: W
LayerCount: 2
Fore
SplineSet
0 0 m 1,0,-1
 0 500 l 1,1,-1
 100 500 l 1,2,-1
 100 0 l 1,3,-1
 0 0 l 1,0,-1
100 0 m 1,4,-1
 400 0 l 1,5,-1
 400 500 l 1,6,-1
 500 500 l 1,7,-1
 500 -100 l 1,8,-1
 100 -100 l 1,9,-1
 100 0 l 1,4,-1
200 600 m 1,10,-1
 200 700 l 1,11,-1
 300 700 l 1,12,-1
 300 600 l 1,13,-1
 200 600 l 1,10,-1
300 700 m 1,14,-1
 300 800 l 1,15,-1
 400 800 l 1,16,-1
 400 700 l 1,17,-1
 300 700 l 1,14,-1
EndSplineSet
EndChar

StartChar: ucircumflex
Encoding: 251 251 189
Width: 700
GlyphClass: 1
Flags: W
LayerCount: 2
Fore
SplineSet
0 0 m 1,0,-1
 0 500 l 1,1,-1
 100 500 l 1,2,-1
 100 0 l 1,3,-1
 0 0 l 1,0,-1
100 0 m 1,4,-1
 400 0 l 1,5,-1
 400 500 l 1,6,-1
 500 500 l 1,7,-1
 500 -100 l 1,8,-1
 100 -100 l 1,9,-1
 100 0 l 1,4,-1
100 600 m 1,10,-1
 100 700 l 1,11,-1
 200 700 l 1,12,-1
 200 600 l 1,13,-1
 100 600 l 1,10,-1
200 700 m 1,14,-1
 200 800 l 1,15,-1
 300 800 l 1,16,-1
 300 700 l 1,17,-1
 200 700 l 1,14,-1
300 700 m 1,18,-1
 400 700 l 1,19,-1
 400 600 l 1,20,-1
 300 600 l 1,21,-1
 300 700 l 1,18,-1
EndSplineSet
EndChar

StartChar: udieresis
Encoding: 252 252 190
Width: 700
GlyphClass: 1
Flags: W
LayerCount: 2
Fore
SplineSet
0 0 m 1,0,-1
 0 500 l 1,1,-1
 100 500 l 1,2,-1
 100 0 l 1,3,-1
 0 0 l 1,0,-1
100 0 m 1,4,-1
 400 0 l 1,5,-1
 400 500 l 1,6,-1
 500 500 l 1,7,-1
 500 -100 l 1,8,-1
 100 -100 l 1,9,-1
 100 0 l 1,4,-1
100 600 m 1,10,-1
 100 700 l 1,11,-1
 200 700 l 1,12,-1
 200 600 l 1,13,-1
 100 600 l 1,10,-1
300 600 m 1,14,-1
 300 700 l 1,15,-1
 400 700 l 1,16,-1
 400 600 l 1,17,-1
 300 600 l 1,14,-1
EndSplineSet
EndChar

StartChar: yacute
Encoding: 253 253 191
Width: 700
GlyphClass: 1
Flags: W
LayerCount: 2
Fore
SplineSet
0 -200 m 1,0,-1
 0 -100 l 1,1,-1
 200 -100 l 1,2,-1
 200 -200 l 1,3,-1
 0 -200 l 1,0,-1
0 500 m 1,4,-1
 100 500 l 1,5,-1
 100 300 l 1,6,-1
 0 300 l 1,7,-1
 0 500 l 1,4,-1
200 100 m 1,8,-1
 100 100 l 1,9,-1
 100 300 l 1,10,-1
 200 300 l 1,11,-1
 200 100 l 1,8,-1
200 -100 m 1,12,-1
 200 100 l 1,13,-1
 300 100 l 1,14,-1
 300 -100 l 1,15,-1
 200 -100 l 1,12,-1
200 600 m 1,16,-1
 200 700 l 1,17,-1
 300 700 l 1,18,-1
 300 600 l 1,19,-1
 200 600 l 1,16,-1
400 100 m 1,20,-1
 300 100 l 1,21,-1
 300 300 l 1,22,-1
 400 300 l 1,23,-1
 400 100 l 1,20,-1
400 500 m 1,24,-1
 500 500 l 1,25,-1
 500 300 l 1,26,-1
 400 300 l 1,27,-1
 400 500 l 1,24,-1
400 700 m 1,28,-1
 300 700 l 1,29,-1
 300 800 l 1,30,-1
 400 800 l 1,31,-1
 400 700 l 1,28,-1
EndSplineSet
EndChar

StartChar: thorn
Encoding: 254 254 192
Width: 700
GlyphClass: 1
Flags: W
LayerCount: 2
Fore
SplineSet
0 -200 m 1,0,-1
 0 800 l 1,1,-1
 100 800 l 1,2,-1
 100 600 l 1,3,-1
 400 600 l 1,4,-1
 400 500 l 1,5,-1
 100 500 l 1,6,-1
 100 100 l 1,7,-1
 400 100 l 1,8,-1
 400 0 l 1,9,-1
 100 0 l 1,10,-1
 100 -200 l 1,11,-1
 0 -200 l 1,0,-1
400 100 m 1,12,-1
 400 500 l 1,13,-1
 500 500 l 1,14,-1
 500 100 l 1,15,-1
 400 100 l 1,12,-1
EndSplineSet
EndChar

StartChar: ydieresis
Encoding: 255 255 193
Width: 700
GlyphClass: 1
Flags: W
LayerCount: 2
Fore
SplineSet
0 -200 m 1,0,-1
 0 -100 l 1,1,-1
 200 -100 l 1,2,-1
 200 -200 l 1,3,-1
 0 -200 l 1,0,-1
0 500 m 1,4,-1
 100 500 l 1,5,-1
 100 300 l 1,6,-1
 0 300 l 1,7,-1
 0 500 l 1,4,-1
200 100 m 1,8,-1
 100 100 l 1,9,-1
 100 300 l 1,10,-1
 200 300 l 1,11,-1
 200 100 l 1,8,-1
200 -100 m 1,12,-1
 200 100 l 1,13,-1
 300 100 l 1,14,-1
 300 -100 l 1,15,-1
 200 -100 l 1,12,-1
200 700 m 1,16,-1
 200 600 l 1,17,-1
 100 600 l 1,18,-1
 100 700 l 1,19,-1
 200 700 l 1,16,-1
400 100 m 1,20,-1
 300 100 l 1,21,-1
 300 300 l 1,22,-1
 400 300 l 1,23,-1
 400 100 l 1,20,-1
400 500 m 1,24,-1
 500 500 l 1,25,-1
 500 300 l 1,26,-1
 400 300 l 1,27,-1
 400 500 l 1,24,-1
400 700 m 1,28,-1
 400 600 l 1,29,-1
 300 600 l 1,30,-1
 300 700 l 1,31,-1
 400 700 l 1,28,-1
EndSplineSet
EndChar

StartChar: Amacron
Encoding: 256 256 194
Width: 700
GlyphClass: 1
Flags: W
LayerCount: 2
Fore
SplineSet
0 -100 m 1,0,-1
 0 300 l 1,1,-1
 100 300 l 1,2,-1
 100 200 l 1,3,-1
 400 200 l 1,4,-1
 400 300 l 1,5,-1
 500 300 l 1,6,-1
 500 -100 l 1,7,-1
 400 -100 l 1,8,-1
 400 100 l 1,9,-1
 100 100 l 1,10,-1
 100 -100 l 1,11,-1
 0 -100 l 1,0,-1
100 500 m 1,12,-1
 200 500 l 1,13,-1
 200 300 l 1,14,-1
 100 300 l 1,15,-1
 100 500 l 1,12,-1
100 800 m 1,16,-1
 100 900 l 1,17,-1
 400 900 l 1,18,-1
 400 800 l 1,19,-1
 100 800 l 1,16,-1
200 500 m 1,20,-1
 200 700 l 1,21,-1
 300 700 l 1,22,-1
 300 500 l 1,23,-1
 200 500 l 1,20,-1
300 500 m 1,24,-1
 400 500 l 1,25,-1
 400 300 l 1,26,-1
 300 300 l 1,27,-1
 300 500 l 1,24,-1
EndSplineSet
EndChar

StartChar: amacron
Encoding: 257 257 195
Width: 700
GlyphClass: 1
Flags: W
LayerCount: 2
Fore
SplineSet
0 200 m 1,0,-1
 100 200 l 1,1,-1
 100 0 l 1,2,-1
 0 0 l 1,3,-1
 0 200 l 1,0,-1
0 300 m 1,4,-1
 0 400 l 1,5,-1
 100 400 l 1,6,-1
 100 300 l 1,7,-1
 0 300 l 1,4,-1
400 0 m 1,8,-1
 500 0 l 1,9,-1
 500 -100 l 1,10,-1
 400 -100 l 1,11,-1
 400 0 l 1,8,-1
400 400 m 1,12,-1
 400 0 l 1,13,-1
 300 0 l 1,14,-1
 300 200 l 1,15,-1
 100 200 l 1,16,-1
 100 300 l 1,17,-1
 300 300 l 1,18,-1
 300 400 l 1,19,-1
 400 400 l 1,12,-1
400 700 m 1,20,-1
 400 600 l 1,21,-1
 100 600 l 1,22,-1
 100 700 l 1,23,-1
 400 700 l 1,20,-1
100 0 m 1,24,-1
 300 0 l 1,25,-1
 300 -100 l 1,26,-1
 100 -100 l 1,27,-1
 100 0 l 1,24,-1
100 400 m 1,28,-1
 100 500 l 1,29,-1
 300 500 l 1,30,-1
 300 400 l 1,31,-1
 100 400 l 1,28,-1
EndSplineSet
EndChar

StartChar: Abreve
Encoding: 258 258 196
Width: 700
GlyphClass: 1
Flags: W
LayerCount: 2
Fore
SplineSet
0 -100 m 1,0,-1
 0 300 l 1,1,-1
 100 300 l 1,2,-1
 100 500 l 1,3,-1
 200 500 l 1,4,-1
 200 300 l 1,5,-1
 300 300 l 1,6,-1
 300 500 l 1,7,-1
 400 500 l 1,8,-1
 400 300 l 1,9,-1
 500 300 l 1,10,-1
 500 -100 l 1,11,-1
 400 -100 l 1,12,-1
 400 200 l 1,13,-1
 100 200 l 1,14,-1
 100 -100 l 1,15,-1
 0 -100 l 1,0,-1
100 800 m 1,16,-1
 100 900 l 1,17,-1
 200 900 l 1,18,-1
 200 800 l 1,19,-1
 100 800 l 1,16,-1
200 500 m 1,20,-1
 200 800 l 1,21,-1
 300 800 l 1,22,-1
 300 500 l 1,23,-1
 200 500 l 1,20,-1
300 800 m 1,24,-1
 300 900 l 1,25,-1
 400 900 l 1,26,-1
 400 800 l 1,27,-1
 300 800 l 1,24,-1
EndSplineSet
EndChar

StartChar: abreve
Encoding: 259 259 197
Width: 700
GlyphClass: 1
Flags: W
LayerCount: 2
Fore
SplineSet
0 200 m 1,0,-1
 100 200 l 1,1,-1
 100 0 l 1,2,-1
 0 0 l 1,3,-1
 0 200 l 1,0,-1
0 300 m 1,4,-1
 0 400 l 1,5,-1
 100 400 l 1,6,-1
 100 300 l 1,7,-1
 0 300 l 1,4,-1
200 700 m 1,8,-1
 100 700 l 1,9,-1
 100 800 l 1,10,-1
 200 800 l 1,11,-1
 200 700 l 1,8,-1
200 600 m 1,12,-1
 200 700 l 1,13,-1
 300 700 l 1,14,-1
 300 600 l 1,15,-1
 200 600 l 1,12,-1
400 0 m 1,16,-1
 500 0 l 1,17,-1
 500 -100 l 1,18,-1
 400 -100 l 1,19,-1
 400 0 l 1,16,-1
400 400 m 1,20,-1
 400 0 l 1,21,-1
 300 0 l 1,22,-1
 300 200 l 1,23,-1
 100 200 l 1,24,-1
 100 300 l 1,25,-1
 300 300 l 1,26,-1
 300 400 l 1,27,-1
 400 400 l 1,20,-1
400 700 m 1,28,-1
 300 700 l 1,29,-1
 300 800 l 1,30,-1
 400 800 l 1,31,-1
 400 700 l 1,28,-1
100 0 m 1,32,-1
 300 0 l 1,33,-1
 300 -100 l 1,34,-1
 100 -100 l 1,35,-1
 100 0 l 1,32,-1
100 400 m 1,36,-1
 100 500 l 1,37,-1
 300 500 l 1,38,-1
 300 400 l 1,39,-1
 100 400 l 1,36,-1
EndSplineSet
EndChar

StartChar: Aogonek
Encoding: 260 260 198
Width: 700
GlyphClass: 1
Flags: W
LayerCount: 2
Fore
SplineSet
0 -100 m 1,0,-1
 0 300 l 1,1,-1
 100 300 l 1,2,-1
 100 200 l 1,3,-1
 400 200 l 1,4,-1
 400 300 l 1,5,-1
 500 300 l 1,6,-1
 500 -100 l 1,7,-1
 400 -100 l 1,8,-1
 400 100 l 1,9,-1
 100 100 l 1,10,-1
 100 -100 l 1,11,-1
 0 -100 l 1,0,-1
200 300 m 1,12,-1
 100 300 l 1,13,-1
 100 600 l 1,14,-1
 200 600 l 1,15,-1
 200 300 l 1,12,-1
200 600 m 1,16,-1
 200 800 l 1,17,-1
 300 800 l 1,18,-1
 300 600 l 1,19,-1
 200 600 l 1,16,-1
400 -100 m 1,20,-1
 400 -200 l 1,21,-1
 300 -200 l 1,22,-1
 300 -100 l 1,23,-1
 400 -100 l 1,20,-1
400 -200 m 1,24,-1
 500 -200 l 1,25,-1
 500 -300 l 1,26,-1
 400 -300 l 1,27,-1
 400 -200 l 1,24,-1
400 300 m 1,28,-1
 300 300 l 1,29,-1
 300 600 l 1,30,-1
 400 600 l 1,31,-1
 400 300 l 1,28,-1
EndSplineSet
EndChar

StartChar: aogonek
Encoding: 261 261 199
Width: 700
GlyphClass: 1
Flags: W
LayerCount: 2
Fore
SplineSet
0 200 m 1,0,-1
 100 200 l 1,1,-1
 100 0 l 1,2,-1
 0 0 l 1,3,-1
 0 200 l 1,0,-1
0 300 m 1,4,-1
 0 400 l 1,5,-1
 100 400 l 1,6,-1
 100 300 l 1,7,-1
 0 300 l 1,4,-1
400 0 m 1,8,-1
 500 0 l 1,9,-1
 500 -100 l 1,10,-1
 400 -100 l 1,11,-1
 400 0 l 1,8,-1
400 -100 m 1,12,-1
 400 -200 l 1,13,-1
 300 -200 l 1,14,-1
 300 -100 l 1,15,-1
 400 -100 l 1,12,-1
400 -200 m 1,16,-1
 500 -200 l 1,17,-1
 500 -300 l 1,18,-1
 400 -300 l 1,19,-1
 400 -200 l 1,16,-1
400 400 m 1,20,-1
 400 0 l 1,21,-1
 300 0 l 1,22,-1
 300 200 l 1,23,-1
 100 200 l 1,24,-1
 100 300 l 1,25,-1
 300 300 l 1,26,-1
 300 400 l 1,27,-1
 400 400 l 1,20,-1
100 0 m 1,28,-1
 300 0 l 1,29,-1
 300 -100 l 1,30,-1
 100 -100 l 1,31,-1
 100 0 l 1,28,-1
100 400 m 1,32,-1
 100 500 l 1,33,-1
 300 500 l 1,34,-1
 300 400 l 1,35,-1
 100 400 l 1,32,-1
EndSplineSet
EndChar

StartChar: Cacute
Encoding: 262 262 200
Width: 700
GlyphClass: 1
Flags: W
LayerCount: 2
Fore
SplineSet
0 0 m 1,0,-1
 0 600 l 1,1,-1
 100 600 l 1,2,-1
 100 0 l 1,3,-1
 0 0 l 1,0,-1
100 0 m 1,4,-1
 400 0 l 1,5,-1
 400 -100 l 1,6,-1
 100 -100 l 1,7,-1
 100 0 l 1,4,-1
100 600 m 1,8,-1
 100 800 l 1,9,-1
 200 800 l 1,10,-1
 200 700 l 1,11,-1
 400 700 l 1,12,-1
 400 600 l 1,13,-1
 100 600 l 1,8,-1
200 800 m 1,14,-1
 200 900 l 1,15,-1
 300 900 l 1,16,-1
 300 800 l 1,17,-1
 200 800 l 1,14,-1
400 200 m 1,18,-1
 500 200 l 1,19,-1
 500 0 l 1,20,-1
 400 0 l 1,21,-1
 400 200 l 1,18,-1
400 400 m 1,22,-1
 400 600 l 1,23,-1
 500 600 l 1,24,-1
 500 400 l 1,25,-1
 400 400 l 1,22,-1
EndSplineSet
EndChar

StartChar: cacute
Encoding: 263 263 201
Width: 700
GlyphClass: 1
Flags: W
LayerCount: 2
Fore
SplineSet
0 0 m 1,0,-1
 0 400 l 1,1,-1
 100 400 l 1,2,-1
 100 0 l 1,3,-1
 0 0 l 1,0,-1
100 0 m 1,4,-1
 400 0 l 1,5,-1
 400 -100 l 1,6,-1
 100 -100 l 1,7,-1
 100 0 l 1,4,-1
100 400 m 1,8,-1
 100 500 l 1,9,-1
 400 500 l 1,10,-1
 400 400 l 1,11,-1
 100 400 l 1,8,-1
100 600 m 1,12,-1
 100 700 l 1,13,-1
 200 700 l 1,14,-1
 200 600 l 1,15,-1
 100 600 l 1,12,-1
200 700 m 1,16,-1
 200 800 l 1,17,-1
 300 800 l 1,18,-1
 300 700 l 1,19,-1
 200 700 l 1,16,-1
400 0 m 1,20,-1
 400 100 l 1,21,-1
 500 100 l 1,22,-1
 500 0 l 1,23,-1
 400 0 l 1,20,-1
400 400 m 1,24,-1
 500 400 l 1,25,-1
 500 300 l 1,26,-1
 400 300 l 1,27,-1
 400 400 l 1,24,-1
EndSplineSet
EndChar

StartChar: Ccircumflex
Encoding: 264 264 202
Width: 700
GlyphClass: 1
Flags: W
LayerCount: 2
Fore
SplineSet
0 0 m 1,0,-1
 0 600 l 1,1,-1
 100 600 l 1,2,-1
 100 0 l 1,3,-1
 0 0 l 1,0,-1
100 0 m 1,4,-1
 400 0 l 1,5,-1
 400 -100 l 1,6,-1
 100 -100 l 1,7,-1
 100 0 l 1,4,-1
100 600 m 1,8,-1
 100 800 l 1,9,-1
 200 800 l 1,10,-1
 200 700 l 1,11,-1
 300 700 l 1,12,-1
 300 800 l 1,13,-1
 400 800 l 1,14,-1
 400 600 l 1,15,-1
 100 600 l 1,8,-1
200 800 m 1,16,-1
 200 900 l 1,17,-1
 300 900 l 1,18,-1
 300 800 l 1,19,-1
 200 800 l 1,16,-1
400 200 m 1,20,-1
 500 200 l 1,21,-1
 500 0 l 1,22,-1
 400 0 l 1,23,-1
 400 200 l 1,20,-1
400 400 m 1,24,-1
 400 600 l 1,25,-1
 500 600 l 1,26,-1
 500 400 l 1,27,-1
 400 400 l 1,24,-1
EndSplineSet
EndChar

StartChar: ccircumflex
Encoding: 265 265 203
Width: 700
GlyphClass: 1
Flags: W
LayerCount: 2
Fore
SplineSet
0 0 m 1,0,-1
 0 400 l 1,1,-1
 100 400 l 1,2,-1
 100 0 l 1,3,-1
 0 0 l 1,0,-1
200 700 m 1,4,-1
 200 600 l 1,5,-1
 100 600 l 1,6,-1
 100 700 l 1,7,-1
 200 700 l 1,4,-1
200 800 m 1,8,-1
 300 800 l 1,9,-1
 300 700 l 1,10,-1
 200 700 l 1,11,-1
 200 800 l 1,8,-1
400 0 m 1,12,-1
 400 100 l 1,13,-1
 500 100 l 1,14,-1
 500 0 l 1,15,-1
 400 0 l 1,12,-1
400 -100 m 1,16,-1
 100 -100 l 1,17,-1
 100 0 l 1,18,-1
 400 0 l 1,19,-1
 400 -100 l 1,16,-1
400 500 m 1,20,-1
 400 400 l 1,21,-1
 100 400 l 1,22,-1
 100 500 l 1,23,-1
 400 500 l 1,20,-1
400 400 m 1,24,-1
 500 400 l 1,25,-1
 500 300 l 1,26,-1
 400 300 l 1,27,-1
 400 400 l 1,24,-1
400 700 m 1,28,-1
 400 600 l 1,29,-1
 300 600 l 1,30,-1
 300 700 l 1,31,-1
 400 700 l 1,28,-1
EndSplineSet
EndChar

StartChar: Cdotaccent
Encoding: 266 266 204
Width: 700
GlyphClass: 1
Flags: W
LayerCount: 2
Fore
SplineSet
0 0 m 1,0,-1
 0 600 l 1,1,-1
 100 600 l 1,2,-1
 100 0 l 1,3,-1
 0 0 l 1,0,-1
100 0 m 1,4,-1
 400 0 l 1,5,-1
 400 -100 l 1,6,-1
 100 -100 l 1,7,-1
 100 0 l 1,4,-1
100 600 m 1,8,-1
 100 700 l 1,9,-1
 400 700 l 1,10,-1
 400 600 l 1,11,-1
 100 600 l 1,8,-1
200 800 m 1,12,-1
 200 900 l 1,13,-1
 300 900 l 1,14,-1
 300 800 l 1,15,-1
 200 800 l 1,12,-1
400 200 m 1,16,-1
 500 200 l 1,17,-1
 500 0 l 1,18,-1
 400 0 l 1,19,-1
 400 200 l 1,16,-1
400 400 m 1,20,-1
 400 600 l 1,21,-1
 500 600 l 1,22,-1
 500 400 l 1,23,-1
 400 400 l 1,20,-1
EndSplineSet
EndChar

StartChar: cdotaccent
Encoding: 267 267 205
Width: 700
GlyphClass: 1
Flags: W
LayerCount: 2
Fore
SplineSet
0 0 m 1,0,-1
 0 400 l 1,1,-1
 100 400 l 1,2,-1
 100 0 l 1,3,-1
 0 0 l 1,0,-1
100 0 m 1,4,-1
 400 0 l 1,5,-1
 400 -100 l 1,6,-1
 100 -100 l 1,7,-1
 100 0 l 1,4,-1
100 400 m 1,8,-1
 100 500 l 1,9,-1
 400 500 l 1,10,-1
 400 400 l 1,11,-1
 100 400 l 1,8,-1
200 600 m 1,12,-1
 200 700 l 1,13,-1
 300 700 l 1,14,-1
 300 600 l 1,15,-1
 200 600 l 1,12,-1
400 0 m 1,16,-1
 400 100 l 1,17,-1
 500 100 l 1,18,-1
 500 0 l 1,19,-1
 400 0 l 1,16,-1
400 400 m 1,20,-1
 500 400 l 1,21,-1
 500 300 l 1,22,-1
 400 300 l 1,23,-1
 400 400 l 1,20,-1
EndSplineSet
EndChar

StartChar: Ccaron
Encoding: 268 268 206
Width: 700
GlyphClass: 1
Flags: W
LayerCount: 2
Fore
SplineSet
0 0 m 1,0,-1
 0 600 l 1,1,-1
 100 600 l 1,2,-1
 100 0 l 1,3,-1
 0 0 l 1,0,-1
200 700 m 1,4,-1
 200 800 l 1,5,-1
 300 800 l 1,6,-1
 300 700 l 1,7,-1
 400 700 l 1,8,-1
 400 600 l 1,9,-1
 100 600 l 1,10,-1
 100 700 l 1,11,-1
 200 700 l 1,4,-1
200 900 m 1,12,-1
 200 800 l 1,13,-1
 100 800 l 1,14,-1
 100 900 l 1,15,-1
 200 900 l 1,12,-1
400 200 m 1,16,-1
 500 200 l 1,17,-1
 500 0 l 1,18,-1
 400 0 l 1,19,-1
 400 200 l 1,16,-1
400 0 m 1,20,-1
 400 -100 l 1,21,-1
 100 -100 l 1,22,-1
 100 0 l 1,23,-1
 400 0 l 1,20,-1
400 400 m 1,24,-1
 400 600 l 1,25,-1
 500 600 l 1,26,-1
 500 400 l 1,27,-1
 400 400 l 1,24,-1
400 900 m 1,28,-1
 400 800 l 1,29,-1
 300 800 l 1,30,-1
 300 900 l 1,31,-1
 400 900 l 1,28,-1
EndSplineSet
EndChar

StartChar: ccaron
Encoding: 269 269 207
Width: 700
GlyphClass: 1
Flags: W
LayerCount: 2
Fore
SplineSet
0 0 m 1,0,-1
 0 400 l 1,1,-1
 100 400 l 1,2,-1
 100 0 l 1,3,-1
 0 0 l 1,0,-1
200 700 m 1,4,-1
 100 700 l 1,5,-1
 100 800 l 1,6,-1
 200 800 l 1,7,-1
 200 700 l 1,4,-1
200 600 m 1,8,-1
 200 700 l 1,9,-1
 300 700 l 1,10,-1
 300 600 l 1,11,-1
 200 600 l 1,8,-1
400 0 m 1,12,-1
 400 100 l 1,13,-1
 500 100 l 1,14,-1
 500 0 l 1,15,-1
 400 0 l 1,12,-1
400 -100 m 1,16,-1
 100 -100 l 1,17,-1
 100 0 l 1,18,-1
 400 0 l 1,19,-1
 400 -100 l 1,16,-1
400 500 m 1,20,-1
 400 400 l 1,21,-1
 100 400 l 1,22,-1
 100 500 l 1,23,-1
 400 500 l 1,20,-1
400 400 m 1,24,-1
 500 400 l 1,25,-1
 500 300 l 1,26,-1
 400 300 l 1,27,-1
 400 400 l 1,24,-1
400 700 m 1,28,-1
 300 700 l 1,29,-1
 300 800 l 1,30,-1
 400 800 l 1,31,-1
 400 700 l 1,28,-1
EndSplineSet
EndChar

StartChar: Dcaron
Encoding: 270 270 208
Width: 700
GlyphClass: 1
Flags: W
LayerCount: 2
Fore
SplineSet
0 -100 m 1,0,-1
 0 700 l 1,1,-1
 200 700 l 1,2,-1
 200 800 l 1,3,-1
 300 800 l 1,4,-1
 300 600 l 1,5,-1
 100 600 l 1,6,-1
 100 0 l 1,7,-1
 300 0 l 1,8,-1
 300 -100 l 1,9,-1
 0 -100 l 1,0,-1
100 800 m 1,10,-1
 100 900 l 1,11,-1
 200 900 l 1,12,-1
 200 800 l 1,13,-1
 100 800 l 1,10,-1
300 0 m 1,14,-1
 300 100 l 1,15,-1
 400 100 l 1,16,-1
 400 0 l 1,17,-1
 300 0 l 1,14,-1
300 500 m 1,18,-1
 300 600 l 1,19,-1
 400 600 l 1,20,-1
 400 500 l 1,21,-1
 300 500 l 1,18,-1
300 800 m 1,22,-1
 300 900 l 1,23,-1
 400 900 l 1,24,-1
 400 800 l 1,25,-1
 300 800 l 1,22,-1
400 100 m 1,26,-1
 400 500 l 1,27,-1
 500 500 l 1,28,-1
 500 100 l 1,29,-1
 400 100 l 1,26,-1
EndSplineSet
EndChar

StartChar: dcaron
Encoding: 271 271 209
Width: 700
GlyphClass: 1
Flags: W
LayerCount: 2
Fore
SplineSet
0 0 m 1,0,-1
 0 400 l 1,1,-1
 100 400 l 1,2,-1
 100 0 l 1,3,-1
 0 0 l 1,0,-1
100 0 m 1,4,-1
 200 0 l 1,5,-1
 200 400 l 1,6,-1
 100 400 l 1,7,-1
 100 500 l 1,8,-1
 200 500 l 1,9,-1
 200 800 l 1,10,-1
 300 800 l 1,11,-1
 300 600 l 1,12,-1
 400 600 l 1,13,-1
 400 500 l 1,14,-1
 300 500 l 1,15,-1
 300 -100 l 1,16,-1
 100 -100 l 1,17,-1
 100 0 l 1,4,-1
400 600 m 1,18,-1
 400 800 l 1,19,-1
 500 800 l 1,20,-1
 500 600 l 1,21,-1
 400 600 l 1,18,-1
EndSplineSet
EndChar

StartChar: Dcroat
Encoding: 272 272 210
Width: 700
GlyphClass: 1
Flags: W
LayerCount: 2
Fore
SplineSet
0 300 m 1,0,-1
 0 400 l 1,1,-1
 100 400 l 1,2,-1
 100 800 l 1,3,-1
 300 800 l 1,4,-1
 300 700 l 1,5,-1
 200 700 l 1,6,-1
 200 400 l 1,7,-1
 300 400 l 1,8,-1
 300 300 l 1,9,-1
 200 300 l 1,10,-1
 200 0 l 1,11,-1
 300 0 l 1,12,-1
 300 -100 l 1,13,-1
 100 -100 l 1,14,-1
 100 300 l 1,15,-1
 0 300 l 1,0,-1
300 0 m 1,16,-1
 300 100 l 1,17,-1
 400 100 l 1,18,-1
 400 0 l 1,19,-1
 300 0 l 1,16,-1
300 700 m 1,20,-1
 400 700 l 1,21,-1
 400 600 l 1,22,-1
 300 600 l 1,23,-1
 300 700 l 1,20,-1
400 100 m 1,24,-1
 400 600 l 1,25,-1
 500 600 l 1,26,-1
 500 100 l 1,27,-1
 400 100 l 1,24,-1
EndSplineSet
EndChar

StartChar: dcroat
Encoding: 273 273 211
Width: 700
GlyphClass: 1
Flags: W
LayerCount: 2
Fore
SplineSet
0 0 m 1,0,-1
 0 400 l 1,1,-1
 100 400 l 1,2,-1
 100 0 l 1,3,-1
 0 0 l 1,0,-1
100 0 m 1,4,-1
 300 0 l 1,5,-1
 300 400 l 1,6,-1
 100 400 l 1,7,-1
 100 500 l 1,8,-1
 300 500 l 1,9,-1
 300 600 l 1,10,-1
 100 600 l 1,11,-1
 100 700 l 1,12,-1
 300 700 l 1,13,-1
 300 800 l 1,14,-1
 400 800 l 1,15,-1
 400 700 l 1,16,-1
 500 700 l 1,17,-1
 500 600 l 1,18,-1
 400 600 l 1,19,-1
 400 -100 l 1,20,-1
 100 -100 l 1,21,-1
 100 0 l 1,4,-1
EndSplineSet
EndChar

StartChar: Emacron
Encoding: 274 274 212
Width: 700
GlyphClass: 1
Flags: W
LayerCount: 2
Fore
SplineSet
0 -100 m 1,0,-1
 0 700 l 1,1,-1
 500 700 l 1,2,-1
 500 600 l 1,3,-1
 100 600 l 1,4,-1
 100 400 l 1,5,-1
 400 400 l 1,6,-1
 400 300 l 1,7,-1
 100 300 l 1,8,-1
 100 0 l 1,9,-1
 500 0 l 1,10,-1
 500 -100 l 1,11,-1
 0 -100 l 1,0,-1
100 800 m 1,12,-1
 100 900 l 1,13,-1
 400 900 l 1,14,-1
 400 800 l 1,15,-1
 100 800 l 1,12,-1
EndSplineSet
EndChar

StartChar: emacron
Encoding: 275 275 213
Width: 700
GlyphClass: 1
Flags: W
LayerCount: 2
Fore
SplineSet
0 0 m 1,0,-1
 0 400 l 1,1,-1
 100 400 l 1,2,-1
 100 300 l 1,3,-1
 400 300 l 1,4,-1
 400 400 l 1,5,-1
 500 400 l 1,6,-1
 500 200 l 1,7,-1
 100 200 l 1,8,-1
 100 0 l 1,9,-1
 0 0 l 1,0,-1
100 0 m 1,10,-1
 400 0 l 1,11,-1
 400 -100 l 1,12,-1
 100 -100 l 1,13,-1
 100 0 l 1,10,-1
100 400 m 1,14,-1
 100 500 l 1,15,-1
 400 500 l 1,16,-1
 400 400 l 1,17,-1
 100 400 l 1,14,-1
100 600 m 1,18,-1
 100 700 l 1,19,-1
 400 700 l 1,20,-1
 400 600 l 1,21,-1
 100 600 l 1,18,-1
400 0 m 1,22,-1
 400 100 l 1,23,-1
 500 100 l 1,24,-1
 500 0 l 1,25,-1
 400 0 l 1,22,-1
EndSplineSet
EndChar

StartChar: Ebreve
Encoding: 276 276 214
Width: 700
GlyphClass: 1
Flags: W
LayerCount: 2
Fore
SplineSet
0 -100 m 1,0,-1
 0 700 l 1,1,-1
 200 700 l 1,2,-1
 200 800 l 1,3,-1
 300 800 l 1,4,-1
 300 700 l 1,5,-1
 500 700 l 1,6,-1
 500 600 l 1,7,-1
 100 600 l 1,8,-1
 100 400 l 1,9,-1
 400 400 l 1,10,-1
 400 300 l 1,11,-1
 100 300 l 1,12,-1
 100 0 l 1,13,-1
 500 0 l 1,14,-1
 500 -100 l 1,15,-1
 0 -100 l 1,0,-1
100 800 m 1,16,-1
 100 900 l 1,17,-1
 200 900 l 1,18,-1
 200 800 l 1,19,-1
 100 800 l 1,16,-1
300 800 m 1,20,-1
 300 900 l 1,21,-1
 400 900 l 1,22,-1
 400 800 l 1,23,-1
 300 800 l 1,20,-1
EndSplineSet
EndChar

StartChar: ebreve
Encoding: 277 277 215
Width: 700
GlyphClass: 1
Flags: W
LayerCount: 2
Fore
SplineSet
0 0 m 1,0,-1
 0 400 l 1,1,-1
 100 400 l 1,2,-1
 100 300 l 1,3,-1
 400 300 l 1,4,-1
 400 400 l 1,5,-1
 500 400 l 1,6,-1
 500 200 l 1,7,-1
 100 200 l 1,8,-1
 100 0 l 1,9,-1
 0 0 l 1,0,-1
200 700 m 1,10,-1
 100 700 l 1,11,-1
 100 800 l 1,12,-1
 200 800 l 1,13,-1
 200 700 l 1,10,-1
200 600 m 1,14,-1
 200 700 l 1,15,-1
 300 700 l 1,16,-1
 300 600 l 1,17,-1
 200 600 l 1,14,-1
400 0 m 1,18,-1
 400 100 l 1,19,-1
 500 100 l 1,20,-1
 500 0 l 1,21,-1
 400 0 l 1,18,-1
400 -100 m 1,22,-1
 100 -100 l 1,23,-1
 100 0 l 1,24,-1
 400 0 l 1,25,-1
 400 -100 l 1,22,-1
400 500 m 1,26,-1
 400 400 l 1,27,-1
 100 400 l 1,28,-1
 100 500 l 1,29,-1
 400 500 l 1,26,-1
400 700 m 1,30,-1
 300 700 l 1,31,-1
 300 800 l 1,32,-1
 400 800 l 1,33,-1
 400 700 l 1,30,-1
EndSplineSet
EndChar

StartChar: Edotaccent
Encoding: 278 278 216
Width: 700
GlyphClass: 1
Flags: W
LayerCount: 2
Fore
SplineSet
0 -100 m 1,0,-1
 0 700 l 1,1,-1
 500 700 l 1,2,-1
 500 600 l 1,3,-1
 100 600 l 1,4,-1
 100 400 l 1,5,-1
 400 400 l 1,6,-1
 400 300 l 1,7,-1
 100 300 l 1,8,-1
 100 0 l 1,9,-1
 500 0 l 1,10,-1
 500 -100 l 1,11,-1
 0 -100 l 1,0,-1
200 800 m 1,12,-1
 200 900 l 1,13,-1
 300 900 l 1,14,-1
 300 800 l 1,15,-1
 200 800 l 1,12,-1
EndSplineSet
EndChar

StartChar: edotaccent
Encoding: 279 279 217
Width: 700
GlyphClass: 1
Flags: W
LayerCount: 2
Fore
SplineSet
0 0 m 1,0,-1
 0 400 l 1,1,-1
 100 400 l 1,2,-1
 100 300 l 1,3,-1
 400 300 l 1,4,-1
 400 400 l 1,5,-1
 500 400 l 1,6,-1
 500 200 l 1,7,-1
 100 200 l 1,8,-1
 100 0 l 1,9,-1
 0 0 l 1,0,-1
100 0 m 1,10,-1
 400 0 l 1,11,-1
 400 -100 l 1,12,-1
 100 -100 l 1,13,-1
 100 0 l 1,10,-1
100 400 m 1,14,-1
 100 500 l 1,15,-1
 400 500 l 1,16,-1
 400 400 l 1,17,-1
 100 400 l 1,14,-1
200 600 m 1,18,-1
 200 700 l 1,19,-1
 300 700 l 1,20,-1
 300 600 l 1,21,-1
 200 600 l 1,18,-1
400 0 m 1,22,-1
 400 100 l 1,23,-1
 500 100 l 1,24,-1
 500 0 l 1,25,-1
 400 0 l 1,22,-1
EndSplineSet
EndChar

StartChar: Eogonek
Encoding: 280 280 218
Width: 700
GlyphClass: 1
Flags: W
LayerCount: 2
Fore
SplineSet
0 -100 m 1,0,-1
 0 800 l 1,1,-1
 500 800 l 1,2,-1
 500 700 l 1,3,-1
 100 700 l 1,4,-1
 100 400 l 1,5,-1
 400 400 l 1,6,-1
 400 300 l 1,7,-1
 100 300 l 1,8,-1
 100 0 l 1,9,-1
 500 0 l 1,10,-1
 500 -100 l 1,11,-1
 300 -100 l 1,12,-1
 300 -200 l 1,13,-1
 200 -200 l 1,14,-1
 200 -100 l 1,15,-1
 0 -100 l 1,0,-1
300 -200 m 1,16,-1
 500 -200 l 1,17,-1
 500 -300 l 1,18,-1
 300 -300 l 1,19,-1
 300 -200 l 1,16,-1
EndSplineSet
EndChar

StartChar: eogonek
Encoding: 281 281 219
Width: 700
GlyphClass: 1
Flags: W
LayerCount: 2
Fore
SplineSet
0 0 m 1,0,-1
 0 400 l 1,1,-1
 100 400 l 1,2,-1
 100 300 l 1,3,-1
 400 300 l 1,4,-1
 400 400 l 1,5,-1
 500 400 l 1,6,-1
 500 200 l 1,7,-1
 100 200 l 1,8,-1
 100 0 l 1,9,-1
 0 0 l 1,0,-1
100 0 m 1,10,-1
 400 0 l 1,11,-1
 400 -200 l 1,12,-1
 300 -200 l 1,13,-1
 300 -100 l 1,14,-1
 100 -100 l 1,15,-1
 100 0 l 1,10,-1
100 400 m 1,16,-1
 100 500 l 1,17,-1
 400 500 l 1,18,-1
 400 400 l 1,19,-1
 100 400 l 1,16,-1
400 0 m 1,20,-1
 400 100 l 1,21,-1
 500 100 l 1,22,-1
 500 0 l 1,23,-1
 400 0 l 1,20,-1
400 -200 m 1,24,-1
 500 -200 l 1,25,-1
 500 -300 l 1,26,-1
 400 -300 l 1,27,-1
 400 -200 l 1,24,-1
EndSplineSet
EndChar

StartChar: Ecaron
Encoding: 282 282 220
Width: 700
GlyphClass: 1
Flags: W
LayerCount: 2
Fore
SplineSet
0 -100 m 1,0,-1
 0 700 l 1,1,-1
 200 700 l 1,2,-1
 200 800 l 1,3,-1
 300 800 l 1,4,-1
 300 700 l 1,5,-1
 500 700 l 1,6,-1
 500 600 l 1,7,-1
 100 600 l 1,8,-1
 100 400 l 1,9,-1
 400 400 l 1,10,-1
 400 300 l 1,11,-1
 100 300 l 1,12,-1
 100 0 l 1,13,-1
 500 0 l 1,14,-1
 500 -100 l 1,15,-1
 0 -100 l 1,0,-1
100 800 m 1,16,-1
 100 900 l 1,17,-1
 200 900 l 1,18,-1
 200 800 l 1,19,-1
 100 800 l 1,16,-1
300 800 m 1,20,-1
 300 900 l 1,21,-1
 400 900 l 1,22,-1
 400 800 l 1,23,-1
 300 800 l 1,20,-1
EndSplineSet
EndChar

StartChar: ecaron
Encoding: 283 283 221
Width: 700
GlyphClass: 1
Flags: W
LayerCount: 2
Fore
SplineSet
0 0 m 1,0,-1
 0 400 l 1,1,-1
 100 400 l 1,2,-1
 100 300 l 1,3,-1
 400 300 l 1,4,-1
 400 400 l 1,5,-1
 500 400 l 1,6,-1
 500 200 l 1,7,-1
 100 200 l 1,8,-1
 100 0 l 1,9,-1
 0 0 l 1,0,-1
200 700 m 1,10,-1
 100 700 l 1,11,-1
 100 800 l 1,12,-1
 200 800 l 1,13,-1
 200 700 l 1,10,-1
200 600 m 1,14,-1
 200 700 l 1,15,-1
 300 700 l 1,16,-1
 300 600 l 1,17,-1
 200 600 l 1,14,-1
400 0 m 1,18,-1
 400 100 l 1,19,-1
 500 100 l 1,20,-1
 500 0 l 1,21,-1
 400 0 l 1,18,-1
400 -100 m 1,22,-1
 100 -100 l 1,23,-1
 100 0 l 1,24,-1
 400 0 l 1,25,-1
 400 -100 l 1,22,-1
400 500 m 1,26,-1
 400 400 l 1,27,-1
 100 400 l 1,28,-1
 100 500 l 1,29,-1
 400 500 l 1,26,-1
400 700 m 1,30,-1
 300 700 l 1,31,-1
 300 800 l 1,32,-1
 400 800 l 1,33,-1
 400 700 l 1,30,-1
EndSplineSet
EndChar

StartChar: Gcircumflex
Encoding: 284 284 222
Width: 700
GlyphClass: 1
Flags: W
LayerCount: 2
Fore
SplineSet
0 0 m 1,0,-1
 0 600 l 1,1,-1
 100 600 l 1,2,-1
 100 0 l 1,3,-1
 0 0 l 1,0,-1
200 700 m 1,4,-1
 300 700 l 1,5,-1
 300 800 l 1,6,-1
 400 800 l 1,7,-1
 400 600 l 1,8,-1
 100 600 l 1,9,-1
 100 800 l 1,10,-1
 200 800 l 1,11,-1
 200 700 l 1,4,-1
200 800 m 1,12,-1
 200 900 l 1,13,-1
 300 900 l 1,14,-1
 300 800 l 1,15,-1
 200 800 l 1,12,-1
400 200 m 1,16,-1
 300 200 l 1,17,-1
 300 300 l 1,18,-1
 500 300 l 1,19,-1
 500 -100 l 1,20,-1
 400 -100 l 1,21,-1
 400 0 l 1,22,-1
 300 0 l 1,23,-1
 300 100 l 1,24,-1
 400 100 l 1,25,-1
 400 200 l 1,16,-1
400 400 m 1,26,-1
 400 600 l 1,27,-1
 500 600 l 1,28,-1
 500 400 l 1,29,-1
 400 400 l 1,26,-1
100 0 m 1,30,-1
 300 0 l 1,31,-1
 300 -100 l 1,32,-1
 100 -100 l 1,33,-1
 100 0 l 1,30,-1
EndSplineSet
EndChar

StartChar: gcircumflex
Encoding: 285 285 223
Width: 700
GlyphClass: 1
Flags: W
LayerCount: 2
Fore
SplineSet
0 -100 m 1,0,-1
 0 0 l 1,1,-1
 100 0 l 1,2,-1
 100 -100 l 1,3,-1
 0 -100 l 1,0,-1
0 200 m 1,4,-1
 0 400 l 1,5,-1
 100 400 l 1,6,-1
 100 200 l 1,7,-1
 0 200 l 1,4,-1
200 700 m 1,8,-1
 200 600 l 1,9,-1
 100 600 l 1,10,-1
 100 700 l 1,11,-1
 200 700 l 1,8,-1
200 800 m 1,12,-1
 300 800 l 1,13,-1
 300 700 l 1,14,-1
 200 700 l 1,15,-1
 200 800 l 1,12,-1
400 -100 m 1,16,-1
 400 -200 l 1,17,-1
 100 -200 l 1,18,-1
 100 -100 l 1,19,-1
 400 -100 l 1,16,-1
400 200 m 1,20,-1
 400 400 l 1,21,-1
 100 400 l 1,22,-1
 100 500 l 1,23,-1
 500 500 l 1,24,-1
 500 -100 l 1,25,-1
 400 -100 l 1,26,-1
 400 100 l 1,27,-1
 100 100 l 1,28,-1
 100 200 l 1,29,-1
 400 200 l 1,20,-1
400 700 m 1,30,-1
 400 600 l 1,31,-1
 300 600 l 1,32,-1
 300 700 l 1,33,-1
 400 700 l 1,30,-1
EndSplineSet
EndChar

StartChar: Gbreve
Encoding: 286 286 224
Width: 700
GlyphClass: 1
Flags: W
LayerCount: 2
Fore
SplineSet
0 0 m 1,0,-1
 0 600 l 1,1,-1
 100 600 l 1,2,-1
 100 0 l 1,3,-1
 0 0 l 1,0,-1
0 800 m 1,4,-1
 0 900 l 1,5,-1
 100 900 l 1,6,-1
 100 800 l 1,7,-1
 0 800 l 1,4,-1
400 200 m 1,8,-1
 300 200 l 1,9,-1
 300 300 l 1,10,-1
 500 300 l 1,11,-1
 500 -100 l 1,12,-1
 400 -100 l 1,13,-1
 400 0 l 1,14,-1
 300 0 l 1,15,-1
 300 100 l 1,16,-1
 400 100 l 1,17,-1
 400 200 l 1,8,-1
400 400 m 1,18,-1
 400 600 l 1,19,-1
 500 600 l 1,20,-1
 500 400 l 1,21,-1
 400 400 l 1,18,-1
400 700 m 1,22,-1
 400 600 l 1,23,-1
 100 600 l 1,24,-1
 100 800 l 1,25,-1
 300 800 l 1,26,-1
 300 700 l 1,27,-1
 400 700 l 1,22,-1
400 900 m 1,28,-1
 400 800 l 1,29,-1
 300 800 l 1,30,-1
 300 900 l 1,31,-1
 400 900 l 1,28,-1
100 0 m 1,32,-1
 300 0 l 1,33,-1
 300 -100 l 1,34,-1
 100 -100 l 1,35,-1
 100 0 l 1,32,-1
EndSplineSet
EndChar

StartChar: gbreve
Encoding: 287 287 225
Width: 700
GlyphClass: 1
Flags: W
LayerCount: 2
Fore
SplineSet
0 -100 m 1,0,-1
 0 0 l 1,1,-1
 100 0 l 1,2,-1
 100 -100 l 1,3,-1
 0 -100 l 1,0,-1
0 200 m 1,4,-1
 0 400 l 1,5,-1
 100 400 l 1,6,-1
 100 200 l 1,7,-1
 0 200 l 1,4,-1
0 700 m 1,8,-1
 0 800 l 1,9,-1
 100 800 l 1,10,-1
 100 700 l 1,11,-1
 0 700 l 1,8,-1
400 -100 m 1,12,-1
 400 -200 l 1,13,-1
 100 -200 l 1,14,-1
 100 -100 l 1,15,-1
 400 -100 l 1,12,-1
400 200 m 1,16,-1
 400 400 l 1,17,-1
 100 400 l 1,18,-1
 100 500 l 1,19,-1
 500 500 l 1,20,-1
 500 -100 l 1,21,-1
 400 -100 l 1,22,-1
 400 100 l 1,23,-1
 100 100 l 1,24,-1
 100 200 l 1,25,-1
 400 200 l 1,16,-1
400 700 m 1,26,-1
 300 700 l 1,27,-1
 300 800 l 1,28,-1
 400 800 l 1,29,-1
 400 700 l 1,26,-1
100 700 m 1,30,-1
 300 700 l 1,31,-1
 300 600 l 1,32,-1
 100 600 l 1,33,-1
 100 700 l 1,30,-1
EndSplineSet
EndChar

StartChar: Gdotaccent
Encoding: 288 288 226
Width: 700
GlyphClass: 1
Flags: W
LayerCount: 2
Fore
SplineSet
0 0 m 1,0,-1
 0 600 l 1,1,-1
 100 600 l 1,2,-1
 100 0 l 1,3,-1
 0 0 l 1,0,-1
200 800 m 1,4,-1
 200 900 l 1,5,-1
 300 900 l 1,6,-1
 300 800 l 1,7,-1
 200 800 l 1,4,-1
400 200 m 1,8,-1
 300 200 l 1,9,-1
 300 300 l 1,10,-1
 500 300 l 1,11,-1
 500 -100 l 1,12,-1
 400 -100 l 1,13,-1
 400 0 l 1,14,-1
 300 0 l 1,15,-1
 300 100 l 1,16,-1
 400 100 l 1,17,-1
 400 200 l 1,8,-1
400 400 m 1,18,-1
 400 600 l 1,19,-1
 500 600 l 1,20,-1
 500 400 l 1,21,-1
 400 400 l 1,18,-1
400 700 m 1,22,-1
 400 600 l 1,23,-1
 100 600 l 1,24,-1
 100 700 l 1,25,-1
 400 700 l 1,22,-1
100 0 m 1,26,-1
 300 0 l 1,27,-1
 300 -100 l 1,28,-1
 100 -100 l 1,29,-1
 100 0 l 1,26,-1
EndSplineSet
EndChar

StartChar: gdotaccent
Encoding: 289 289 227
Width: 700
GlyphClass: 1
Flags: W
LayerCount: 2
Fore
SplineSet
0 -100 m 1,0,-1
 0 0 l 1,1,-1
 100 0 l 1,2,-1
 100 -100 l 1,3,-1
 0 -100 l 1,0,-1
0 200 m 1,4,-1
 0 400 l 1,5,-1
 100 400 l 1,6,-1
 100 200 l 1,7,-1
 0 200 l 1,4,-1
100 200 m 1,8,-1
 400 200 l 1,9,-1
 400 400 l 1,10,-1
 100 400 l 1,11,-1
 100 500 l 1,12,-1
 500 500 l 1,13,-1
 500 -100 l 1,14,-1
 400 -100 l 1,15,-1
 400 100 l 1,16,-1
 100 100 l 1,17,-1
 100 200 l 1,8,-1
100 -100 m 1,18,-1
 400 -100 l 1,19,-1
 400 -200 l 1,20,-1
 100 -200 l 1,21,-1
 100 -100 l 1,18,-1
200 600 m 1,22,-1
 200 700 l 1,23,-1
 300 700 l 1,24,-1
 300 600 l 1,25,-1
 200 600 l 1,22,-1
EndSplineSet
EndChar

StartChar: Gcommaaccent
Encoding: 290 290 228
Width: 700
GlyphClass: 1
Flags: W
LayerCount: 2
Fore
SplineSet
0 0 m 1,0,-1
 0 700 l 1,1,-1
 100 700 l 1,2,-1
 100 0 l 1,3,-1
 0 0 l 1,0,-1
200 -100 m 1,4,-1
 100 -100 l 1,5,-1
 100 0 l 1,6,-1
 300 0 l 1,7,-1
 300 -200 l 1,8,-1
 200 -200 l 1,9,-1
 200 -100 l 1,4,-1
200 -200 m 1,10,-1
 200 -300 l 1,11,-1
 100 -300 l 1,12,-1
 100 -200 l 1,13,-1
 200 -200 l 1,10,-1
400 200 m 1,14,-1
 300 200 l 1,15,-1
 300 300 l 1,16,-1
 500 300 l 1,17,-1
 500 -100 l 1,18,-1
 400 -100 l 1,19,-1
 400 0 l 1,20,-1
 300 0 l 1,21,-1
 300 100 l 1,22,-1
 400 100 l 1,23,-1
 400 200 l 1,14,-1
400 500 m 1,24,-1
 400 700 l 1,25,-1
 500 700 l 1,26,-1
 500 500 l 1,27,-1
 400 500 l 1,24,-1
400 700 m 1,28,-1
 100 700 l 1,29,-1
 100 800 l 1,30,-1
 400 800 l 1,31,-1
 400 700 l 1,28,-1
EndSplineSet
EndChar

StartChar: gcommaaccent
Encoding: 291 291 229
Width: 700
GlyphClass: 1
Flags: W
LayerCount: 2
Fore
SplineSet
0 -100 m 1,0,-1
 0 0 l 1,1,-1
 100 0 l 1,2,-1
 100 -100 l 1,3,-1
 0 -100 l 1,0,-1
0 200 m 1,4,-1
 0 400 l 1,5,-1
 100 400 l 1,6,-1
 100 200 l 1,7,-1
 0 200 l 1,4,-1
200 700 m 1,8,-1
 300 700 l 1,9,-1
 300 600 l 1,10,-1
 100 600 l 1,11,-1
 100 800 l 1,12,-1
 200 800 l 1,13,-1
 200 700 l 1,8,-1
200 800 m 1,14,-1
 200 900 l 1,15,-1
 300 900 l 1,16,-1
 300 800 l 1,17,-1
 200 800 l 1,14,-1
400 -100 m 1,18,-1
 400 -200 l 1,19,-1
 100 -200 l 1,20,-1
 100 -100 l 1,21,-1
 400 -100 l 1,18,-1
400 200 m 1,22,-1
 400 400 l 1,23,-1
 100 400 l 1,24,-1
 100 500 l 1,25,-1
 500 500 l 1,26,-1
 500 -100 l 1,27,-1
 400 -100 l 1,28,-1
 400 100 l 1,29,-1
 100 100 l 1,30,-1
 100 200 l 1,31,-1
 400 200 l 1,22,-1
EndSplineSet
EndChar

StartChar: Hcircumflex
Encoding: 292 292 230
Width: 700
GlyphClass: 1
Flags: W
LayerCount: 2
Fore
SplineSet
0 -100 m 1,0,-1
 0 600 l 1,1,-1
 100 600 l 1,2,-1
 100 300 l 1,3,-1
 400 300 l 1,4,-1
 400 600 l 1,5,-1
 500 600 l 1,6,-1
 500 -100 l 1,7,-1
 400 -100 l 1,8,-1
 400 200 l 1,9,-1
 100 200 l 1,10,-1
 100 -100 l 1,11,-1
 0 -100 l 1,0,-1
100 700 m 1,12,-1
 100 800 l 1,13,-1
 200 800 l 1,14,-1
 200 700 l 1,15,-1
 100 700 l 1,12,-1
200 800 m 1,16,-1
 200 900 l 1,17,-1
 300 900 l 1,18,-1
 300 800 l 1,19,-1
 200 800 l 1,16,-1
300 700 m 1,20,-1
 300 800 l 1,21,-1
 400 800 l 1,22,-1
 400 700 l 1,23,-1
 300 700 l 1,20,-1
EndSplineSet
EndChar

StartChar: hcircumflex
Encoding: 293 293 231
Width: 700
GlyphClass: 1
Flags: W
LayerCount: 2
Fore
SplineSet
0 -100 m 1,0,-1
 0 700 l 1,1,-1
 100 700 l 1,2,-1
 100 500 l 1,3,-1
 400 500 l 1,4,-1
 400 400 l 1,5,-1
 100 400 l 1,6,-1
 100 -100 l 1,7,-1
 0 -100 l 1,0,-1
100 700 m 1,8,-1
 100 800 l 1,9,-1
 200 800 l 1,10,-1
 200 700 l 1,11,-1
 100 700 l 1,8,-1
200 800 m 1,12,-1
 200 900 l 1,13,-1
 300 900 l 1,14,-1
 300 800 l 1,15,-1
 200 800 l 1,12,-1
300 700 m 1,16,-1
 300 800 l 1,17,-1
 400 800 l 1,18,-1
 400 700 l 1,19,-1
 300 700 l 1,16,-1
400 -100 m 1,20,-1
 400 400 l 1,21,-1
 500 400 l 1,22,-1
 500 -100 l 1,23,-1
 400 -100 l 1,20,-1
EndSplineSet
EndChar

StartChar: Hbar
Encoding: 294 294 232
Width: 700
GlyphClass: 1
Flags: W
LayerCount: 2
Fore
SplineSet
0 -100 m 1,0,-1
 0 800 l 1,1,-1
 100 800 l 1,2,-1
 100 700 l 1,3,-1
 300 700 l 1,4,-1
 300 800 l 1,5,-1
 400 800 l 1,6,-1
 400 700 l 1,7,-1
 500 700 l 1,8,-1
 500 600 l 1,9,-1
 400 600 l 1,10,-1
 400 -100 l 1,11,-1
 300 -100 l 1,12,-1
 300 300 l 1,13,-1
 100 300 l 1,14,-1
 100 -100 l 1,15,-1
 0 -100 l 1,0,-1
100 400 m 1,16,-1
 300 400 l 1,17,-1
 300 600 l 1,18,-1
 100 600 l 1,19,-1
 100 400 l 1,16,-1
EndSplineSet
EndChar

StartChar: hbar
Encoding: 295 295 233
Width: 700
GlyphClass: 1
Flags: W
LayerCount: 2
Fore
SplineSet
0 600 m 1,0,-1
 0 700 l 1,1,-1
 100 700 l 1,2,-1
 100 800 l 1,3,-1
 200 800 l 1,4,-1
 200 700 l 1,5,-1
 400 700 l 1,6,-1
 400 600 l 1,7,-1
 200 600 l 1,8,-1
 200 500 l 1,9,-1
 400 500 l 1,10,-1
 400 400 l 1,11,-1
 200 400 l 1,12,-1
 200 -100 l 1,13,-1
 100 -100 l 1,14,-1
 100 600 l 1,15,-1
 0 600 l 1,0,-1
400 -100 m 1,16,-1
 400 400 l 1,17,-1
 500 400 l 1,18,-1
 500 -100 l 1,19,-1
 400 -100 l 1,16,-1
EndSplineSet
EndChar

StartChar: Itilde
Encoding: 296 296 234
Width: 700
GlyphClass: 1
Flags: W
LayerCount: 2
Fore
SplineSet
0 700 m 1,0,-1
 0 800 l 1,1,-1
 100 800 l 1,2,-1
 100 700 l 1,3,-1
 0 700 l 1,0,-1
100 -100 m 1,4,-1
 100 0 l 1,5,-1
 200 0 l 1,6,-1
 200 600 l 1,7,-1
 100 600 l 1,8,-1
 100 700 l 1,9,-1
 300 700 l 1,10,-1
 300 800 l 1,11,-1
 400 800 l 1,12,-1
 400 600 l 1,13,-1
 300 600 l 1,14,-1
 300 0 l 1,15,-1
 400 0 l 1,16,-1
 400 -100 l 1,17,-1
 100 -100 l 1,4,-1
100 800 m 1,18,-1
 100 900 l 1,19,-1
 300 900 l 1,20,-1
 300 800 l 1,21,-1
 100 800 l 1,18,-1
400 800 m 1,22,-1
 400 900 l 1,23,-1
 500 900 l 1,24,-1
 500 800 l 1,25,-1
 400 800 l 1,22,-1
EndSplineSet
EndChar

StartChar: itilde
Encoding: 297 297 235
Width: 700
GlyphClass: 1
Flags: W
LayerCount: 2
Fore
SplineSet
0 600 m 1,0,-1
 0 700 l 1,1,-1
 100 700 l 1,2,-1
 100 600 l 1,3,-1
 0 600 l 1,0,-1
100 700 m 1,4,-1
 100 800 l 1,5,-1
 300 800 l 1,6,-1
 300 700 l 1,7,-1
 100 700 l 1,4,-1
200 -100 m 1,8,-1
 200 500 l 1,9,-1
 300 500 l 1,10,-1
 300 -100 l 1,11,-1
 200 -100 l 1,8,-1
300 700 m 1,12,-1
 400 700 l 1,13,-1
 400 600 l 1,14,-1
 300 600 l 1,15,-1
 300 700 l 1,12,-1
400 700 m 1,16,-1
 400 800 l 1,17,-1
 500 800 l 1,18,-1
 500 700 l 1,19,-1
 400 700 l 1,16,-1
EndSplineSet
EndChar

StartChar: Imacron
Encoding: 298 298 236
Width: 500
GlyphClass: 1
Flags: W
LayerCount: 2
Fore
SplineSet
0 -100 m 1,0,-1
 0 0 l 1,1,-1
 100 0 l 1,2,-1
 100 600 l 1,3,-1
 0 600 l 1,4,-1
 0 700 l 1,5,-1
 300 700 l 1,6,-1
 300 600 l 1,7,-1
 200 600 l 1,8,-1
 200 0 l 1,9,-1
 300 0 l 1,10,-1
 300 -100 l 1,11,-1
 0 -100 l 1,0,-1
0 800 m 1,12,-1
 0 900 l 1,13,-1
 300 900 l 1,14,-1
 300 800 l 1,15,-1
 0 800 l 1,12,-1
EndSplineSet
EndChar

StartChar: imacron
Encoding: 299 299 237
Width: 500
GlyphClass: 1
Flags: W
LayerCount: 2
Fore
SplineSet
0 600 m 1,0,-1
 0 700 l 1,1,-1
 300 700 l 1,2,-1
 300 600 l 1,3,-1
 0 600 l 1,0,-1
100 -100 m 1,4,-1
 100 500 l 1,5,-1
 200 500 l 1,6,-1
 200 -100 l 1,7,-1
 100 -100 l 1,4,-1
EndSplineSet
EndChar

StartChar: Ibreve
Encoding: 300 300 238
Width: 700
GlyphClass: 1
Flags: W
LayerCount: 2
Fore
SplineSet
0 800 m 1,0,-1
 0 900 l 1,1,-1
 100 900 l 1,2,-1
 100 800 l 1,3,-1
 0 800 l 1,0,-1
100 -100 m 1,4,-1
 100 0 l 1,5,-1
 200 0 l 1,6,-1
 200 600 l 1,7,-1
 100 600 l 1,8,-1
 100 800 l 1,9,-1
 300 800 l 1,10,-1
 300 700 l 1,11,-1
 400 700 l 1,12,-1
 400 600 l 1,13,-1
 300 600 l 1,14,-1
 300 0 l 1,15,-1
 400 0 l 1,16,-1
 400 -100 l 1,17,-1
 100 -100 l 1,4,-1
300 800 m 1,18,-1
 300 900 l 1,19,-1
 400 900 l 1,20,-1
 400 800 l 1,21,-1
 300 800 l 1,18,-1
EndSplineSet
EndChar

StartChar: ibreve
Encoding: 301 301 239
Width: 700
GlyphClass: 1
Flags: W
LayerCount: 2
Fore
SplineSet
0 700 m 1,0,-1
 0 800 l 1,1,-1
 100 800 l 1,2,-1
 100 700 l 1,3,-1
 0 700 l 1,0,-1
100 700 m 1,4,-1
 300 700 l 1,5,-1
 300 600 l 1,6,-1
 100 600 l 1,7,-1
 100 700 l 1,4,-1
200 -100 m 1,8,-1
 200 500 l 1,9,-1
 300 500 l 1,10,-1
 300 -100 l 1,11,-1
 200 -100 l 1,8,-1
300 700 m 1,12,-1
 300 800 l 1,13,-1
 400 800 l 1,14,-1
 400 700 l 1,15,-1
 300 700 l 1,12,-1
EndSplineSet
EndChar

StartChar: Iogonek
Encoding: 302 302 240
Width: 600
GlyphClass: 1
Flags: W
LayerCount: 2
Fore
SplineSet
0 -100 m 1,0,-1
 0 0 l 1,1,-1
 100 0 l 1,2,-1
 100 700 l 1,3,-1
 0 700 l 1,4,-1
 0 800 l 1,5,-1
 300 800 l 1,6,-1
 300 700 l 1,7,-1
 200 700 l 1,8,-1
 200 0 l 1,9,-1
 300 0 l 1,10,-1
 300 -100 l 1,11,-1
 200 -100 l 1,12,-1
 200 -200 l 1,13,-1
 100 -200 l 1,14,-1
 100 -100 l 1,15,-1
 0 -100 l 1,0,-1
200 -200 m 1,16,-1
 400 -200 l 1,17,-1
 400 -300 l 1,18,-1
 200 -300 l 1,19,-1
 200 -200 l 1,16,-1
EndSplineSet
EndChar

StartChar: iogonek
Encoding: 303 303 241
Width: 500
GlyphClass: 1
Flags: W
LayerCount: 2
Fore
SplineSet
0 -200 m 1,0,-1
 0 500 l 1,1,-1
 100 500 l 1,2,-1
 100 -200 l 1,3,-1
 0 -200 l 1,0,-1
0 600 m 1,4,-1
 0 800 l 1,5,-1
 100 800 l 1,6,-1
 100 600 l 1,7,-1
 0 600 l 1,4,-1
100 -200 m 1,8,-1
 300 -200 l 1,9,-1
 300 -300 l 1,10,-1
 100 -300 l 1,11,-1
 100 -200 l 1,8,-1
EndSplineSet
EndChar

StartChar: Idotaccent
Encoding: 304 304 242
Width: 500
GlyphClass: 1
Flags: W
LayerCount: 2
Fore
SplineSet
0 -100 m 1,0,-1
 0 0 l 1,1,-1
 100 0 l 1,2,-1
 100 600 l 1,3,-1
 0 600 l 1,4,-1
 0 700 l 1,5,-1
 300 700 l 1,6,-1
 300 600 l 1,7,-1
 200 600 l 1,8,-1
 200 0 l 1,9,-1
 300 0 l 1,10,-1
 300 -100 l 1,11,-1
 0 -100 l 1,0,-1
100 800 m 1,12,-1
 100 900 l 1,13,-1
 200 900 l 1,14,-1
 200 800 l 1,15,-1
 100 800 l 1,12,-1
EndSplineSet
EndChar

StartChar: dotlessi
Encoding: 305 305 243
Width: 300
GlyphClass: 1
Flags: W
LayerCount: 2
Fore
SplineSet
0 -100 m 1,0,-1
 0 500 l 1,1,-1
 100 500 l 1,2,-1
 100 -100 l 1,3,-1
 0 -100 l 1,0,-1
EndSplineSet
EndChar

StartChar: IJ
Encoding: 306 306 244
Width: 700
GlyphClass: 1
Flags: W
LayerCount: 2
Fore
SplineSet
0 -100 m 1,0,-1
 0 0 l 1,1,-1
 100 0 l 1,2,-1
 100 700 l 1,3,-1
 0 700 l 1,4,-1
 0 800 l 1,5,-1
 300 800 l 1,6,-1
 300 700 l 1,7,-1
 200 700 l 1,8,-1
 200 100 l 1,9,-1
 300 100 l 1,10,-1
 300 0 l 1,11,-1
 200 0 l 1,12,-1
 200 -100 l 1,13,-1
 0 -100 l 1,0,-1
300 0 m 1,14,-1
 400 0 l 1,15,-1
 400 -100 l 1,16,-1
 300 -100 l 1,17,-1
 300 0 l 1,14,-1
400 0 m 1,18,-1
 400 800 l 1,19,-1
 500 800 l 1,20,-1
 500 0 l 1,21,-1
 400 0 l 1,18,-1
EndSplineSet
EndChar

StartChar: ij
Encoding: 307 307 245
Width: 700
GlyphClass: 1
Flags: W
LayerCount: 2
Fore
SplineSet
0 -100 m 1,0,-1
 0 500 l 1,1,-1
 100 500 l 1,2,-1
 100 -100 l 1,3,-1
 0 -100 l 1,0,-1
0 600 m 1,4,-1
 0 800 l 1,5,-1
 100 800 l 1,6,-1
 100 600 l 1,7,-1
 0 600 l 1,4,-1
200 -200 m 1,8,-1
 200 -100 l 1,9,-1
 400 -100 l 1,10,-1
 400 -200 l 1,11,-1
 200 -200 l 1,8,-1
400 -100 m 1,12,-1
 400 500 l 1,13,-1
 500 500 l 1,14,-1
 500 -100 l 1,15,-1
 400 -100 l 1,12,-1
400 600 m 1,16,-1
 400 800 l 1,17,-1
 500 800 l 1,18,-1
 500 600 l 1,19,-1
 400 600 l 1,16,-1
EndSplineSet
EndChar

StartChar: Jcircumflex
Encoding: 308 308 246
Width: 700
GlyphClass: 1
Flags: W
LayerCount: 2
Fore
SplineSet
0 200 m 1,0,-1
 100 200 l 1,1,-1
 100 0 l 1,2,-1
 0 0 l 1,3,-1
 0 200 l 1,0,-1
100 0 m 1,4,-1
 300 0 l 1,5,-1
 300 -100 l 1,6,-1
 100 -100 l 1,7,-1
 100 0 l 1,4,-1
200 700 m 1,8,-1
 200 800 l 1,9,-1
 300 800 l 1,10,-1
 300 700 l 1,11,-1
 200 700 l 1,8,-1
300 0 m 1,12,-1
 300 700 l 1,13,-1
 400 700 l 1,14,-1
 400 0 l 1,15,-1
 300 0 l 1,12,-1
300 800 m 1,16,-1
 300 900 l 1,17,-1
 400 900 l 1,18,-1
 400 800 l 1,19,-1
 300 800 l 1,16,-1
400 700 m 1,20,-1
 400 800 l 1,21,-1
 500 800 l 1,22,-1
 500 700 l 1,23,-1
 400 700 l 1,20,-1
EndSplineSet
EndChar

StartChar: jcircumflex
Encoding: 309 309 247
Width: 700
GlyphClass: 1
Flags: W
LayerCount: 2
Fore
SplineSet
0 -200 m 1,0,-1
 0 -100 l 1,1,-1
 200 -100 l 1,2,-1
 200 -200 l 1,3,-1
 0 -200 l 1,0,-1
100 600 m 1,4,-1
 100 700 l 1,5,-1
 200 700 l 1,6,-1
 200 600 l 1,7,-1
 100 600 l 1,4,-1
200 -100 m 1,8,-1
 200 500 l 1,9,-1
 300 500 l 1,10,-1
 300 -100 l 1,11,-1
 200 -100 l 1,8,-1
200 700 m 1,12,-1
 200 800 l 1,13,-1
 300 800 l 1,14,-1
 300 700 l 1,15,-1
 200 700 l 1,12,-1
300 700 m 1,16,-1
 400 700 l 1,17,-1
 400 600 l 1,18,-1
 300 600 l 1,19,-1
 300 700 l 1,16,-1
EndSplineSet
EndChar

StartChar: Kcommaaccent
Encoding: 310 310 248
Width: 700
GlyphClass: 1
Flags: W
LayerCount: 2
Fore
SplineSet
0 -200 m 1,0,-1
 100 -200 l 1,1,-1
 100 -300 l 1,2,-1
 0 -300 l 1,3,-1
 0 -200 l 1,0,-1
0 -100 m 1,4,-1
 0 800 l 1,5,-1
 100 800 l 1,6,-1
 100 400 l 1,7,-1
 200 400 l 1,8,-1
 200 300 l 1,9,-1
 100 300 l 1,10,-1
 100 0 l 1,11,-1
 200 0 l 1,12,-1
 200 -200 l 1,13,-1
 100 -200 l 1,14,-1
 100 -100 l 1,15,-1
 0 -100 l 1,4,-1
200 100 m 1,16,-1
 200 300 l 1,17,-1
 300 300 l 1,18,-1
 300 100 l 1,19,-1
 200 100 l 1,16,-1
200 400 m 1,20,-1
 200 600 l 1,21,-1
 300 600 l 1,22,-1
 300 400 l 1,23,-1
 200 400 l 1,20,-1
400 -100 m 1,24,-1
 300 -100 l 1,25,-1
 300 100 l 1,26,-1
 400 100 l 1,27,-1
 400 -100 l 1,24,-1
400 600 m 1,28,-1
 300 600 l 1,29,-1
 300 800 l 1,30,-1
 400 800 l 1,31,-1
 400 600 l 1,28,-1
EndSplineSet
EndChar

StartChar: kcommaaccent
Encoding: 311 311 249
Width: 700
GlyphClass: 1
Flags: W
LayerCount: 2
Fore
SplineSet
0 -200 m 1,0,-1
 100 -200 l 1,1,-1
 100 -300 l 1,2,-1
 0 -300 l 1,3,-1
 0 -200 l 1,0,-1
0 -100 m 1,4,-1
 0 800 l 1,5,-1
 100 800 l 1,6,-1
 100 200 l 1,7,-1
 200 200 l 1,8,-1
 200 300 l 1,9,-1
 300 300 l 1,10,-1
 300 100 l 1,11,-1
 100 100 l 1,12,-1
 100 0 l 1,13,-1
 200 0 l 1,14,-1
 200 -200 l 1,15,-1
 100 -200 l 1,16,-1
 100 -100 l 1,17,-1
 0 -100 l 1,4,-1
400 100 m 1,18,-1
 400 0 l 1,19,-1
 300 0 l 1,20,-1
 300 100 l 1,21,-1
 400 100 l 1,18,-1
400 0 m 1,22,-1
 500 0 l 1,23,-1
 500 -100 l 1,24,-1
 400 -100 l 1,25,-1
 400 0 l 1,22,-1
400 400 m 1,26,-1
 400 500 l 1,27,-1
 500 500 l 1,28,-1
 500 400 l 1,29,-1
 400 400 l 1,26,-1
400 300 m 1,30,-1
 300 300 l 1,31,-1
 300 400 l 1,32,-1
 400 400 l 1,33,-1
 400 300 l 1,30,-1
EndSplineSet
EndChar

StartChar: kgreenlandic
Encoding: 312 312 250
Width: 700
GlyphClass: 1
Flags: W
LayerCount: 2
Fore
SplineSet
0 -100 m 1,0,-1
 0 500 l 1,1,-1
 100 500 l 1,2,-1
 100 200 l 1,3,-1
 200 200 l 1,4,-1
 200 300 l 1,5,-1
 300 300 l 1,6,-1
 300 100 l 1,7,-1
 100 100 l 1,8,-1
 100 -100 l 1,9,-1
 0 -100 l 1,0,-1
300 100 m 1,10,-1
 400 100 l 1,11,-1
 400 0 l 1,12,-1
 300 0 l 1,13,-1
 300 100 l 1,10,-1
300 300 m 1,14,-1
 300 400 l 1,15,-1
 400 400 l 1,16,-1
 400 300 l 1,17,-1
 300 300 l 1,14,-1
400 0 m 1,18,-1
 500 0 l 1,19,-1
 500 -100 l 1,20,-1
 400 -100 l 1,21,-1
 400 0 l 1,18,-1
400 400 m 1,22,-1
 400 500 l 1,23,-1
 500 500 l 1,24,-1
 500 400 l 1,25,-1
 400 400 l 1,22,-1
EndSplineSet
EndChar

StartChar: Lacute
Encoding: 313 313 251
Width: 700
GlyphClass: 1
Flags: W
LayerCount: 2
Fore
SplineSet
0 -100 m 1,0,-1
 0 700 l 1,1,-1
 100 700 l 1,2,-1
 100 0 l 1,3,-1
 500 0 l 1,4,-1
 500 -100 l 1,5,-1
 0 -100 l 1,0,-1
100 700 m 1,6,-1
 100 800 l 1,7,-1
 200 800 l 1,8,-1
 200 700 l 1,9,-1
 100 700 l 1,6,-1
200 800 m 1,10,-1
 200 900 l 1,11,-1
 300 900 l 1,12,-1
 300 800 l 1,13,-1
 200 800 l 1,10,-1
EndSplineSet
EndChar

StartChar: lacute
Encoding: 314 314 252
Width: 400
GlyphClass: 1
Flags: W
LayerCount: 2
Fore
SplineSet
0 -100 m 1,0,-1
 0 800 l 1,1,-1
 100 800 l 1,2,-1
 100 -100 l 1,3,-1
 0 -100 l 1,0,-1
100 800 m 1,4,-1
 100 900 l 1,5,-1
 200 900 l 1,6,-1
 200 800 l 1,7,-1
 100 800 l 1,4,-1
EndSplineSet
EndChar

StartChar: Lcommaaccent
Encoding: 315 315 253
Width: 700
GlyphClass: 1
Flags: W
LayerCount: 2
Fore
SplineSet
0 -100 m 1,0,-1
 0 800 l 1,1,-1
 100 800 l 1,2,-1
 100 0 l 1,3,-1
 500 0 l 1,4,-1
 500 -100 l 1,5,-1
 300 -100 l 1,6,-1
 300 -200 l 1,7,-1
 200 -200 l 1,8,-1
 200 -100 l 1,9,-1
 0 -100 l 1,0,-1
100 -200 m 1,10,-1
 200 -200 l 1,11,-1
 200 -300 l 1,12,-1
 100 -300 l 1,13,-1
 100 -200 l 1,10,-1
EndSplineSet
EndChar

StartChar: lcommaaccent
Encoding: 316 316 254
Width: 400
GlyphClass: 1
Flags: W
LayerCount: 2
Fore
SplineSet
0 -200 m 1,0,-1
 100 -200 l 1,1,-1
 100 -300 l 1,2,-1
 0 -300 l 1,3,-1
 0 -200 l 1,0,-1
0 -100 m 1,4,-1
 0 800 l 1,5,-1
 100 800 l 1,6,-1
 100 0 l 1,7,-1
 200 0 l 1,8,-1
 200 -200 l 1,9,-1
 100 -200 l 1,10,-1
 100 -100 l 1,11,-1
 0 -100 l 1,4,-1
EndSplineSet
EndChar

StartChar: Lcaron
Encoding: 317 317 255
Width: 700
GlyphClass: 1
Flags: W
LayerCount: 2
Fore
SplineSet
0 -100 m 1,0,-1
 0 800 l 1,1,-1
 100 800 l 1,2,-1
 100 0 l 1,3,-1
 500 0 l 1,4,-1
 500 -100 l 1,5,-1
 0 -100 l 1,0,-1
200 500 m 1,6,-1
 200 600 l 1,7,-1
 300 600 l 1,8,-1
 300 500 l 1,9,-1
 200 500 l 1,6,-1
200 700 m 1,10,-1
 200 800 l 1,11,-1
 400 800 l 1,12,-1
 400 600 l 1,13,-1
 300 600 l 1,14,-1
 300 700 l 1,15,-1
 200 700 l 1,10,-1
EndSplineSet
EndChar

StartChar: lcaron
Encoding: 318 318 256
Width: 600
GlyphClass: 1
Flags: W
LayerCount: 2
Fore
SplineSet
0 -100 m 1,0,-1
 0 800 l 1,1,-1
 100 800 l 1,2,-1
 100 -100 l 1,3,-1
 0 -100 l 1,0,-1
200 500 m 1,4,-1
 200 600 l 1,5,-1
 300 600 l 1,6,-1
 300 500 l 1,7,-1
 200 500 l 1,4,-1
200 700 m 1,8,-1
 200 800 l 1,9,-1
 400 800 l 1,10,-1
 400 600 l 1,11,-1
 300 600 l 1,12,-1
 300 700 l 1,13,-1
 200 700 l 1,8,-1
EndSplineSet
EndChar

StartChar: Ldot
Encoding: 319 319 257
Width: 700
GlyphClass: 1
Flags: W
LayerCount: 2
Fore
SplineSet
0 -100 m 1,0,-1
 0 800 l 1,1,-1
 100 800 l 1,2,-1
 100 0 l 1,3,-1
 500 0 l 1,4,-1
 500 -100 l 1,5,-1
 0 -100 l 1,0,-1
200 400 m 1,6,-1
 200 500 l 1,7,-1
 300 500 l 1,8,-1
 300 400 l 1,9,-1
 200 400 l 1,6,-1
EndSplineSet
EndChar

StartChar: ldot
Encoding: 320 320 258
Width: 500
GlyphClass: 1
Flags: W
LayerCount: 2
Fore
SplineSet
0 -100 m 1,0,-1
 0 800 l 1,1,-1
 100 800 l 1,2,-1
 100 -100 l 1,3,-1
 0 -100 l 1,0,-1
200 400 m 1,4,-1
 200 500 l 1,5,-1
 300 500 l 1,6,-1
 300 400 l 1,7,-1
 200 400 l 1,4,-1
EndSplineSet
EndChar

StartChar: Lslash
Encoding: 321 321 259
Width: 700
GlyphClass: 1
Flags: W
LayerCount: 2
Fore
SplineSet
0 -100 m 1,0,-1
 0 800 l 1,1,-1
 100 800 l 1,2,-1
 100 500 l 1,3,-1
 200 500 l 1,4,-1
 200 400 l 1,5,-1
 100 400 l 1,6,-1
 100 0 l 1,7,-1
 500 0 l 1,8,-1
 500 -100 l 1,9,-1
 0 -100 l 1,0,-1
200 500 m 1,10,-1
 200 600 l 1,11,-1
 300 600 l 1,12,-1
 300 500 l 1,13,-1
 200 500 l 1,10,-1
EndSplineSet
EndChar

StartChar: lslash
Encoding: 322 322 260
Width: 600
GlyphClass: 1
Flags: W
LayerCount: 2
Fore
SplineSet
0 300 m 1,0,-1
 0 400 l 1,1,-1
 100 400 l 1,2,-1
 100 800 l 1,3,-1
 200 800 l 1,4,-1
 200 500 l 1,5,-1
 300 500 l 1,6,-1
 300 400 l 1,7,-1
 200 400 l 1,8,-1
 200 -100 l 1,9,-1
 100 -100 l 1,10,-1
 100 300 l 1,11,-1
 0 300 l 1,0,-1
300 500 m 1,12,-1
 300 600 l 1,13,-1
 400 600 l 1,14,-1
 400 500 l 1,15,-1
 300 500 l 1,12,-1
EndSplineSet
EndChar

StartChar: Nacute
Encoding: 323 323 261
Width: 700
GlyphClass: 1
Flags: W
LayerCount: 2
Fore
SplineSet
0 -100 m 1,0,-1
 0 700 l 1,1,-1
 200 700 l 1,2,-1
 200 500 l 1,3,-1
 100 500 l 1,4,-1
 100 -100 l 1,5,-1
 0 -100 l 1,0,-1
200 200 m 1,6,-1
 200 500 l 1,7,-1
 300 500 l 1,8,-1
 300 200 l 1,9,-1
 200 200 l 1,6,-1
200 700 m 1,10,-1
 200 800 l 1,11,-1
 300 800 l 1,12,-1
 300 700 l 1,13,-1
 200 700 l 1,10,-1
300 200 m 1,14,-1
 400 200 l 1,15,-1
 400 700 l 1,16,-1
 500 700 l 1,17,-1
 500 -100 l 1,18,-1
 400 -100 l 1,19,-1
 400 0 l 1,20,-1
 300 0 l 1,21,-1
 300 200 l 1,14,-1
300 800 m 1,22,-1
 300 900 l 1,23,-1
 400 900 l 1,24,-1
 400 800 l 1,25,-1
 300 800 l 1,22,-1
EndSplineSet
EndChar

StartChar: nacute
Encoding: 324 324 262
Width: 700
GlyphClass: 1
Flags: W
LayerCount: 2
Fore
SplineSet
0 -100 m 1,0,-1
 0 500 l 1,1,-1
 400 500 l 1,2,-1
 400 400 l 1,3,-1
 100 400 l 1,4,-1
 100 -100 l 1,5,-1
 0 -100 l 1,0,-1
100 600 m 1,6,-1
 100 700 l 1,7,-1
 200 700 l 1,8,-1
 200 600 l 1,9,-1
 100 600 l 1,6,-1
200 700 m 1,10,-1
 200 800 l 1,11,-1
 300 800 l 1,12,-1
 300 700 l 1,13,-1
 200 700 l 1,10,-1
400 -100 m 1,14,-1
 400 400 l 1,15,-1
 500 400 l 1,16,-1
 500 -100 l 1,17,-1
 400 -100 l 1,14,-1
EndSplineSet
EndChar

StartChar: Ncommaaccent
Encoding: 325 325 263
Width: 700
GlyphClass: 1
Flags: W
LayerCount: 2
Fore
SplineSet
0 -100 m 1,0,-1
 0 800 l 1,1,-1
 100 800 l 1,2,-1
 100 700 l 1,3,-1
 200 700 l 1,4,-1
 200 500 l 1,5,-1
 100 500 l 1,6,-1
 100 0 l 1,7,-1
 300 0 l 1,8,-1
 300 -200 l 1,9,-1
 200 -200 l 1,10,-1
 200 -100 l 1,11,-1
 0 -100 l 1,0,-1
100 -200 m 1,12,-1
 200 -200 l 1,13,-1
 200 -300 l 1,14,-1
 100 -300 l 1,15,-1
 100 -200 l 1,12,-1
200 200 m 1,16,-1
 200 500 l 1,17,-1
 300 500 l 1,18,-1
 300 200 l 1,19,-1
 200 200 l 1,16,-1
300 200 m 1,20,-1
 400 200 l 1,21,-1
 400 800 l 1,22,-1
 500 800 l 1,23,-1
 500 -100 l 1,24,-1
 400 -100 l 1,25,-1
 400 0 l 1,26,-1
 300 0 l 1,27,-1
 300 200 l 1,20,-1
EndSplineSet
EndChar

StartChar: ncommaaccent
Encoding: 326 326 264
Width: 700
GlyphClass: 1
Flags: W
LayerCount: 2
Fore
SplineSet
0 -100 m 1,0,-1
 0 500 l 1,1,-1
 400 500 l 1,2,-1
 400 400 l 1,3,-1
 100 400 l 1,4,-1
 100 0 l 1,5,-1
 300 0 l 1,6,-1
 300 -200 l 1,7,-1
 200 -200 l 1,8,-1
 200 -100 l 1,9,-1
 0 -100 l 1,0,-1
100 -200 m 1,10,-1
 200 -200 l 1,11,-1
 200 -300 l 1,12,-1
 100 -300 l 1,13,-1
 100 -200 l 1,10,-1
400 -100 m 1,14,-1
 400 400 l 1,15,-1
 500 400 l 1,16,-1
 500 -100 l 1,17,-1
 400 -100 l 1,14,-1
EndSplineSet
EndChar

StartChar: Ncaron
Encoding: 327 327 265
Width: 700
GlyphClass: 1
Flags: W
LayerCount: 2
Fore
SplineSet
0 -100 m 1,0,-1
 0 700 l 1,1,-1
 100 700 l 1,2,-1
 100 600 l 1,3,-1
 200 600 l 1,4,-1
 200 400 l 1,5,-1
 100 400 l 1,6,-1
 100 -100 l 1,7,-1
 0 -100 l 1,0,-1
200 200 m 1,8,-1
 200 400 l 1,9,-1
 300 400 l 1,10,-1
 300 200 l 1,11,-1
 200 200 l 1,8,-1
200 700 m 1,12,-1
 200 800 l 1,13,-1
 300 800 l 1,14,-1
 300 700 l 1,15,-1
 200 700 l 1,12,-1
200 900 m 1,16,-1
 200 800 l 1,17,-1
 100 800 l 1,18,-1
 100 900 l 1,19,-1
 200 900 l 1,16,-1
400 0 m 1,20,-1
 300 0 l 1,21,-1
 300 200 l 1,22,-1
 400 200 l 1,23,-1
 400 700 l 1,24,-1
 500 700 l 1,25,-1
 500 -100 l 1,26,-1
 400 -100 l 1,27,-1
 400 0 l 1,20,-1
400 900 m 1,28,-1
 400 800 l 1,29,-1
 300 800 l 1,30,-1
 300 900 l 1,31,-1
 400 900 l 1,28,-1
EndSplineSet
EndChar

StartChar: ncaron
Encoding: 328 328 266
Width: 700
GlyphClass: 1
Flags: W
LayerCount: 2
Fore
SplineSet
0 -100 m 1,0,-1
 0 500 l 1,1,-1
 400 500 l 1,2,-1
 400 400 l 1,3,-1
 100 400 l 1,4,-1
 100 -100 l 1,5,-1
 0 -100 l 1,0,-1
100 700 m 1,6,-1
 100 800 l 1,7,-1
 200 800 l 1,8,-1
 200 700 l 1,9,-1
 100 700 l 1,6,-1
200 700 m 1,10,-1
 300 700 l 1,11,-1
 300 600 l 1,12,-1
 200 600 l 1,13,-1
 200 700 l 1,10,-1
300 700 m 1,14,-1
 300 800 l 1,15,-1
 400 800 l 1,16,-1
 400 700 l 1,17,-1
 300 700 l 1,14,-1
400 -100 m 1,18,-1
 400 400 l 1,19,-1
 500 400 l 1,20,-1
 500 -100 l 1,21,-1
 400 -100 l 1,18,-1
EndSplineSet
EndChar

StartChar: napostrophe
Encoding: 329 329 267
Width: 700
GlyphClass: 1
Flags: W
LayerCount: 2
Fore
SplineSet
0 -100 m 1,0,-1
 0 500 l 1,1,-1
 400 500 l 1,2,-1
 400 400 l 1,3,-1
 100 400 l 1,4,-1
 100 -100 l 1,5,-1
 0 -100 l 1,0,-1
0 600 m 1,6,-1
 0 800 l 1,7,-1
 100 800 l 1,8,-1
 100 600 l 1,9,-1
 0 600 l 1,6,-1
400 -100 m 1,10,-1
 400 400 l 1,11,-1
 500 400 l 1,12,-1
 500 -100 l 1,13,-1
 400 -100 l 1,10,-1
EndSplineSet
EndChar

StartChar: Eng
Encoding: 330 330 268
Width: 700
GlyphClass: 1
Flags: W
LayerCount: 2
Fore
SplineSet
0 -100 m 1,0,-1
 0 700 l 1,1,-1
 100 700 l 1,2,-1
 100 600 l 1,3,-1
 200 600 l 1,4,-1
 200 400 l 1,5,-1
 100 400 l 1,6,-1
 100 -100 l 1,7,-1
 0 -100 l 1,0,-1
200 200 m 1,8,-1
 200 400 l 1,9,-1
 300 400 l 1,10,-1
 300 200 l 1,11,-1
 200 200 l 1,8,-1
200 -200 m 1,12,-1
 400 -200 l 1,13,-1
 400 -300 l 1,14,-1
 200 -300 l 1,15,-1
 200 -200 l 1,12,-1
300 200 m 1,16,-1
 400 200 l 1,17,-1
 400 700 l 1,18,-1
 500 700 l 1,19,-1
 500 -200 l 1,20,-1
 400 -200 l 1,21,-1
 400 0 l 1,22,-1
 300 0 l 1,23,-1
 300 200 l 1,16,-1
EndSplineSet
EndChar

StartChar: eng
Encoding: 331 331 269
Width: 700
GlyphClass: 1
Flags: W
LayerCount: 2
Fore
SplineSet
0 -100 m 1,0,-1
 0 500 l 1,1,-1
 100 500 l 1,2,-1
 100 400 l 1,3,-1
 200 400 l 1,4,-1
 200 300 l 1,5,-1
 100 300 l 1,6,-1
 100 -100 l 1,7,-1
 0 -100 l 1,0,-1
200 -200 m 1,8,-1
 200 -100 l 1,9,-1
 400 -100 l 1,10,-1
 400 -200 l 1,11,-1
 200 -200 l 1,8,-1
200 400 m 1,12,-1
 200 500 l 1,13,-1
 400 500 l 1,14,-1
 400 400 l 1,15,-1
 200 400 l 1,12,-1
400 -100 m 1,16,-1
 400 400 l 1,17,-1
 500 400 l 1,18,-1
 500 -100 l 1,19,-1
 400 -100 l 1,16,-1
EndSplineSet
EndChar

StartChar: Omacron
Encoding: 332 332 270
Width: 700
GlyphClass: 1
Flags: W
LayerCount: 2
Fore
SplineSet
0 0 m 1,0,-1
 0 600 l 1,1,-1
 100 600 l 1,2,-1
 100 0 l 1,3,-1
 0 0 l 1,0,-1
100 0 m 1,4,-1
 400 0 l 1,5,-1
 400 -100 l 1,6,-1
 100 -100 l 1,7,-1
 100 0 l 1,4,-1
100 600 m 1,8,-1
 100 700 l 1,9,-1
 400 700 l 1,10,-1
 400 600 l 1,11,-1
 100 600 l 1,8,-1
100 800 m 1,12,-1
 100 900 l 1,13,-1
 400 900 l 1,14,-1
 400 800 l 1,15,-1
 100 800 l 1,12,-1
400 0 m 1,16,-1
 400 600 l 1,17,-1
 500 600 l 1,18,-1
 500 0 l 1,19,-1
 400 0 l 1,16,-1
EndSplineSet
EndChar

StartChar: omacron
Encoding: 333 333 271
Width: 700
GlyphClass: 1
Flags: W
LayerCount: 2
Fore
SplineSet
0 0 m 1,0,-1
 0 400 l 1,1,-1
 100 400 l 1,2,-1
 100 0 l 1,3,-1
 0 0 l 1,0,-1
100 0 m 1,4,-1
 400 0 l 1,5,-1
 400 -100 l 1,6,-1
 100 -100 l 1,7,-1
 100 0 l 1,4,-1
100 400 m 1,8,-1
 100 500 l 1,9,-1
 400 500 l 1,10,-1
 400 400 l 1,11,-1
 100 400 l 1,8,-1
100 600 m 1,12,-1
 100 700 l 1,13,-1
 400 700 l 1,14,-1
 400 600 l 1,15,-1
 100 600 l 1,12,-1
400 0 m 1,16,-1
 400 400 l 1,17,-1
 500 400 l 1,18,-1
 500 0 l 1,19,-1
 400 0 l 1,16,-1
EndSplineSet
EndChar

StartChar: Obreve
Encoding: 334 334 272
Width: 700
GlyphClass: 1
Flags: W
LayerCount: 2
Fore
SplineSet
0 0 m 1,0,-1
 0 600 l 1,1,-1
 100 600 l 1,2,-1
 100 0 l 1,3,-1
 0 0 l 1,0,-1
0 800 m 1,4,-1
 0 900 l 1,5,-1
 100 900 l 1,6,-1
 100 800 l 1,7,-1
 0 800 l 1,4,-1
100 0 m 1,8,-1
 400 0 l 1,9,-1
 400 -100 l 1,10,-1
 100 -100 l 1,11,-1
 100 0 l 1,8,-1
100 600 m 1,12,-1
 100 800 l 1,13,-1
 300 800 l 1,14,-1
 300 700 l 1,15,-1
 400 700 l 1,16,-1
 400 600 l 1,17,-1
 100 600 l 1,12,-1
300 800 m 1,18,-1
 300 900 l 1,19,-1
 400 900 l 1,20,-1
 400 800 l 1,21,-1
 300 800 l 1,18,-1
400 0 m 1,22,-1
 400 600 l 1,23,-1
 500 600 l 1,24,-1
 500 0 l 1,25,-1
 400 0 l 1,22,-1
EndSplineSet
EndChar

StartChar: obreve
Encoding: 335 335 273
Width: 700
GlyphClass: 1
Flags: W
LayerCount: 2
Fore
SplineSet
0 0 m 1,0,-1
 0 400 l 1,1,-1
 100 400 l 1,2,-1
 100 0 l 1,3,-1
 0 0 l 1,0,-1
0 700 m 1,4,-1
 0 800 l 1,5,-1
 100 800 l 1,6,-1
 100 700 l 1,7,-1
 0 700 l 1,4,-1
100 0 m 1,8,-1
 400 0 l 1,9,-1
 400 -100 l 1,10,-1
 100 -100 l 1,11,-1
 100 0 l 1,8,-1
100 400 m 1,12,-1
 100 500 l 1,13,-1
 400 500 l 1,14,-1
 400 400 l 1,15,-1
 100 400 l 1,12,-1
100 700 m 1,16,-1
 300 700 l 1,17,-1
 300 600 l 1,18,-1
 100 600 l 1,19,-1
 100 700 l 1,16,-1
300 700 m 1,20,-1
 300 800 l 1,21,-1
 400 800 l 1,22,-1
 400 700 l 1,23,-1
 300 700 l 1,20,-1
400 0 m 1,24,-1
 400 400 l 1,25,-1
 500 400 l 1,26,-1
 500 0 l 1,27,-1
 400 0 l 1,24,-1
EndSplineSet
EndChar

StartChar: Ohungarumlaut
Encoding: 336 336 274
Width: 700
GlyphClass: 1
Flags: W
LayerCount: 2
Fore
SplineSet
0 0 m 1,0,-1
 0 600 l 1,1,-1
 100 600 l 1,2,-1
 100 0 l 1,3,-1
 0 0 l 1,0,-1
0 700 m 1,4,-1
 0 800 l 1,5,-1
 100 800 l 1,6,-1
 100 700 l 1,7,-1
 0 700 l 1,4,-1
100 0 m 1,8,-1
 400 0 l 1,9,-1
 400 -100 l 1,10,-1
 100 -100 l 1,11,-1
 100 0 l 1,8,-1
100 700 m 1,12,-1
 300 700 l 1,13,-1
 300 800 l 1,14,-1
 400 800 l 1,15,-1
 400 600 l 1,16,-1
 100 600 l 1,17,-1
 100 700 l 1,12,-1
100 800 m 1,18,-1
 100 900 l 1,19,-1
 200 900 l 1,20,-1
 200 800 l 1,21,-1
 100 800 l 1,18,-1
400 0 m 1,22,-1
 400 600 l 1,23,-1
 500 600 l 1,24,-1
 500 0 l 1,25,-1
 400 0 l 1,22,-1
400 800 m 1,26,-1
 400 900 l 1,27,-1
 500 900 l 1,28,-1
 500 800 l 1,29,-1
 400 800 l 1,26,-1
EndSplineSet
EndChar

StartChar: ohungarumlaut
Encoding: 337 337 275
Width: 700
GlyphClass: 1
Flags: W
LayerCount: 2
Fore
SplineSet
0 0 m 1,0,-1
 0 400 l 1,1,-1
 100 400 l 1,2,-1
 100 0 l 1,3,-1
 0 0 l 1,0,-1
0 600 m 1,4,-1
 0 700 l 1,5,-1
 100 700 l 1,6,-1
 100 600 l 1,7,-1
 0 600 l 1,4,-1
200 700 m 1,8,-1
 100 700 l 1,9,-1
 100 800 l 1,10,-1
 200 800 l 1,11,-1
 200 700 l 1,8,-1
400 0 m 1,12,-1
 400 -100 l 1,13,-1
 100 -100 l 1,14,-1
 100 0 l 1,15,-1
 400 0 l 1,12,-1
400 500 m 1,16,-1
 400 400 l 1,17,-1
 100 400 l 1,18,-1
 100 500 l 1,19,-1
 400 500 l 1,16,-1
400 400 m 1,20,-1
 500 400 l 1,21,-1
 500 0 l 1,22,-1
 400 0 l 1,23,-1
 400 400 l 1,20,-1
400 700 m 1,24,-1
 400 600 l 1,25,-1
 300 600 l 1,26,-1
 300 700 l 1,27,-1
 400 700 l 1,24,-1
400 800 m 1,28,-1
 500 800 l 1,29,-1
 500 700 l 1,30,-1
 400 700 l 1,31,-1
 400 800 l 1,28,-1
EndSplineSet
EndChar

StartChar: OE
Encoding: 338 338 276
Width: 700
GlyphClass: 1
Flags: W
LayerCount: 2
Fore
SplineSet
0 0 m 1,0,-1
 0 700 l 1,1,-1
 100 700 l 1,2,-1
 100 0 l 1,3,-1
 0 0 l 1,0,-1
100 0 m 1,4,-1
 200 0 l 1,5,-1
 200 700 l 1,6,-1
 100 700 l 1,7,-1
 100 800 l 1,8,-1
 500 800 l 1,9,-1
 500 700 l 1,10,-1
 300 700 l 1,11,-1
 300 400 l 1,12,-1
 500 400 l 1,13,-1
 500 300 l 1,14,-1
 300 300 l 1,15,-1
 300 0 l 1,16,-1
 500 0 l 1,17,-1
 500 -100 l 1,18,-1
 100 -100 l 1,19,-1
 100 0 l 1,4,-1
EndSplineSet
EndChar

StartChar: oe
Encoding: 339 339 277
Width: 700
GlyphClass: 1
Flags: W
LayerCount: 2
Fore
SplineSet
0 0 m 1,0,-1
 0 400 l 1,1,-1
 100 400 l 1,2,-1
 100 0 l 1,3,-1
 0 0 l 1,0,-1
200 0 m 1,4,-1
 200 -100 l 1,5,-1
 100 -100 l 1,6,-1
 100 0 l 1,7,-1
 200 0 l 1,4,-1
200 500 m 1,8,-1
 200 400 l 1,9,-1
 100 400 l 1,10,-1
 100 500 l 1,11,-1
 200 500 l 1,8,-1
200 400 m 1,12,-1
 300 400 l 1,13,-1
 300 300 l 1,14,-1
 400 300 l 1,15,-1
 400 400 l 1,16,-1
 500 400 l 1,17,-1
 500 200 l 1,18,-1
 300 200 l 1,19,-1
 300 0 l 1,20,-1
 200 0 l 1,21,-1
 200 400 l 1,12,-1
400 0 m 1,22,-1
 400 100 l 1,23,-1
 500 100 l 1,24,-1
 500 0 l 1,25,-1
 400 0 l 1,22,-1
400 -100 m 1,26,-1
 300 -100 l 1,27,-1
 300 0 l 1,28,-1
 400 0 l 1,29,-1
 400 -100 l 1,26,-1
400 500 m 1,30,-1
 400 400 l 1,31,-1
 300 400 l 1,32,-1
 300 500 l 1,33,-1
 400 500 l 1,30,-1
EndSplineSet
EndChar

StartChar: Racute
Encoding: 340 340 278
Width: 700
GlyphClass: 1
Flags: W
LayerCount: 2
Fore
SplineSet
0 -100 m 1,0,-1
 0 700 l 1,1,-1
 100 700 l 1,2,-1
 100 800 l 1,3,-1
 200 800 l 1,4,-1
 200 700 l 1,5,-1
 400 700 l 1,6,-1
 400 600 l 1,7,-1
 100 600 l 1,8,-1
 100 300 l 1,9,-1
 400 300 l 1,10,-1
 400 100 l 1,11,-1
 300 100 l 1,12,-1
 300 200 l 1,13,-1
 100 200 l 1,14,-1
 100 -100 l 1,15,-1
 0 -100 l 1,0,-1
200 800 m 1,16,-1
 200 900 l 1,17,-1
 300 900 l 1,18,-1
 300 800 l 1,19,-1
 200 800 l 1,16,-1
400 100 m 1,20,-1
 500 100 l 1,21,-1
 500 -100 l 1,22,-1
 400 -100 l 1,23,-1
 400 100 l 1,20,-1
400 300 m 1,24,-1
 400 600 l 1,25,-1
 500 600 l 1,26,-1
 500 300 l 1,27,-1
 400 300 l 1,24,-1
EndSplineSet
EndChar

StartChar: racute
Encoding: 341 341 279
Width: 600
GlyphClass: 1
Flags: W
LayerCount: 2
Fore
SplineSet
0 -100 m 1,0,-1
 0 500 l 1,1,-1
 100 500 l 1,2,-1
 100 400 l 1,3,-1
 200 400 l 1,4,-1
 200 300 l 1,5,-1
 100 300 l 1,6,-1
 100 -100 l 1,7,-1
 0 -100 l 1,0,-1
100 600 m 1,8,-1
 100 700 l 1,9,-1
 200 700 l 1,10,-1
 200 600 l 1,11,-1
 100 600 l 1,8,-1
200 400 m 1,12,-1
 200 500 l 1,13,-1
 400 500 l 1,14,-1
 400 400 l 1,15,-1
 200 400 l 1,12,-1
200 700 m 1,16,-1
 200 800 l 1,17,-1
 300 800 l 1,18,-1
 300 700 l 1,19,-1
 200 700 l 1,16,-1
EndSplineSet
EndChar

StartChar: Rcommaaccent
Encoding: 342 342 280
Width: 700
GlyphClass: 1
Flags: W
LayerCount: 2
Fore
SplineSet
0 -100 m 1,0,-1
 0 800 l 1,1,-1
 400 800 l 1,2,-1
 400 700 l 1,3,-1
 100 700 l 1,4,-1
 100 400 l 1,5,-1
 400 400 l 1,6,-1
 400 200 l 1,7,-1
 300 200 l 1,8,-1
 300 300 l 1,9,-1
 100 300 l 1,10,-1
 100 0 l 1,11,-1
 300 0 l 1,12,-1
 300 -200 l 1,13,-1
 200 -200 l 1,14,-1
 200 -100 l 1,15,-1
 0 -100 l 1,0,-1
100 -200 m 1,16,-1
 200 -200 l 1,17,-1
 200 -300 l 1,18,-1
 100 -300 l 1,19,-1
 100 -200 l 1,16,-1
400 200 m 1,20,-1
 500 200 l 1,21,-1
 500 -100 l 1,22,-1
 400 -100 l 1,23,-1
 400 200 l 1,20,-1
400 400 m 1,24,-1
 400 700 l 1,25,-1
 500 700 l 1,26,-1
 500 400 l 1,27,-1
 400 400 l 1,24,-1
EndSplineSet
EndChar

StartChar: rcommaaccent
Encoding: 343 343 281
Width: 700
GlyphClass: 1
Flags: W
LayerCount: 2
Fore
SplineSet
0 -100 m 1,0,-1
 0 500 l 1,1,-1
 100 500 l 1,2,-1
 100 400 l 1,3,-1
 200 400 l 1,4,-1
 200 300 l 1,5,-1
 100 300 l 1,6,-1
 100 0 l 1,7,-1
 300 0 l 1,8,-1
 300 -200 l 1,9,-1
 200 -200 l 1,10,-1
 200 -100 l 1,11,-1
 0 -100 l 1,0,-1
100 -200 m 1,12,-1
 200 -200 l 1,13,-1
 200 -300 l 1,14,-1
 100 -300 l 1,15,-1
 100 -200 l 1,12,-1
200 400 m 1,16,-1
 200 500 l 1,17,-1
 400 500 l 1,18,-1
 400 400 l 1,19,-1
 200 400 l 1,16,-1
EndSplineSet
EndChar

StartChar: Rcaron
Encoding: 344 344 282
Width: 700
GlyphClass: 1
Flags: W
LayerCount: 2
Fore
SplineSet
0 -100 m 1,0,-1
 0 700 l 1,1,-1
 200 700 l 1,2,-1
 200 800 l 1,3,-1
 300 800 l 1,4,-1
 300 700 l 1,5,-1
 400 700 l 1,6,-1
 400 600 l 1,7,-1
 100 600 l 1,8,-1
 100 300 l 1,9,-1
 400 300 l 1,10,-1
 400 100 l 1,11,-1
 300 100 l 1,12,-1
 300 200 l 1,13,-1
 100 200 l 1,14,-1
 100 -100 l 1,15,-1
 0 -100 l 1,0,-1
200 900 m 1,16,-1
 200 800 l 1,17,-1
 100 800 l 1,18,-1
 100 900 l 1,19,-1
 200 900 l 1,16,-1
400 100 m 1,20,-1
 500 100 l 1,21,-1
 500 -100 l 1,22,-1
 400 -100 l 1,23,-1
 400 100 l 1,20,-1
400 300 m 1,24,-1
 400 600 l 1,25,-1
 500 600 l 1,26,-1
 500 300 l 1,27,-1
 400 300 l 1,24,-1
400 900 m 1,28,-1
 400 800 l 1,29,-1
 300 800 l 1,30,-1
 300 900 l 1,31,-1
 400 900 l 1,28,-1
EndSplineSet
EndChar

StartChar: rcaron
Encoding: 345 345 283
Width: 700
GlyphClass: 1
Flags: W
LayerCount: 2
Fore
SplineSet
0 -100 m 1,0,-1
 0 500 l 1,1,-1
 100 500 l 1,2,-1
 100 400 l 1,3,-1
 200 400 l 1,4,-1
 200 300 l 1,5,-1
 100 300 l 1,6,-1
 100 -100 l 1,7,-1
 0 -100 l 1,0,-1
0 700 m 1,8,-1
 0 800 l 1,9,-1
 100 800 l 1,10,-1
 100 700 l 1,11,-1
 0 700 l 1,8,-1
100 700 m 1,12,-1
 200 700 l 1,13,-1
 200 600 l 1,14,-1
 100 600 l 1,15,-1
 100 700 l 1,12,-1
200 400 m 1,16,-1
 200 500 l 1,17,-1
 400 500 l 1,18,-1
 400 400 l 1,19,-1
 200 400 l 1,16,-1
200 700 m 1,20,-1
 200 800 l 1,21,-1
 300 800 l 1,22,-1
 300 700 l 1,23,-1
 200 700 l 1,20,-1
EndSplineSet
EndChar

StartChar: Sacute
Encoding: 346 346 284
Width: 700
GlyphClass: 1
Flags: W
LayerCount: 2
Fore
SplineSet
0 200 m 1,0,-1
 100 200 l 1,1,-1
 100 0 l 1,2,-1
 0 0 l 1,3,-1
 0 200 l 1,0,-1
0 500 m 1,4,-1
 0 600 l 1,5,-1
 100 600 l 1,6,-1
 100 500 l 1,7,-1
 0 500 l 1,4,-1
200 500 m 1,8,-1
 200 400 l 1,9,-1
 100 400 l 1,10,-1
 100 500 l 1,11,-1
 200 500 l 1,8,-1
200 400 m 1,12,-1
 300 400 l 1,13,-1
 300 300 l 1,14,-1
 200 300 l 1,15,-1
 200 400 l 1,12,-1
200 700 m 1,16,-1
 400 700 l 1,17,-1
 400 600 l 1,18,-1
 100 600 l 1,19,-1
 100 800 l 1,20,-1
 200 800 l 1,21,-1
 200 700 l 1,16,-1
200 800 m 1,22,-1
 200 900 l 1,23,-1
 300 900 l 1,24,-1
 300 800 l 1,25,-1
 200 800 l 1,22,-1
400 200 m 1,26,-1
 500 200 l 1,27,-1
 500 0 l 1,28,-1
 400 0 l 1,29,-1
 400 200 l 1,26,-1
400 0 m 1,30,-1
 400 -100 l 1,31,-1
 100 -100 l 1,32,-1
 100 0 l 1,33,-1
 400 0 l 1,30,-1
400 300 m 1,34,-1
 400 200 l 1,35,-1
 300 200 l 1,36,-1
 300 300 l 1,37,-1
 400 300 l 1,34,-1
400 400 m 1,38,-1
 400 600 l 1,39,-1
 500 600 l 1,40,-1
 500 400 l 1,41,-1
 400 400 l 1,38,-1
EndSplineSet
EndChar

StartChar: sacute
Encoding: 347 347 285
Width: 700
GlyphClass: 1
Flags: W
LayerCount: 2
Fore
SplineSet
0 0 m 1,0,-1
 0 100 l 1,1,-1
 100 100 l 1,2,-1
 100 0 l 1,3,-1
 0 0 l 1,0,-1
0 300 m 1,4,-1
 0 400 l 1,5,-1
 100 400 l 1,6,-1
 100 300 l 1,7,-1
 0 300 l 1,4,-1
200 700 m 1,8,-1
 200 600 l 1,9,-1
 100 600 l 1,10,-1
 100 700 l 1,11,-1
 200 700 l 1,8,-1
200 800 m 1,12,-1
 300 800 l 1,13,-1
 300 700 l 1,14,-1
 200 700 l 1,15,-1
 200 800 l 1,12,-1
400 200 m 1,16,-1
 400 100 l 1,17,-1
 300 100 l 1,18,-1
 300 200 l 1,19,-1
 400 200 l 1,16,-1
400 100 m 1,20,-1
 500 100 l 1,21,-1
 500 0 l 1,22,-1
 400 0 l 1,23,-1
 400 100 l 1,20,-1
400 0 m 1,24,-1
 400 -100 l 1,25,-1
 100 -100 l 1,26,-1
 100 0 l 1,27,-1
 400 0 l 1,24,-1
400 500 m 1,28,-1
 400 400 l 1,29,-1
 100 400 l 1,30,-1
 100 500 l 1,31,-1
 400 500 l 1,28,-1
400 400 m 1,32,-1
 500 400 l 1,33,-1
 500 300 l 1,34,-1
 400 300 l 1,35,-1
 400 400 l 1,32,-1
100 200 m 1,36,-1
 100 300 l 1,37,-1
 300 300 l 1,38,-1
 300 200 l 1,39,-1
 100 200 l 1,36,-1
EndSplineSet
EndChar

StartChar: Scircumflex
Encoding: 348 348 286
Width: 700
GlyphClass: 1
Flags: W
LayerCount: 2
Fore
SplineSet
0 200 m 1,0,-1
 100 200 l 1,1,-1
 100 0 l 1,2,-1
 0 0 l 1,3,-1
 0 200 l 1,0,-1
0 500 m 1,4,-1
 0 600 l 1,5,-1
 100 600 l 1,6,-1
 100 500 l 1,7,-1
 0 500 l 1,4,-1
200 500 m 1,8,-1
 200 400 l 1,9,-1
 100 400 l 1,10,-1
 100 500 l 1,11,-1
 200 500 l 1,8,-1
200 400 m 1,12,-1
 300 400 l 1,13,-1
 300 300 l 1,14,-1
 200 300 l 1,15,-1
 200 400 l 1,12,-1
200 700 m 1,16,-1
 300 700 l 1,17,-1
 300 800 l 1,18,-1
 400 800 l 1,19,-1
 400 600 l 1,20,-1
 100 600 l 1,21,-1
 100 800 l 1,22,-1
 200 800 l 1,23,-1
 200 700 l 1,16,-1
200 800 m 1,24,-1
 200 900 l 1,25,-1
 300 900 l 1,26,-1
 300 800 l 1,27,-1
 200 800 l 1,24,-1
400 200 m 1,28,-1
 500 200 l 1,29,-1
 500 0 l 1,30,-1
 400 0 l 1,31,-1
 400 200 l 1,28,-1
400 0 m 1,32,-1
 400 -100 l 1,33,-1
 100 -100 l 1,34,-1
 100 0 l 1,35,-1
 400 0 l 1,32,-1
400 300 m 1,36,-1
 400 200 l 1,37,-1
 300 200 l 1,38,-1
 300 300 l 1,39,-1
 400 300 l 1,36,-1
400 400 m 1,40,-1
 400 600 l 1,41,-1
 500 600 l 1,42,-1
 500 400 l 1,43,-1
 400 400 l 1,40,-1
EndSplineSet
EndChar

StartChar: scircumflex
Encoding: 349 349 287
Width: 700
GlyphClass: 1
Flags: W
LayerCount: 2
Fore
SplineSet
0 0 m 1,0,-1
 0 100 l 1,1,-1
 100 100 l 1,2,-1
 100 0 l 1,3,-1
 0 0 l 1,0,-1
0 300 m 1,4,-1
 0 400 l 1,5,-1
 100 400 l 1,6,-1
 100 300 l 1,7,-1
 0 300 l 1,4,-1
200 700 m 1,8,-1
 200 600 l 1,9,-1
 100 600 l 1,10,-1
 100 700 l 1,11,-1
 200 700 l 1,8,-1
200 800 m 1,12,-1
 300 800 l 1,13,-1
 300 700 l 1,14,-1
 200 700 l 1,15,-1
 200 800 l 1,12,-1
400 200 m 1,16,-1
 400 100 l 1,17,-1
 300 100 l 1,18,-1
 300 200 l 1,19,-1
 400 200 l 1,16,-1
400 100 m 1,20,-1
 500 100 l 1,21,-1
 500 0 l 1,22,-1
 400 0 l 1,23,-1
 400 100 l 1,20,-1
400 0 m 1,24,-1
 400 -100 l 1,25,-1
 100 -100 l 1,26,-1
 100 0 l 1,27,-1
 400 0 l 1,24,-1
400 500 m 1,28,-1
 400 400 l 1,29,-1
 100 400 l 1,30,-1
 100 500 l 1,31,-1
 400 500 l 1,28,-1
400 400 m 1,32,-1
 500 400 l 1,33,-1
 500 300 l 1,34,-1
 400 300 l 1,35,-1
 400 400 l 1,32,-1
400 700 m 1,36,-1
 400 600 l 1,37,-1
 300 600 l 1,38,-1
 300 700 l 1,39,-1
 400 700 l 1,36,-1
100 200 m 1,40,-1
 100 300 l 1,41,-1
 300 300 l 1,42,-1
 300 200 l 1,43,-1
 100 200 l 1,40,-1
EndSplineSet
EndChar

StartChar: Scedilla
Encoding: 350 350 288
Width: 700
GlyphClass: 1
Flags: W
LayerCount: 2
Fore
SplineSet
0 200 m 1,0,-1
 100 200 l 1,1,-1
 100 0 l 1,2,-1
 0 0 l 1,3,-1
 0 200 l 1,0,-1
0 500 m 1,4,-1
 0 700 l 1,5,-1
 100 700 l 1,6,-1
 100 500 l 1,7,-1
 0 500 l 1,4,-1
200 -100 m 1,8,-1
 100 -100 l 1,9,-1
 100 0 l 1,10,-1
 400 0 l 1,11,-1
 400 -100 l 1,12,-1
 300 -100 l 1,13,-1
 300 -200 l 1,14,-1
 200 -200 l 1,15,-1
 200 -100 l 1,8,-1
200 -200 m 1,16,-1
 200 -300 l 1,17,-1
 100 -300 l 1,18,-1
 100 -200 l 1,19,-1
 200 -200 l 1,16,-1
200 500 m 1,20,-1
 200 400 l 1,21,-1
 100 400 l 1,22,-1
 100 500 l 1,23,-1
 200 500 l 1,20,-1
200 400 m 1,24,-1
 300 400 l 1,25,-1
 300 300 l 1,26,-1
 200 300 l 1,27,-1
 200 400 l 1,24,-1
400 200 m 1,28,-1
 500 200 l 1,29,-1
 500 0 l 1,30,-1
 400 0 l 1,31,-1
 400 200 l 1,28,-1
400 300 m 1,32,-1
 400 200 l 1,33,-1
 300 200 l 1,34,-1
 300 300 l 1,35,-1
 400 300 l 1,32,-1
400 500 m 1,36,-1
 400 700 l 1,37,-1
 500 700 l 1,38,-1
 500 500 l 1,39,-1
 400 500 l 1,36,-1
400 700 m 1,40,-1
 100 700 l 1,41,-1
 100 800 l 1,42,-1
 400 800 l 1,43,-1
 400 700 l 1,40,-1
EndSplineSet
EndChar

StartChar: scedilla
Encoding: 351 351 289
Width: 700
GlyphClass: 1
Flags: W
LayerCount: 2
Fore
SplineSet
0 0 m 1,0,-1
 0 100 l 1,1,-1
 100 100 l 1,2,-1
 100 0 l 1,3,-1
 0 0 l 1,0,-1
0 300 m 1,4,-1
 0 400 l 1,5,-1
 100 400 l 1,6,-1
 100 300 l 1,7,-1
 0 300 l 1,4,-1
200 -100 m 1,8,-1
 100 -100 l 1,9,-1
 100 0 l 1,10,-1
 400 0 l 1,11,-1
 400 -100 l 1,12,-1
 300 -100 l 1,13,-1
 300 -200 l 1,14,-1
 200 -200 l 1,15,-1
 200 -100 l 1,8,-1
200 -200 m 1,16,-1
 200 -300 l 1,17,-1
 100 -300 l 1,18,-1
 100 -200 l 1,19,-1
 200 -200 l 1,16,-1
400 200 m 1,20,-1
 400 100 l 1,21,-1
 300 100 l 1,22,-1
 300 200 l 1,23,-1
 400 200 l 1,20,-1
400 100 m 1,24,-1
 500 100 l 1,25,-1
 500 0 l 1,26,-1
 400 0 l 1,27,-1
 400 100 l 1,24,-1
400 500 m 1,28,-1
 400 400 l 1,29,-1
 100 400 l 1,30,-1
 100 500 l 1,31,-1
 400 500 l 1,28,-1
400 400 m 1,32,-1
 500 400 l 1,33,-1
 500 300 l 1,34,-1
 400 300 l 1,35,-1
 400 400 l 1,32,-1
100 200 m 1,36,-1
 100 300 l 1,37,-1
 300 300 l 1,38,-1
 300 200 l 1,39,-1
 100 200 l 1,36,-1
EndSplineSet
EndChar

StartChar: Scaron
Encoding: 352 352 290
Width: 700
GlyphClass: 1
Flags: W
LayerCount: 2
Fore
SplineSet
0 200 m 1,0,-1
 100 200 l 1,1,-1
 100 0 l 1,2,-1
 0 0 l 1,3,-1
 0 200 l 1,0,-1
0 500 m 1,4,-1
 0 600 l 1,5,-1
 100 600 l 1,6,-1
 100 500 l 1,7,-1
 0 500 l 1,4,-1
200 500 m 1,8,-1
 200 400 l 1,9,-1
 100 400 l 1,10,-1
 100 500 l 1,11,-1
 200 500 l 1,8,-1
200 400 m 1,12,-1
 300 400 l 1,13,-1
 300 300 l 1,14,-1
 200 300 l 1,15,-1
 200 400 l 1,12,-1
200 700 m 1,16,-1
 200 800 l 1,17,-1
 300 800 l 1,18,-1
 300 700 l 1,19,-1
 400 700 l 1,20,-1
 400 600 l 1,21,-1
 100 600 l 1,22,-1
 100 700 l 1,23,-1
 200 700 l 1,16,-1
200 900 m 1,24,-1
 200 800 l 1,25,-1
 100 800 l 1,26,-1
 100 900 l 1,27,-1
 200 900 l 1,24,-1
400 200 m 1,28,-1
 500 200 l 1,29,-1
 500 0 l 1,30,-1
 400 0 l 1,31,-1
 400 200 l 1,28,-1
400 0 m 1,32,-1
 400 -100 l 1,33,-1
 100 -100 l 1,34,-1
 100 0 l 1,35,-1
 400 0 l 1,32,-1
400 300 m 1,36,-1
 400 200 l 1,37,-1
 300 200 l 1,38,-1
 300 300 l 1,39,-1
 400 300 l 1,36,-1
400 400 m 1,40,-1
 400 600 l 1,41,-1
 500 600 l 1,42,-1
 500 400 l 1,43,-1
 400 400 l 1,40,-1
400 900 m 1,44,-1
 400 800 l 1,45,-1
 300 800 l 1,46,-1
 300 900 l 1,47,-1
 400 900 l 1,44,-1
EndSplineSet
EndChar

StartChar: scaron
Encoding: 353 353 291
Width: 700
GlyphClass: 1
Flags: W
LayerCount: 2
Fore
SplineSet
0 0 m 1,0,-1
 0 100 l 1,1,-1
 100 100 l 1,2,-1
 100 0 l 1,3,-1
 0 0 l 1,0,-1
0 300 m 1,4,-1
 0 400 l 1,5,-1
 100 400 l 1,6,-1
 100 300 l 1,7,-1
 0 300 l 1,4,-1
200 700 m 1,8,-1
 100 700 l 1,9,-1
 100 800 l 1,10,-1
 200 800 l 1,11,-1
 200 700 l 1,8,-1
200 600 m 1,12,-1
 200 700 l 1,13,-1
 300 700 l 1,14,-1
 300 600 l 1,15,-1
 200 600 l 1,12,-1
400 200 m 1,16,-1
 400 100 l 1,17,-1
 300 100 l 1,18,-1
 300 200 l 1,19,-1
 400 200 l 1,16,-1
400 100 m 1,20,-1
 500 100 l 1,21,-1
 500 0 l 1,22,-1
 400 0 l 1,23,-1
 400 100 l 1,20,-1
400 0 m 1,24,-1
 400 -100 l 1,25,-1
 100 -100 l 1,26,-1
 100 0 l 1,27,-1
 400 0 l 1,24,-1
400 500 m 1,28,-1
 400 400 l 1,29,-1
 100 400 l 1,30,-1
 100 500 l 1,31,-1
 400 500 l 1,28,-1
400 400 m 1,32,-1
 500 400 l 1,33,-1
 500 300 l 1,34,-1
 400 300 l 1,35,-1
 400 400 l 1,32,-1
400 700 m 1,36,-1
 300 700 l 1,37,-1
 300 800 l 1,38,-1
 400 800 l 1,39,-1
 400 700 l 1,36,-1
100 200 m 1,40,-1
 100 300 l 1,41,-1
 300 300 l 1,42,-1
 300 200 l 1,43,-1
 100 200 l 1,40,-1
EndSplineSet
EndChar

StartChar: Tcommaaccent
Encoding: 354 354 292
Width: 700
GlyphClass: 1
Flags: W
LayerCount: 2
Fore
SplineSet
0 700 m 1,0,-1
 0 800 l 1,1,-1
 500 800 l 1,2,-1
 500 700 l 1,3,-1
 300 700 l 1,4,-1
 300 0 l 1,5,-1
 400 0 l 1,6,-1
 400 -200 l 1,7,-1
 300 -200 l 1,8,-1
 300 -100 l 1,9,-1
 200 -100 l 1,10,-1
 200 700 l 1,11,-1
 0 700 l 1,0,-1
200 -200 m 1,12,-1
 300 -200 l 1,13,-1
 300 -300 l 1,14,-1
 200 -300 l 1,15,-1
 200 -200 l 1,12,-1
EndSplineSet
EndChar

StartChar: tcommaaccent
Encoding: 355 355 293
Width: 700
GlyphClass: 1
Flags: W
LayerCount: 2
Fore
SplineSet
0 400 m 1,0,-1
 0 500 l 1,1,-1
 100 500 l 1,2,-1
 100 800 l 1,3,-1
 200 800 l 1,4,-1
 200 500 l 1,5,-1
 300 500 l 1,6,-1
 300 400 l 1,7,-1
 200 400 l 1,8,-1
 200 0 l 1,9,-1
 100 0 l 1,10,-1
 100 400 l 1,11,-1
 0 400 l 1,0,-1
100 -200 m 1,12,-1
 200 -200 l 1,13,-1
 200 -300 l 1,14,-1
 100 -300 l 1,15,-1
 100 -200 l 1,12,-1
200 0 m 1,16,-1
 400 0 l 1,17,-1
 400 -100 l 1,18,-1
 300 -100 l 1,19,-1
 300 -200 l 1,20,-1
 200 -200 l 1,21,-1
 200 0 l 1,16,-1
EndSplineSet
EndChar

StartChar: Tcaron
Encoding: 356 356 294
Width: 700
GlyphClass: 1
Flags: W
LayerCount: 2
Fore
SplineSet
0 600 m 1,0,-1
 0 700 l 1,1,-1
 200 700 l 1,2,-1
 200 800 l 1,3,-1
 300 800 l 1,4,-1
 300 700 l 1,5,-1
 500 700 l 1,6,-1
 500 600 l 1,7,-1
 300 600 l 1,8,-1
 300 -100 l 1,9,-1
 200 -100 l 1,10,-1
 200 600 l 1,11,-1
 0 600 l 1,0,-1
100 800 m 1,12,-1
 100 900 l 1,13,-1
 200 900 l 1,14,-1
 200 800 l 1,15,-1
 100 800 l 1,12,-1
300 800 m 1,16,-1
 300 900 l 1,17,-1
 400 900 l 1,18,-1
 400 800 l 1,19,-1
 300 800 l 1,16,-1
EndSplineSet
EndChar

StartChar: tcaron
Encoding: 357 357 295
Width: 700
GlyphClass: 1
Flags: W
LayerCount: 2
Fore
SplineSet
0 400 m 1,0,-1
 0 500 l 1,1,-1
 100 500 l 1,2,-1
 100 800 l 1,3,-1
 200 800 l 1,4,-1
 200 500 l 1,5,-1
 300 500 l 1,6,-1
 300 400 l 1,7,-1
 200 400 l 1,8,-1
 200 0 l 1,9,-1
 100 0 l 1,10,-1
 100 400 l 1,11,-1
 0 400 l 1,0,-1
200 0 m 1,12,-1
 400 0 l 1,13,-1
 400 -100 l 1,14,-1
 200 -100 l 1,15,-1
 200 0 l 1,12,-1
300 500 m 1,16,-1
 300 600 l 1,17,-1
 400 600 l 1,18,-1
 400 500 l 1,19,-1
 300 500 l 1,16,-1
300 700 m 1,20,-1
 300 800 l 1,21,-1
 500 800 l 1,22,-1
 500 600 l 1,23,-1
 400 600 l 1,24,-1
 400 700 l 1,25,-1
 300 700 l 1,20,-1
EndSplineSet
EndChar

StartChar: Tbar
Encoding: 358 358 296
Width: 700
GlyphClass: 1
Flags: W
LayerCount: 2
Fore
SplineSet
0 700 m 1,0,-1
 0 800 l 1,1,-1
 500 800 l 1,2,-1
 500 700 l 1,3,-1
 300 700 l 1,4,-1
 300 400 l 1,5,-1
 400 400 l 1,6,-1
 400 300 l 1,7,-1
 300 300 l 1,8,-1
 300 -100 l 1,9,-1
 200 -100 l 1,10,-1
 200 300 l 1,11,-1
 100 300 l 1,12,-1
 100 400 l 1,13,-1
 200 400 l 1,14,-1
 200 700 l 1,15,-1
 0 700 l 1,0,-1
EndSplineSet
EndChar

StartChar: tbar
Encoding: 359 359 297
Width: 700
GlyphClass: 1
Flags: W
LayerCount: 2
Fore
SplineSet
0 200 m 1,0,-1
 0 300 l 1,1,-1
 100 300 l 1,2,-1
 100 400 l 1,3,-1
 0 400 l 1,4,-1
 0 500 l 1,5,-1
 100 500 l 1,6,-1
 100 800 l 1,7,-1
 200 800 l 1,8,-1
 200 500 l 1,9,-1
 300 500 l 1,10,-1
 300 400 l 1,11,-1
 200 400 l 1,12,-1
 200 300 l 1,13,-1
 300 300 l 1,14,-1
 300 200 l 1,15,-1
 200 200 l 1,16,-1
 200 0 l 1,17,-1
 100 0 l 1,18,-1
 100 200 l 1,19,-1
 0 200 l 1,0,-1
200 0 m 1,20,-1
 400 0 l 1,21,-1
 400 -100 l 1,22,-1
 200 -100 l 1,23,-1
 200 0 l 1,20,-1
EndSplineSet
EndChar

StartChar: Utilde
Encoding: 360 360 298
Width: 700
GlyphClass: 1
Flags: W
LayerCount: 2
Fore
SplineSet
0 0 m 1,0,-1
 0 800 l 1,1,-1
 100 800 l 1,2,-1
 100 0 l 1,3,-1
 0 0 l 1,0,-1
100 0 m 1,4,-1
 400 0 l 1,5,-1
 400 -100 l 1,6,-1
 100 -100 l 1,7,-1
 100 0 l 1,4,-1
100 800 m 1,8,-1
 100 900 l 1,9,-1
 300 900 l 1,10,-1
 300 800 l 1,11,-1
 100 800 l 1,8,-1
300 700 m 1,12,-1
 300 800 l 1,13,-1
 400 800 l 1,14,-1
 400 700 l 1,15,-1
 300 700 l 1,12,-1
400 0 m 1,16,-1
 400 700 l 1,17,-1
 500 700 l 1,18,-1
 500 0 l 1,19,-1
 400 0 l 1,16,-1
400 800 m 1,20,-1
 400 900 l 1,21,-1
 500 900 l 1,22,-1
 500 800 l 1,23,-1
 400 800 l 1,20,-1
EndSplineSet
EndChar

StartChar: utilde
Encoding: 361 361 299
Width: 700
GlyphClass: 1
Flags: W
LayerCount: 2
Fore
SplineSet
0 0 m 1,0,-1
 0 500 l 1,1,-1
 100 500 l 1,2,-1
 100 0 l 1,3,-1
 0 0 l 1,0,-1
0 600 m 1,4,-1
 0 700 l 1,5,-1
 100 700 l 1,6,-1
 100 600 l 1,7,-1
 0 600 l 1,4,-1
100 0 m 1,8,-1
 400 0 l 1,9,-1
 400 500 l 1,10,-1
 500 500 l 1,11,-1
 500 -100 l 1,12,-1
 100 -100 l 1,13,-1
 100 0 l 1,8,-1
100 700 m 1,14,-1
 100 800 l 1,15,-1
 300 800 l 1,16,-1
 300 700 l 1,17,-1
 100 700 l 1,14,-1
300 700 m 1,18,-1
 400 700 l 1,19,-1
 400 600 l 1,20,-1
 300 600 l 1,21,-1
 300 700 l 1,18,-1
400 700 m 1,22,-1
 400 800 l 1,23,-1
 500 800 l 1,24,-1
 500 700 l 1,25,-1
 400 700 l 1,22,-1
EndSplineSet
EndChar

StartChar: Umacron
Encoding: 362 362 300
Width: 700
GlyphClass: 1
Flags: W
LayerCount: 2
Fore
SplineSet
0 0 m 1,0,-1
 0 700 l 1,1,-1
 100 700 l 1,2,-1
 100 0 l 1,3,-1
 0 0 l 1,0,-1
100 0 m 1,4,-1
 400 0 l 1,5,-1
 400 -100 l 1,6,-1
 100 -100 l 1,7,-1
 100 0 l 1,4,-1
100 800 m 1,8,-1
 100 900 l 1,9,-1
 400 900 l 1,10,-1
 400 800 l 1,11,-1
 100 800 l 1,8,-1
400 0 m 1,12,-1
 400 700 l 1,13,-1
 500 700 l 1,14,-1
 500 0 l 1,15,-1
 400 0 l 1,12,-1
EndSplineSet
EndChar

StartChar: umacron
Encoding: 363 363 301
Width: 700
GlyphClass: 1
Flags: W
LayerCount: 2
Fore
SplineSet
0 0 m 1,0,-1
 0 500 l 1,1,-1
 100 500 l 1,2,-1
 100 0 l 1,3,-1
 0 0 l 1,0,-1
100 0 m 1,4,-1
 400 0 l 1,5,-1
 400 500 l 1,6,-1
 500 500 l 1,7,-1
 500 -100 l 1,8,-1
 100 -100 l 1,9,-1
 100 0 l 1,4,-1
100 600 m 1,10,-1
 100 700 l 1,11,-1
 400 700 l 1,12,-1
 400 600 l 1,13,-1
 100 600 l 1,10,-1
EndSplineSet
EndChar

StartChar: Ubreve
Encoding: 364 364 302
Width: 700
GlyphClass: 1
Flags: W
LayerCount: 2
Fore
SplineSet
0 0 m 1,0,-1
 0 700 l 1,1,-1
 100 700 l 1,2,-1
 100 0 l 1,3,-1
 0 0 l 1,0,-1
0 800 m 1,4,-1
 0 900 l 1,5,-1
 100 900 l 1,6,-1
 100 800 l 1,7,-1
 0 800 l 1,4,-1
100 0 m 1,8,-1
 400 0 l 1,9,-1
 400 -100 l 1,10,-1
 100 -100 l 1,11,-1
 100 0 l 1,8,-1
100 700 m 1,12,-1
 100 800 l 1,13,-1
 300 800 l 1,14,-1
 300 700 l 1,15,-1
 100 700 l 1,12,-1
300 800 m 1,16,-1
 300 900 l 1,17,-1
 400 900 l 1,18,-1
 400 800 l 1,19,-1
 300 800 l 1,16,-1
400 0 m 1,20,-1
 400 700 l 1,21,-1
 500 700 l 1,22,-1
 500 0 l 1,23,-1
 400 0 l 1,20,-1
EndSplineSet
EndChar

StartChar: ubreve
Encoding: 365 365 303
Width: 700
GlyphClass: 1
Flags: W
LayerCount: 2
Fore
SplineSet
0 0 m 1,0,-1
 0 500 l 1,1,-1
 100 500 l 1,2,-1
 100 0 l 1,3,-1
 0 0 l 1,0,-1
0 700 m 1,4,-1
 0 800 l 1,5,-1
 100 800 l 1,6,-1
 100 700 l 1,7,-1
 0 700 l 1,4,-1
100 0 m 1,8,-1
 400 0 l 1,9,-1
 400 500 l 1,10,-1
 500 500 l 1,11,-1
 500 -100 l 1,12,-1
 100 -100 l 1,13,-1
 100 0 l 1,8,-1
100 700 m 1,14,-1
 300 700 l 1,15,-1
 300 600 l 1,16,-1
 100 600 l 1,17,-1
 100 700 l 1,14,-1
300 700 m 1,18,-1
 300 800 l 1,19,-1
 400 800 l 1,20,-1
 400 700 l 1,21,-1
 300 700 l 1,18,-1
EndSplineSet
EndChar

StartChar: Uring
Encoding: 366 366 304
Width: 700
GlyphClass: 1
Flags: W
LayerCount: 2
Fore
SplineSet
0 0 m 1,0,-1
 0 800 l 1,1,-1
 100 800 l 1,2,-1
 100 700 l 1,3,-1
 300 700 l 1,4,-1
 300 600 l 1,5,-1
 100 600 l 1,6,-1
 100 0 l 1,7,-1
 0 0 l 1,0,-1
100 0 m 1,8,-1
 400 0 l 1,9,-1
 400 -100 l 1,10,-1
 100 -100 l 1,11,-1
 100 0 l 1,8,-1
100 800 m 1,12,-1
 100 900 l 1,13,-1
 300 900 l 1,14,-1
 300 800 l 1,15,-1
 100 800 l 1,12,-1
300 700 m 1,16,-1
 300 800 l 1,17,-1
 400 800 l 1,18,-1
 400 700 l 1,19,-1
 300 700 l 1,16,-1
400 0 m 1,20,-1
 400 700 l 1,21,-1
 500 700 l 1,22,-1
 500 0 l 1,23,-1
 400 0 l 1,20,-1
EndSplineSet
EndChar

StartChar: uring
Encoding: 367 367 305
Width: 700
GlyphClass: 1
Flags: W
LayerCount: 2
Fore
SplineSet
0 0 m 1,0,-1
 0 500 l 1,1,-1
 100 500 l 1,2,-1
 100 0 l 1,3,-1
 0 0 l 1,0,-1
0 600 m 1,4,-1
 0 700 l 1,5,-1
 100 700 l 1,6,-1
 100 600 l 1,7,-1
 0 600 l 1,4,-1
100 0 m 1,8,-1
 400 0 l 1,9,-1
 400 500 l 1,10,-1
 500 500 l 1,11,-1
 500 -100 l 1,12,-1
 100 -100 l 1,13,-1
 100 0 l 1,8,-1
100 500 m 1,14,-1
 100 600 l 1,15,-1
 300 600 l 1,16,-1
 300 500 l 1,17,-1
 100 500 l 1,14,-1
100 700 m 1,18,-1
 100 800 l 1,19,-1
 300 800 l 1,20,-1
 300 700 l 1,21,-1
 100 700 l 1,18,-1
300 700 m 1,22,-1
 400 700 l 1,23,-1
 400 600 l 1,24,-1
 300 600 l 1,25,-1
 300 700 l 1,22,-1
EndSplineSet
EndChar

StartChar: Uhungarumlaut
Encoding: 368 368 306
Width: 700
GlyphClass: 1
Flags: W
LayerCount: 2
Fore
SplineSet
0 0 m 1,0,-1
 0 800 l 1,1,-1
 100 800 l 1,2,-1
 100 0 l 1,3,-1
 0 0 l 1,0,-1
100 0 m 1,4,-1
 400 0 l 1,5,-1
 400 -100 l 1,6,-1
 100 -100 l 1,7,-1
 100 0 l 1,4,-1
100 800 m 1,8,-1
 100 900 l 1,9,-1
 200 900 l 1,10,-1
 200 800 l 1,11,-1
 100 800 l 1,8,-1
300 700 m 1,12,-1
 300 800 l 1,13,-1
 400 800 l 1,14,-1
 400 700 l 1,15,-1
 300 700 l 1,12,-1
400 0 m 1,16,-1
 400 700 l 1,17,-1
 500 700 l 1,18,-1
 500 0 l 1,19,-1
 400 0 l 1,16,-1
400 800 m 1,20,-1
 400 900 l 1,21,-1
 500 900 l 1,22,-1
 500 800 l 1,23,-1
 400 800 l 1,20,-1
EndSplineSet
EndChar

StartChar: uhungarumlaut
Encoding: 369 369 307
Width: 700
GlyphClass: 1
Flags: W
LayerCount: 2
Fore
SplineSet
0 0 m 1,0,-1
 0 500 l 1,1,-1
 100 500 l 1,2,-1
 100 0 l 1,3,-1
 0 0 l 1,0,-1
0 600 m 1,4,-1
 0 700 l 1,5,-1
 100 700 l 1,6,-1
 100 600 l 1,7,-1
 0 600 l 1,4,-1
100 0 m 1,8,-1
 400 0 l 1,9,-1
 400 500 l 1,10,-1
 500 500 l 1,11,-1
 500 -100 l 1,12,-1
 100 -100 l 1,13,-1
 100 0 l 1,8,-1
100 700 m 1,14,-1
 100 800 l 1,15,-1
 200 800 l 1,16,-1
 200 700 l 1,17,-1
 100 700 l 1,14,-1
300 600 m 1,18,-1
 300 700 l 1,19,-1
 400 700 l 1,20,-1
 400 600 l 1,21,-1
 300 600 l 1,18,-1
400 700 m 1,22,-1
 400 800 l 1,23,-1
 500 800 l 1,24,-1
 500 700 l 1,25,-1
 400 700 l 1,22,-1
EndSplineSet
EndChar

StartChar: Uogonek
Encoding: 370 370 308
Width: 700
GlyphClass: 1
Flags: W
LayerCount: 2
Fore
SplineSet
0 0 m 1,0,-1
 0 800 l 1,1,-1
 100 800 l 1,2,-1
 100 0 l 1,3,-1
 0 0 l 1,0,-1
100 0 m 1,4,-1
 400 0 l 1,5,-1
 400 -100 l 1,6,-1
 300 -100 l 1,7,-1
 300 -200 l 1,8,-1
 200 -200 l 1,9,-1
 200 -100 l 1,10,-1
 100 -100 l 1,11,-1
 100 0 l 1,4,-1
300 -200 m 1,12,-1
 500 -200 l 1,13,-1
 500 -300 l 1,14,-1
 300 -300 l 1,15,-1
 300 -200 l 1,12,-1
400 0 m 1,16,-1
 400 800 l 1,17,-1
 500 800 l 1,18,-1
 500 0 l 1,19,-1
 400 0 l 1,16,-1
EndSplineSet
EndChar

StartChar: uogonek
Encoding: 371 371 309
Width: 700
GlyphClass: 1
Flags: W
LayerCount: 2
Fore
SplineSet
0 0 m 1,0,-1
 0 500 l 1,1,-1
 100 500 l 1,2,-1
 100 0 l 1,3,-1
 0 0 l 1,0,-1
100 0 m 1,4,-1
 400 0 l 1,5,-1
 400 500 l 1,6,-1
 500 500 l 1,7,-1
 500 -100 l 1,8,-1
 300 -100 l 1,9,-1
 300 -200 l 1,10,-1
 200 -200 l 1,11,-1
 200 -100 l 1,12,-1
 100 -100 l 1,13,-1
 100 0 l 1,4,-1
300 -200 m 1,14,-1
 500 -200 l 1,15,-1
 500 -300 l 1,16,-1
 300 -300 l 1,17,-1
 300 -200 l 1,14,-1
EndSplineSet
EndChar

StartChar: Wcircumflex
Encoding: 372 372 310
Width: 700
GlyphClass: 1
Flags: W
LayerCount: 2
Fore
SplineSet
0 300 m 1,0,-1
 0 700 l 1,1,-1
 100 700 l 1,2,-1
 100 300 l 1,3,-1
 0 300 l 1,0,-1
100 -100 m 1,4,-1
 100 300 l 1,5,-1
 200 300 l 1,6,-1
 200 -100 l 1,7,-1
 100 -100 l 1,4,-1
100 700 m 1,8,-1
 100 800 l 1,9,-1
 200 800 l 1,10,-1
 200 700 l 1,11,-1
 100 700 l 1,8,-1
200 300 m 1,12,-1
 200 700 l 1,13,-1
 300 700 l 1,14,-1
 300 300 l 1,15,-1
 200 300 l 1,12,-1
200 800 m 1,16,-1
 200 900 l 1,17,-1
 300 900 l 1,18,-1
 300 800 l 1,19,-1
 200 800 l 1,16,-1
300 -100 m 1,20,-1
 300 300 l 1,21,-1
 400 300 l 1,22,-1
 400 -100 l 1,23,-1
 300 -100 l 1,20,-1
300 700 m 1,24,-1
 300 800 l 1,25,-1
 400 800 l 1,26,-1
 400 700 l 1,27,-1
 300 700 l 1,24,-1
400 300 m 1,28,-1
 400 700 l 1,29,-1
 500 700 l 1,30,-1
 500 300 l 1,31,-1
 400 300 l 1,28,-1
EndSplineSet
EndChar

StartChar: wcircumflex
Encoding: 373 373 311
Width: 700
GlyphClass: 1
Flags: W
LayerCount: 2
Fore
SplineSet
0 200 m 1,0,-1
 0 500 l 1,1,-1
 100 500 l 1,2,-1
 100 200 l 1,3,-1
 0 200 l 1,0,-1
200 200 m 1,4,-1
 200 -100 l 1,5,-1
 100 -100 l 1,6,-1
 100 200 l 1,7,-1
 200 200 l 1,4,-1
200 500 m 1,8,-1
 300 500 l 1,9,-1
 300 200 l 1,10,-1
 200 200 l 1,11,-1
 200 500 l 1,8,-1
200 700 m 1,12,-1
 200 600 l 1,13,-1
 100 600 l 1,14,-1
 100 700 l 1,15,-1
 200 700 l 1,12,-1
200 800 m 1,16,-1
 300 800 l 1,17,-1
 300 700 l 1,18,-1
 200 700 l 1,19,-1
 200 800 l 1,16,-1
400 200 m 1,20,-1
 400 -100 l 1,21,-1
 300 -100 l 1,22,-1
 300 200 l 1,23,-1
 400 200 l 1,20,-1
400 500 m 1,24,-1
 500 500 l 1,25,-1
 500 200 l 1,26,-1
 400 200 l 1,27,-1
 400 500 l 1,24,-1
400 700 m 1,28,-1
 400 600 l 1,29,-1
 300 600 l 1,30,-1
 300 700 l 1,31,-1
 400 700 l 1,28,-1
EndSplineSet
EndChar

StartChar: Ycircumflex
Encoding: 374 374 312
Width: 700
GlyphClass: 1
Flags: W
LayerCount: 2
Fore
SplineSet
0 500 m 1,0,-1
 0 700 l 1,1,-1
 100 700 l 1,2,-1
 100 500 l 1,3,-1
 0 500 l 1,0,-1
100 500 m 1,4,-1
 200 500 l 1,5,-1
 200 300 l 1,6,-1
 100 300 l 1,7,-1
 100 500 l 1,4,-1
100 700 m 1,8,-1
 100 800 l 1,9,-1
 200 800 l 1,10,-1
 200 700 l 1,11,-1
 100 700 l 1,8,-1
200 -100 m 1,12,-1
 200 300 l 1,13,-1
 300 300 l 1,14,-1
 300 -100 l 1,15,-1
 200 -100 l 1,12,-1
200 800 m 1,16,-1
 200 900 l 1,17,-1
 300 900 l 1,18,-1
 300 800 l 1,19,-1
 200 800 l 1,16,-1
300 500 m 1,20,-1
 400 500 l 1,21,-1
 400 300 l 1,22,-1
 300 300 l 1,23,-1
 300 500 l 1,20,-1
300 700 m 1,24,-1
 300 800 l 1,25,-1
 400 800 l 1,26,-1
 400 700 l 1,27,-1
 300 700 l 1,24,-1
400 500 m 1,28,-1
 400 700 l 1,29,-1
 500 700 l 1,30,-1
 500 500 l 1,31,-1
 400 500 l 1,28,-1
EndSplineSet
EndChar

StartChar: ycircumflex
Encoding: 375 375 313
Width: 700
GlyphClass: 1
Flags: W
LayerCount: 2
Fore
SplineSet
0 -200 m 1,0,-1
 0 -100 l 1,1,-1
 200 -100 l 1,2,-1
 200 -200 l 1,3,-1
 0 -200 l 1,0,-1
0 500 m 1,4,-1
 100 500 l 1,5,-1
 100 300 l 1,6,-1
 0 300 l 1,7,-1
 0 500 l 1,4,-1
200 100 m 1,8,-1
 100 100 l 1,9,-1
 100 300 l 1,10,-1
 200 300 l 1,11,-1
 200 100 l 1,8,-1
200 -100 m 1,12,-1
 200 100 l 1,13,-1
 300 100 l 1,14,-1
 300 -100 l 1,15,-1
 200 -100 l 1,12,-1
200 700 m 1,16,-1
 200 600 l 1,17,-1
 100 600 l 1,18,-1
 100 700 l 1,19,-1
 200 700 l 1,16,-1
200 800 m 1,20,-1
 300 800 l 1,21,-1
 300 700 l 1,22,-1
 200 700 l 1,23,-1
 200 800 l 1,20,-1
400 100 m 1,24,-1
 300 100 l 1,25,-1
 300 300 l 1,26,-1
 400 300 l 1,27,-1
 400 100 l 1,24,-1
400 500 m 1,28,-1
 500 500 l 1,29,-1
 500 300 l 1,30,-1
 400 300 l 1,31,-1
 400 500 l 1,28,-1
400 700 m 1,32,-1
 400 600 l 1,33,-1
 300 600 l 1,34,-1
 300 700 l 1,35,-1
 400 700 l 1,32,-1
EndSplineSet
EndChar

StartChar: Ydieresis
Encoding: 376 376 314
Width: 700
GlyphClass: 1
Flags: W
LayerCount: 2
Fore
SplineSet
0 500 m 1,0,-1
 0 700 l 1,1,-1
 100 700 l 1,2,-1
 100 500 l 1,3,-1
 0 500 l 1,0,-1
100 500 m 1,4,-1
 200 500 l 1,5,-1
 200 300 l 1,6,-1
 100 300 l 1,7,-1
 100 500 l 1,4,-1
100 800 m 1,8,-1
 100 900 l 1,9,-1
 200 900 l 1,10,-1
 200 800 l 1,11,-1
 100 800 l 1,8,-1
200 -100 m 1,12,-1
 200 300 l 1,13,-1
 300 300 l 1,14,-1
 300 -100 l 1,15,-1
 200 -100 l 1,12,-1
300 500 m 1,16,-1
 400 500 l 1,17,-1
 400 300 l 1,18,-1
 300 300 l 1,19,-1
 300 500 l 1,16,-1
300 800 m 1,20,-1
 300 900 l 1,21,-1
 400 900 l 1,22,-1
 400 800 l 1,23,-1
 300 800 l 1,20,-1
400 500 m 1,24,-1
 400 700 l 1,25,-1
 500 700 l 1,26,-1
 500 500 l 1,27,-1
 400 500 l 1,24,-1
EndSplineSet
EndChar

StartChar: Zacute
Encoding: 377 377 315
Width: 700
GlyphClass: 1
Flags: W
LayerCount: 2
Fore
SplineSet
0 100 m 1,0,-1
 100 100 l 1,1,-1
 100 0 l 1,2,-1
 500 0 l 1,3,-1
 500 -100 l 1,4,-1
 0 -100 l 1,5,-1
 0 100 l 1,0,-1
0 600 m 1,6,-1
 0 700 l 1,7,-1
 200 700 l 1,8,-1
 200 800 l 1,9,-1
 300 800 l 1,10,-1
 300 700 l 1,11,-1
 500 700 l 1,12,-1
 500 500 l 1,13,-1
 400 500 l 1,14,-1
 400 600 l 1,15,-1
 0 600 l 1,6,-1
200 100 m 1,16,-1
 100 100 l 1,17,-1
 100 300 l 1,18,-1
 200 300 l 1,19,-1
 200 100 l 1,16,-1
200 300 m 1,20,-1
 200 400 l 1,21,-1
 300 400 l 1,22,-1
 300 300 l 1,23,-1
 200 300 l 1,20,-1
400 500 m 1,24,-1
 400 400 l 1,25,-1
 300 400 l 1,26,-1
 300 500 l 1,27,-1
 400 500 l 1,24,-1
400 900 m 1,28,-1
 400 800 l 1,29,-1
 300 800 l 1,30,-1
 300 900 l 1,31,-1
 400 900 l 1,28,-1
EndSplineSet
EndChar

StartChar: zacute
Encoding: 378 378 316
Width: 700
GlyphClass: 1
Flags: W
LayerCount: 2
Fore
SplineSet
0 -100 m 1,0,-1
 0 0 l 1,1,-1
 100 0 l 1,2,-1
 100 100 l 1,3,-1
 200 100 l 1,4,-1
 200 0 l 1,5,-1
 500 0 l 1,6,-1
 500 -100 l 1,7,-1
 0 -100 l 1,0,-1
0 400 m 1,8,-1
 0 500 l 1,9,-1
 500 500 l 1,10,-1
 500 300 l 1,11,-1
 400 300 l 1,12,-1
 400 400 l 1,13,-1
 0 400 l 1,8,-1
200 100 m 1,14,-1
 200 200 l 1,15,-1
 300 200 l 1,16,-1
 300 100 l 1,17,-1
 200 100 l 1,14,-1
200 600 m 1,18,-1
 200 700 l 1,19,-1
 300 700 l 1,20,-1
 300 600 l 1,21,-1
 200 600 l 1,18,-1
400 200 m 1,22,-1
 300 200 l 1,23,-1
 300 300 l 1,24,-1
 400 300 l 1,25,-1
 400 200 l 1,22,-1
400 700 m 1,26,-1
 300 700 l 1,27,-1
 300 800 l 1,28,-1
 400 800 l 1,29,-1
 400 700 l 1,26,-1
EndSplineSet
EndChar

StartChar: Zdotaccent
Encoding: 379 379 317
Width: 700
GlyphClass: 1
Flags: W
LayerCount: 2
Fore
SplineSet
0 100 m 1,0,-1
 100 100 l 1,1,-1
 100 0 l 1,2,-1
 500 0 l 1,3,-1
 500 -100 l 1,4,-1
 0 -100 l 1,5,-1
 0 100 l 1,0,-1
0 600 m 1,6,-1
 0 700 l 1,7,-1
 500 700 l 1,8,-1
 500 500 l 1,9,-1
 400 500 l 1,10,-1
 400 600 l 1,11,-1
 0 600 l 1,6,-1
100 100 m 1,12,-1
 100 300 l 1,13,-1
 200 300 l 1,14,-1
 200 100 l 1,15,-1
 100 100 l 1,12,-1
200 300 m 1,16,-1
 200 400 l 1,17,-1
 300 400 l 1,18,-1
 300 300 l 1,19,-1
 200 300 l 1,16,-1
200 800 m 1,20,-1
 200 900 l 1,21,-1
 300 900 l 1,22,-1
 300 800 l 1,23,-1
 200 800 l 1,20,-1
300 400 m 1,24,-1
 300 500 l 1,25,-1
 400 500 l 1,26,-1
 400 400 l 1,27,-1
 300 400 l 1,24,-1
EndSplineSet
EndChar

StartChar: zdotaccent
Encoding: 380 380 318
Width: 700
GlyphClass: 1
Flags: W
LayerCount: 2
Fore
SplineSet
0 -100 m 1,0,-1
 0 0 l 1,1,-1
 100 0 l 1,2,-1
 100 100 l 1,3,-1
 200 100 l 1,4,-1
 200 0 l 1,5,-1
 500 0 l 1,6,-1
 500 -100 l 1,7,-1
 0 -100 l 1,0,-1
0 400 m 1,8,-1
 0 500 l 1,9,-1
 500 500 l 1,10,-1
 500 300 l 1,11,-1
 400 300 l 1,12,-1
 400 400 l 1,13,-1
 0 400 l 1,8,-1
200 100 m 1,14,-1
 200 200 l 1,15,-1
 300 200 l 1,16,-1
 300 100 l 1,17,-1
 200 100 l 1,14,-1
200 600 m 1,18,-1
 200 700 l 1,19,-1
 300 700 l 1,20,-1
 300 600 l 1,21,-1
 200 600 l 1,18,-1
300 200 m 1,22,-1
 300 300 l 1,23,-1
 400 300 l 1,24,-1
 400 200 l 1,25,-1
 300 200 l 1,22,-1
EndSplineSet
EndChar

StartChar: Zcaron
Encoding: 381 381 319
Width: 700
GlyphClass: 1
Flags: W
LayerCount: 2
Fore
SplineSet
0 100 m 1,0,-1
 100 100 l 1,1,-1
 100 0 l 1,2,-1
 500 0 l 1,3,-1
 500 -100 l 1,4,-1
 0 -100 l 1,5,-1
 0 100 l 1,0,-1
0 600 m 1,6,-1
 0 700 l 1,7,-1
 200 700 l 1,8,-1
 200 800 l 1,9,-1
 300 800 l 1,10,-1
 300 700 l 1,11,-1
 500 700 l 1,12,-1
 500 500 l 1,13,-1
 400 500 l 1,14,-1
 400 600 l 1,15,-1
 0 600 l 1,6,-1
200 100 m 1,16,-1
 100 100 l 1,17,-1
 100 300 l 1,18,-1
 200 300 l 1,19,-1
 200 100 l 1,16,-1
200 300 m 1,20,-1
 200 400 l 1,21,-1
 300 400 l 1,22,-1
 300 300 l 1,23,-1
 200 300 l 1,20,-1
200 900 m 1,24,-1
 200 800 l 1,25,-1
 100 800 l 1,26,-1
 100 900 l 1,27,-1
 200 900 l 1,24,-1
400 500 m 1,28,-1
 400 400 l 1,29,-1
 300 400 l 1,30,-1
 300 500 l 1,31,-1
 400 500 l 1,28,-1
400 900 m 1,32,-1
 400 800 l 1,33,-1
 300 800 l 1,34,-1
 300 900 l 1,35,-1
 400 900 l 1,32,-1
EndSplineSet
EndChar

StartChar: zcaron
Encoding: 382 382 320
Width: 700
GlyphClass: 1
Flags: W
LayerCount: 2
Fore
SplineSet
0 -100 m 1,0,-1
 0 0 l 1,1,-1
 100 0 l 1,2,-1
 100 100 l 1,3,-1
 200 100 l 1,4,-1
 200 0 l 1,5,-1
 500 0 l 1,6,-1
 500 -100 l 1,7,-1
 0 -100 l 1,0,-1
0 400 m 1,8,-1
 0 500 l 1,9,-1
 500 500 l 1,10,-1
 500 300 l 1,11,-1
 400 300 l 1,12,-1
 400 400 l 1,13,-1
 0 400 l 1,8,-1
200 100 m 1,14,-1
 200 200 l 1,15,-1
 300 200 l 1,16,-1
 300 100 l 1,17,-1
 200 100 l 1,14,-1
200 700 m 1,18,-1
 100 700 l 1,19,-1
 100 800 l 1,20,-1
 200 800 l 1,21,-1
 200 700 l 1,18,-1
200 600 m 1,22,-1
 200 700 l 1,23,-1
 300 700 l 1,24,-1
 300 600 l 1,25,-1
 200 600 l 1,22,-1
400 200 m 1,26,-1
 300 200 l 1,27,-1
 300 300 l 1,28,-1
 400 300 l 1,29,-1
 400 200 l 1,26,-1
400 700 m 1,30,-1
 300 700 l 1,31,-1
 300 800 l 1,32,-1
 400 800 l 1,33,-1
 400 700 l 1,30,-1
EndSplineSet
EndChar

